<?xml version="1.0" encoding="utf-8"?>
<!-- Generator: Adobe Illustrator 27.5.0, SVG Export Plug-In . SVG Version: 6.00 Build 0)  -->
<svg version="1.1" xmlns="http://www.w3.org/2000/svg" xmlns:xlink="http://www.w3.org/1999/xlink" x="0px" y="0px"
	 viewBox="0 0 500 500" style="enable-background:new 0 0 500 500;" xml:space="preserve">
<g id="BACKGROUND">
	<rect style="fill:#FFFFFF;" width="500" height="500"/>
</g>
<g id="OBJECTS">
	<ellipse style="opacity:0.1;" cx="238.979" cy="433.903" rx="200.808" ry="25.405"/>
	
		<ellipse transform="matrix(0.7071 -0.7071 0.7071 0.7071 -106.9674 251.4141)" style="fill:#88C3FF;" cx="250" cy="254.828" rx="173.081" ry="173.081"/>
	<g>
		<path style="fill:#A3BF54;" d="M252.437,131.153c-12.895,28.816-13.188,59.87-3.236,86.331
			c26.361-10.211,49.322-31.122,62.217-59.938s13.188-59.87,3.236-86.331C288.292,81.426,265.331,102.337,252.437,131.153z"/>
		<path style="fill:#819642;" d="M280.823,143.855c-12.895,28.816-24.097,54.988-31.623,73.628
			c8.885-18.032,20.936-43.824,33.831-72.64c12.895-28.816,24.097-54.988,31.623-73.628
			C305.769,89.247,293.718,115.039,280.823,143.855z"/>
	</g>
	<g>
		<path style="fill:#88A142;" d="M201.102,178.212c8.97,5.652,18.106,10.425,27.237,14.296l3.677-8.701l4.721,12.011
			c11.961,4.355,23.82,7.151,35.184,8.324c-3.566-14.025-9.818-28.458-18.527-42.525l-9.413-0.969l5.678-4.818
			c-6.944-10.325-15.221-20.391-24.742-29.886l-12.33,4.351l4.452-11.814c-1.117-1.006-2.244-2.008-3.391-2.998
			c-7.27-6.279-14.788-11.921-22.44-16.928l-10.91,6.216l2.145-11.637c-8.867-5.174-17.856-9.497-26.808-12.948l-3.372,7.978
			l-4.204-10.695c-10.405-3.449-20.695-5.708-30.608-6.732c2.947,11.592,7.732,23.461,14.219,35.174l8.612,0.886l-5.435,4.612
			c6.324,10.498,14.02,20.811,22.997,30.622l13.832-4.881l-5.192,13.776c2.967,2.881,6.043,5.709,9.24,8.47
			c4.649,4.015,9.399,7.769,14.22,11.266L201.102,178.212z"/>
		<path style="fill:#6E8235;" d="M193.977,138.264c30.432,26.282,58.144,49.663,77.944,65.88
			c-18.927-17.229-46.093-41.242-76.525-67.524c-30.432-26.282-58.144-49.663-77.944-65.88
			C136.379,87.969,163.545,111.982,193.977,138.264z"/>
	</g>
	<g>
		
			<line style="fill:none;stroke:#88A142;stroke-width:3;stroke-linecap:round;stroke-linejoin:round;stroke-miterlimit:10;" x1="335.976" y1="214.597" x2="393.016" y2="97.142"/>
		<path style="fill:#88A142;" d="M393.149,77.817c-3.871,7.97-4.638,16.666-2.792,24.802c7.535-3.581,13.895-9.56,17.766-17.53
			c3.871-7.97,4.637-16.666,2.792-24.802C403.379,63.868,397.019,69.847,393.149,77.817z"/>
		<path style="fill:#88A142;" d="M403.067,104.796c-7.647,1.45-14.198,5.369-18.997,10.769c6.443,3.269,13.973,4.519,21.62,3.069
			c7.647-1.45,14.198-5.369,18.997-10.769C418.244,104.596,410.714,103.346,403.067,104.796z"/>
		<path style="fill:#88A142;" d="M399.872,127.686c-7.402-2.408-15.029-2.124-21.835,0.301c4.076,5.966,10.076,10.684,17.477,13.092
			c7.402,2.408,15.029,2.124,21.835-0.301C413.273,134.812,407.273,130.094,399.872,127.686z"/>
		<path style="fill:#88A142;" d="M386.529,145.827c-7.784,0.043-14.934,2.713-20.631,7.156c5.746,4.38,12.926,6.971,20.709,6.928
			c7.784-0.043,14.934-2.713,20.631-7.156C401.492,148.375,394.312,145.784,386.529,145.827z"/>
		<path style="fill:#88A142;" d="M382.428,164.018c-7.337-2.598-14.97-2.511-21.835-0.262c3.92,6.069,9.796,10.941,17.133,13.539
			c7.337,2.598,14.97,2.511,21.836,0.262C395.642,171.488,389.765,166.616,382.428,164.018z"/>
		<path style="fill:#88A142;" d="M370.816,181.545c-7.745-0.774-15.137,1.132-21.268,4.953c5.255,4.959,12.123,8.288,19.868,9.062
			c7.745,0.774,15.137-1.132,21.268-4.953C385.43,185.648,378.561,182.318,370.816,181.545z"/>
		<path style="fill:#88A142;" d="M357.59,199.006c-5.891-0.589-11.514,0.861-16.178,3.767c3.997,3.772,9.222,6.305,15.113,6.893
			c5.891,0.589,11.514-0.861,16.178-3.767C368.706,202.127,363.481,199.595,357.59,199.006z"/>
		<path style="fill:#88A142;" d="M377.107,100.294c3.589,6.907,4.559,14.478,3.283,21.589c-6.553-3.042-12.191-8.187-15.781-15.094
			s-4.559-14.478-3.283-21.589C367.879,88.243,373.518,93.387,377.107,100.294z"/>
		<path style="fill:#88A142;" d="M361.093,116.958c6.469,4.328,10.962,10.499,13.264,17.347c-7.208,0.486-14.627-1.312-21.096-5.641
			c-6.469-4.328-10.962-10.499-13.264-17.347C347.205,110.832,354.624,112.63,361.093,116.958z"/>
		<path style="fill:#88A142;" d="M355.086,138.662c4.779,6.144,7.102,13.415,7.132,20.639c-6.995-1.807-13.471-5.848-18.25-11.992
			c-4.779-6.144-7.102-13.415-7.132-20.64C343.831,128.477,350.307,132.518,355.086,138.662z"/>
		<path style="fill:#88A142;" d="M343.325,153.133c6.579,4.16,11.23,10.212,13.708,16.999c-7.194,0.671-14.656-0.934-21.235-5.094
			c-6.579-4.16-11.23-10.212-13.708-16.999C329.284,147.367,336.746,148.973,343.325,153.133z"/>
		<path style="fill:#88A142;" d="M336.73,173.097c5.397,5.609,8.47,12.596,9.258,19.777c-7.146-1.064-14.01-4.403-19.407-10.012
			c-5.397-5.609-8.47-12.596-9.258-19.778C324.469,164.148,331.333,167.488,336.73,173.097z"/>
		<path style="fill:#88A142;" d="M331.185,194.288c4.105,4.266,6.443,9.581,7.042,15.044c-5.436-0.809-10.657-3.349-14.762-7.615
			c-4.105-4.266-6.443-9.581-7.042-15.044C321.859,187.482,327.08,190.022,331.185,194.288z"/>
	</g>
	<g>
		
			<line style="fill:none;stroke:#88A142;stroke-width:2;stroke-linecap:round;stroke-linejoin:round;stroke-miterlimit:10;" x1="132.891" y1="310.139" x2="62.693" y2="223.059"/>
		<path style="fill:#88A142;" d="M47.766,215.903c4.764,5.909,11.222,9.678,18.201,11.218c-0.024-7.147-2.336-14.258-7.1-20.167
			c-4.764-5.909-11.222-9.678-18.201-11.218C40.69,202.882,43.002,209.993,47.766,215.903z"/>
		<path style="fill:#88A142;" d="M72.293,218.065c-1.668,6.455-1.022,12.962,1.41,18.653c4.885-3.8,8.603-9.178,10.271-15.634
			c1.668-6.455,1.022-12.962-1.41-18.653C77.679,206.231,73.961,211.61,72.293,218.065z"/>
		<path style="fill:#88A142;" d="M88.865,228.897c-4.568,4.857-7.132,10.872-7.737,17.031c6.111-0.981,11.958-3.908,16.526-8.765
			c4.568-4.857,7.132-10.872,7.737-17.031C99.28,221.113,93.433,224.04,88.865,228.897z"/>
		<path style="fill:#88A142;" d="M98.052,245.859c-2.808,6.047-3.349,12.563-1.986,18.6c5.492-2.854,10.12-7.472,12.928-13.519
			c2.808-6.047,3.349-12.564,1.986-18.6C105.489,235.193,100.86,239.811,98.052,245.859z"/>
		<path style="fill:#88A142;" d="M110.652,255.677c-4.692,4.737-7.411,10.684-8.174,16.825c6.134-0.823,12.054-3.598,16.746-8.335
			c4.692-4.737,7.41-10.684,8.174-16.825C121.265,248.165,115.344,250.94,110.652,255.677z"/>
		<path style="fill:#88A142;" d="M119.996,271.074c-3.427,5.72-4.649,12.143-3.926,18.29c5.761-2.262,10.848-6.369,14.275-12.089
			c3.427-5.72,4.648-12.143,3.926-18.29C128.51,261.247,123.423,265.354,119.996,271.074z"/>
		<path style="fill:#88A142;" d="M128.699,287.698c-2.607,4.351-3.536,9.237-2.986,13.912c4.382-1.721,8.252-4.845,10.859-9.195
			c2.607-4.351,3.536-9.237,2.986-13.912C135.176,280.223,131.306,283.347,128.699,287.698z"/>
		<path style="fill:#88A142;" d="M59.328,236.539c6.662-0.26,12.884,1.752,17.929,5.337c-4.75,3.968-10.795,6.459-17.458,6.719
			c-6.662,0.26-12.884-1.752-17.929-5.337C46.62,239.29,52.665,236.799,59.328,236.539z"/>
		<path style="fill:#88A142;" d="M66.396,255.032c5.715-3.433,12.137-4.663,18.285-3.947c-2.255,5.763-6.356,10.856-12.072,14.289
			c-5.716,3.433-12.138,4.663-18.285,3.947C56.579,263.558,60.68,258.465,66.396,255.032z"/>
		<path style="fill:#88A142;" d="M81.022,267.61c6.506-1.461,12.988-0.607,18.598,2.007c-3.954,4.761-9.45,8.304-15.955,9.765
			s-12.988,0.607-18.598-2.007C69.021,272.614,74.516,269.071,81.022,267.61z"/>
		<path style="fill:#88A142;" d="M87.943,282.006c5.625-3.58,12.013-4.974,18.177-4.417c-2.106,5.82-6.074,11.016-11.699,14.596
			c-5.625,3.58-12.013,4.974-18.177,4.417C78.349,290.783,82.317,285.586,87.943,282.006z"/>
		<path style="fill:#88A142;" d="M101.006,294.405c6.316-2.135,12.853-1.966,18.706,0.045c-3.433,5.15-8.526,9.25-14.843,11.385
			c-6.317,2.135-12.853,1.966-18.706-0.045C89.596,300.64,94.689,296.54,101.006,294.405z"/>
		<path style="fill:#88A142;" d="M115.404,306.438c4.805-1.624,9.777-1.495,14.229,0.034c-2.611,3.917-6.486,7.036-11.29,8.66
			c-4.805,1.624-9.777,1.495-14.229-0.034C106.725,311.18,110.599,308.062,115.404,306.438z"/>
	</g>
	<g>
		<path style="fill:#A3BF54;" d="M86,210.818c24.691,32.233,53.912,55.965,80.769,67.937c-4.565-29.048-19.869-63.441-44.56-95.674
			c-24.691-32.233-53.912-55.965-80.769-67.937C46.004,144.192,61.309,178.585,86,210.818z"/>
		<path style="fill:#819642;" d="M103.427,197.468c24.691,32.233,47.214,61.096,63.343,81.286
			c-15.294-20.829-37.296-50.092-61.987-82.324c-24.691-32.233-47.214-61.096-63.343-81.286
			C56.733,135.973,78.736,165.236,103.427,197.468z"/>
	</g>
	<g>
		<path style="fill:#A3BF54;" d="M388.854,207.589c-16.23,22.561-24.161,47.723-23.752,69.802
			c21.063-6.632,42.398-22.153,58.627-44.713s24.161-47.723,23.752-69.801C426.418,169.508,405.083,185.029,388.854,207.589z"/>
		<path style="fill:#819642;" d="M405.639,219.664c-16.229,22.56-30.612,43.083-40.537,57.727
			c10.729-14.066,25.613-34.227,41.842-56.788c16.229-22.56,30.612-43.083,40.537-57.727
			C436.752,176.942,421.868,197.103,405.639,219.664z"/>
	</g>
	<g>
		<g>
			<g>
				<path style="fill:#EDEDED;" d="M305.057,115.389H98.443c-4.454,0-8.065,3.611-8.065,8.065v159.846
					c0,4.454,3.611,8.066,8.065,8.066h206.613c4.454,0,8.066-3.611,8.066-8.066V123.454
					C313.122,119,309.511,115.389,305.057,115.389z"/>
				<path style="fill:#E26573;" d="M313.122,147.109v-23.655c0-4.454-3.611-8.066-8.065-8.066H98.443
					c-4.455,0-8.066,3.611-8.066,8.066v23.655H313.122z"/>
				<g style="opacity:0.15;">
					<path d="M289.595,137.879c5.195,0,9.422-4.226,9.422-9.421v-13.069h-18.842v13.069
						C280.175,133.652,284.401,137.879,289.595,137.879z"/>
					<path d="M264.287,137.879c5.195,0,9.422-4.226,9.422-9.421v-13.069h-18.842v13.069
						C254.866,133.652,259.093,137.879,264.287,137.879z"/>
					<path d="M112.438,137.879c5.194,0,9.421-4.226,9.421-9.421v-13.069h-18.842v13.069
						C103.017,133.652,107.243,137.879,112.438,137.879z"/>
					<path d="M238.979,137.879c5.195,0,9.421-4.226,9.421-9.421v-13.069h-18.841v13.069
						C229.558,133.652,233.784,137.879,238.979,137.879z"/>
					<path d="M163.054,137.879c5.195,0,9.421-4.226,9.421-9.421v-13.069h-18.842v13.069
						C153.633,133.652,157.86,137.879,163.054,137.879z"/>
					<path d="M137.746,137.879c5.195,0,9.421-4.226,9.421-9.421v-13.069h-18.842v13.069
						C128.325,133.652,132.551,137.879,137.746,137.879z"/>
					<path d="M188.362,137.879c5.195,0,9.421-4.226,9.421-9.421v-13.069h-18.842v13.069
						C178.941,133.652,183.168,137.879,188.362,137.879z"/>
					<path d="M213.671,137.879c5.195,0,9.421-4.226,9.421-9.421v-13.069H204.25v13.069
						C204.25,133.652,208.476,137.879,213.671,137.879z"/>
				</g>
			</g>
			<g>
				<path style="fill:#EDEDED;" d="M112.438,132.918L112.438,132.918c-2.911,0-5.292-2.382-5.292-5.292v-19.568
					c0-2.911,2.382-5.292,5.292-5.292l0,0c2.911,0,5.292,2.381,5.292,5.292v19.568C117.73,130.536,115.349,132.918,112.438,132.918z
					"/>
				<path style="fill:#EDEDED;" d="M137.746,132.918L137.746,132.918c-2.911,0-5.292-2.382-5.292-5.292v-19.568
					c0-2.911,2.382-5.292,5.292-5.292l0,0c2.911,0,5.292,2.381,5.292,5.292v19.568C143.038,130.536,140.657,132.918,137.746,132.918
					z"/>
				<path style="fill:#EDEDED;" d="M163.054,132.918L163.054,132.918c-2.911,0-5.292-2.382-5.292-5.292v-19.568
					c0-2.911,2.382-5.292,5.292-5.292l0,0c2.911,0,5.292,2.381,5.292,5.292v19.568C168.346,130.536,165.965,132.918,163.054,132.918
					z"/>
				<path style="fill:#EDEDED;" d="M188.362,132.918L188.362,132.918c-2.911,0-5.292-2.382-5.292-5.292v-19.568
					c0-2.911,2.382-5.292,5.292-5.292l0,0c2.911,0,5.292,2.381,5.292,5.292v19.568C193.655,130.536,191.273,132.918,188.362,132.918
					z"/>
				<path style="fill:#EDEDED;" d="M213.671,132.918L213.671,132.918c-2.911,0-5.292-2.382-5.292-5.292v-19.568
					c0-2.911,2.382-5.292,5.292-5.292h0c2.911,0,5.292,2.381,5.292,5.292v19.568C218.963,130.536,216.581,132.918,213.671,132.918z"
					/>
				<path style="fill:#EDEDED;" d="M238.979,132.918L238.979,132.918c-2.911,0-5.292-2.382-5.292-5.292v-19.568
					c0-2.911,2.382-5.292,5.292-5.292l0,0c2.911,0,5.292,2.381,5.292,5.292v19.568C244.271,130.536,241.89,132.918,238.979,132.918z
					"/>
				<path style="fill:#EDEDED;" d="M264.287,132.918L264.287,132.918c-2.911,0-5.292-2.382-5.292-5.292v-19.568
					c0-2.911,2.381-5.292,5.292-5.292l0,0c2.911,0,5.292,2.381,5.292,5.292v19.568C269.579,130.536,267.198,132.918,264.287,132.918
					z"/>
				<path style="fill:#EDEDED;" d="M289.595,132.918L289.595,132.918c-2.911,0-5.292-2.382-5.292-5.292v-19.568
					c0-2.911,2.382-5.292,5.292-5.292l0,0c2.911,0,5.292,2.381,5.292,5.292v19.568C294.888,130.536,292.506,132.918,289.595,132.918
					z"/>
			</g>
			<g>
				<path style="fill:#D9D9D9;" d="M121.436,177.929h-20.944c-0.949,0-1.718-0.769-1.718-1.718V156.32
					c0-0.949,0.769-1.718,1.718-1.718h20.944c0.949,0,1.718,0.769,1.718,1.718v19.891
					C123.154,177.16,122.385,177.929,121.436,177.929z"/>
				<path style="fill:#D9D9D9;" d="M151.698,177.929h-20.944c-0.949,0-1.718-0.769-1.718-1.718V156.32
					c0-0.949,0.769-1.718,1.718-1.718h20.944c0.949,0,1.718,0.769,1.718,1.718v19.891
					C153.416,177.16,152.647,177.929,151.698,177.929z"/>
				<path style="fill:#D9D9D9;" d="M181.96,177.929h-20.944c-0.949,0-1.718-0.769-1.718-1.718V156.32
					c0-0.949,0.769-1.718,1.718-1.718h20.944c0.949,0,1.718,0.769,1.718,1.718v19.891
					C183.678,177.16,182.909,177.929,181.96,177.929z"/>
				<path style="fill:#D9D9D9;" d="M212.222,177.929h-20.944c-0.949,0-1.718-0.769-1.718-1.718V156.32
					c0-0.949,0.769-1.718,1.718-1.718h20.944c0.949,0,1.718,0.769,1.718,1.718v19.891C213.94,177.16,213.17,177.929,212.222,177.929
					z"/>
				<path style="fill:#D9D9D9;" d="M242.484,177.929H221.54c-0.949,0-1.718-0.769-1.718-1.718V156.32
					c0-0.949,0.769-1.718,1.718-1.718h20.944c0.949,0,1.718,0.769,1.718,1.718v19.891
					C244.201,177.16,243.432,177.929,242.484,177.929z"/>
				<path style="fill:#D9D9D9;" d="M272.746,177.929h-20.944c-0.949,0-1.718-0.769-1.718-1.718V156.32
					c0-0.949,0.769-1.718,1.718-1.718h20.944c0.949,0,1.718,0.769,1.718,1.718v19.891
					C274.463,177.16,273.694,177.929,272.746,177.929z"/>
				<path style="fill:#E26573;" d="M303.007,177.929h-20.944c-0.949,0-1.718-0.769-1.718-1.718V156.32
					c0-0.949,0.769-1.718,1.718-1.718h20.944c0.949,0,1.718,0.769,1.718,1.718v19.891
					C304.725,177.16,303.956,177.929,303.007,177.929z"/>
			</g>
			<g>
				<path style="fill:#BFBFBF;" d="M121.436,212.181h-20.944c-0.949,0-1.718-0.769-1.718-1.718v-19.891
					c0-0.949,0.769-1.718,1.718-1.718h20.944c0.949,0,1.718,0.769,1.718,1.718v19.891
					C123.154,211.412,122.385,212.181,121.436,212.181z"/>
				<path style="fill:#BFBFBF;" d="M151.698,212.181h-20.944c-0.949,0-1.718-0.769-1.718-1.718v-19.891
					c0-0.949,0.769-1.718,1.718-1.718h20.944c0.949,0,1.718,0.769,1.718,1.718v19.891
					C153.416,211.412,152.647,212.181,151.698,212.181z"/>
				<path style="fill:#BFBFBF;" d="M181.96,212.181h-20.944c-0.949,0-1.718-0.769-1.718-1.718v-19.891
					c0-0.949,0.769-1.718,1.718-1.718h20.944c0.949,0,1.718,0.769,1.718,1.718v19.891
					C183.678,211.412,182.909,212.181,181.96,212.181z"/>
				<path style="fill:#BFBFBF;" d="M212.222,212.181h-20.944c-0.949,0-1.718-0.769-1.718-1.718v-19.891
					c0-0.949,0.769-1.718,1.718-1.718h20.944c0.949,0,1.718,0.769,1.718,1.718v19.891
					C213.94,211.412,213.17,212.181,212.222,212.181z"/>
				<path style="fill:#BFBFBF;" d="M242.484,212.181H221.54c-0.949,0-1.718-0.769-1.718-1.718v-19.891
					c0-0.949,0.769-1.718,1.718-1.718h20.944c0.949,0,1.718,0.769,1.718,1.718v19.891
					C244.201,211.412,243.432,212.181,242.484,212.181z"/>
				<path style="fill:#BFBFBF;" d="M272.746,212.181h-20.944c-0.949,0-1.718-0.769-1.718-1.718v-19.891
					c0-0.949,0.769-1.718,1.718-1.718h20.944c0.949,0,1.718,0.769,1.718,1.718v19.891
					C274.463,211.412,273.694,212.181,272.746,212.181z"/>
				<path style="fill:#E26573;" d="M303.007,212.181h-20.944c-0.949,0-1.718-0.769-1.718-1.718v-19.891
					c0-0.949,0.769-1.718,1.718-1.718h20.944c0.949,0,1.718,0.769,1.718,1.718v19.891
					C304.725,211.412,303.956,212.181,303.007,212.181z"/>
			</g>
			<g>
				<path style="fill:#D9D9D9;" d="M121.436,246.433h-20.944c-0.949,0-1.718-0.769-1.718-1.718v-19.891
					c0-0.949,0.769-1.718,1.718-1.718h20.944c0.949,0,1.718,0.769,1.718,1.718v19.891
					C123.154,245.664,122.385,246.433,121.436,246.433z"/>
				<path style="fill:#D9D9D9;" d="M151.698,246.433h-20.944c-0.949,0-1.718-0.769-1.718-1.718v-19.891
					c0-0.949,0.769-1.718,1.718-1.718h20.944c0.949,0,1.718,0.769,1.718,1.718v19.891
					C153.416,245.664,152.647,246.433,151.698,246.433z"/>
				<path style="fill:#D9D9D9;" d="M181.96,246.433h-20.944c-0.949,0-1.718-0.769-1.718-1.718v-19.891
					c0-0.949,0.769-1.718,1.718-1.718h20.944c0.949,0,1.718,0.769,1.718,1.718v19.891
					C183.678,245.664,182.909,246.433,181.96,246.433z"/>
				<path style="fill:#D9D9D9;" d="M212.222,246.433h-20.944c-0.949,0-1.718-0.769-1.718-1.718v-19.891
					c0-0.949,0.769-1.718,1.718-1.718h20.944c0.949,0,1.718,0.769,1.718,1.718v19.891
					C213.94,245.664,213.17,246.433,212.222,246.433z"/>
				<path style="fill:#D9D9D9;" d="M242.484,246.433H221.54c-0.949,0-1.718-0.769-1.718-1.718v-19.891
					c0-0.949,0.769-1.718,1.718-1.718h20.944c0.949,0,1.718,0.769,1.718,1.718v19.891
					C244.201,245.664,243.432,246.433,242.484,246.433z"/>
				<path style="fill:#D9D9D9;" d="M272.746,246.433h-20.944c-0.949,0-1.718-0.769-1.718-1.718v-19.891
					c0-0.949,0.769-1.718,1.718-1.718h20.944c0.949,0,1.718,0.769,1.718,1.718v19.891
					C274.463,245.664,273.694,246.433,272.746,246.433z"/>
				<path style="fill:#E26573;" d="M303.007,246.433h-20.944c-0.949,0-1.718-0.769-1.718-1.718v-19.891
					c0-0.949,0.769-1.718,1.718-1.718h20.944c0.949,0,1.718,0.769,1.718,1.718v19.891
					C304.725,245.664,303.956,246.433,303.007,246.433z"/>
			</g>
			<g>
				<path style="fill:#BFBFBF;" d="M121.436,280.685h-20.944c-0.949,0-1.718-0.769-1.718-1.718v-19.891
					c0-0.949,0.769-1.718,1.718-1.718h20.944c0.949,0,1.718,0.769,1.718,1.718v19.891
					C123.154,279.915,122.385,280.685,121.436,280.685z"/>
				<path style="fill:#BFBFBF;" d="M151.698,280.685h-20.944c-0.949,0-1.718-0.769-1.718-1.718v-19.891
					c0-0.949,0.769-1.718,1.718-1.718h20.944c0.949,0,1.718,0.769,1.718,1.718v19.891
					C153.416,279.915,152.647,280.685,151.698,280.685z"/>
				<path style="fill:#BFBFBF;" d="M181.96,280.685h-20.944c-0.949,0-1.718-0.769-1.718-1.718v-19.891
					c0-0.949,0.769-1.718,1.718-1.718h20.944c0.949,0,1.718,0.769,1.718,1.718v19.891
					C183.678,279.915,182.909,280.685,181.96,280.685z"/>
				<path style="fill:#BFBFBF;" d="M212.222,280.685h-20.944c-0.949,0-1.718-0.769-1.718-1.718v-19.891
					c0-0.949,0.769-1.718,1.718-1.718h20.944c0.949,0,1.718,0.769,1.718,1.718v19.891
					C213.94,279.915,213.17,280.685,212.222,280.685z"/>
				<path style="fill:#BFBFBF;" d="M242.484,280.685H221.54c-0.949,0-1.718-0.769-1.718-1.718v-19.891
					c0-0.949,0.769-1.718,1.718-1.718h20.944c0.949,0,1.718,0.769,1.718,1.718v19.891
					C244.201,279.915,243.432,280.685,242.484,280.685z"/>
				<path style="fill:#BFBFBF;" d="M272.746,280.685h-20.944c-0.949,0-1.718-0.769-1.718-1.718v-19.891
					c0-0.949,0.769-1.718,1.718-1.718h20.944c0.949,0,1.718,0.769,1.718,1.718v19.891
					C274.463,279.915,273.694,280.685,272.746,280.685z"/>
				<path style="fill:#E26573;" d="M303.007,280.685h-20.944c-0.949,0-1.718-0.769-1.718-1.718v-19.891
					c0-0.949,0.769-1.718,1.718-1.718h20.944c0.949,0,1.718,0.769,1.718,1.718v19.891
					C304.725,279.915,303.956,280.685,303.007,280.685z"/>
			</g>
		</g>
		<g>
			<defs>
				<path id="SVGID_1_" d="M305.057,115.389H98.443c-4.454,0-8.065,3.611-8.065,8.065v159.846c0,4.454,3.611,8.066,8.065,8.066
					h206.613c4.454,0,8.066-3.611,8.066-8.066V123.454C313.122,119,309.511,115.389,305.057,115.389z"/>
			</defs>
			<clipPath id="SVGID_00000046308875664144886600000010477706509660555424_">
				<use xlink:href="#SVGID_1_"  style="overflow:visible;"/>
			</clipPath>
			<path style="opacity:0.1;clip-path:url(#SVGID_00000046308875664144886600000010477706509660555424_);" d="M359.559,154.893
				c-55.849,0-101.123,45.275-101.123,101.123c0,2.844,0.123,5.658,0.354,8.443H105.688c-7.389,0-13.435,6.046-13.435,13.435V423.82
				c0,7.389,6.046,13.435,13.435,13.435h223.351c7.389,0,13.435-6.046,13.435-13.435v-68.124c5.555,0.945,11.261,1.444,17.085,1.444
				c55.849,0,101.123-45.275,101.123-101.124C460.683,200.168,415.408,154.893,359.559,154.893z"/>
		</g>
	</g>
	<g>
		<g>
			<path style="fill:#FFB81F;" d="M67.812,314.245h92.196c2.004,0,3.629,1.625,3.629,3.629v13.042c0,2.004-1.625,3.629-3.629,3.629
				H67.812c-2.004,0-3.629-1.625-3.629-3.629v-13.042C64.184,315.87,65.808,314.245,67.812,314.245z"/>
			<g>
				<rect x="83.431" y="314.245" style="opacity:0.05;" width="5.258" height="20.299"/>
				<rect x="69.497" y="314.245" style="opacity:0.05;" width="5.258" height="20.299"/>
				<rect x="111.299" y="314.245" style="opacity:0.05;" width="5.258" height="20.299"/>
				<rect x="97.365" y="314.245" style="opacity:0.05;" width="5.258" height="20.299"/>
				<rect x="153.1" y="314.245" style="opacity:0.05;" width="5.258" height="20.299"/>
				<rect x="125.232" y="314.245" style="opacity:0.05;" width="5.258" height="20.299"/>
				<rect x="139.166" y="314.245" style="opacity:0.05;" width="5.258" height="20.299"/>
			</g>
		</g>
		<path style="opacity:0.15;" d="M66.829,314.397v14.255c0,0.988,0.801,1.788,1.788,1.788h95.02v0.475
			c0,2.004-1.625,3.629-3.629,3.629H67.812c-2.004,0-3.629-1.625-3.629-3.629v-13.042C64.184,316.212,65.306,314.827,66.829,314.397
			z"/>
	</g>
	<g>
		<g>
			<path style="fill:#FFD747;" d="M74.038,293.683h92.196c2.004,0,3.629,1.625,3.629,3.629v13.042c0,2.004-1.625,3.629-3.629,3.629
				H74.038c-2.004,0-3.629-1.625-3.629-3.629v-13.042C70.409,295.308,72.034,293.683,74.038,293.683z"/>
			<g>
				<rect x="89.657" y="293.683" style="opacity:0.05;" width="5.258" height="20.299"/>
				<rect x="75.723" y="293.683" style="opacity:0.05;" width="5.258" height="20.299"/>
				<rect x="117.524" y="293.683" style="opacity:0.05;" width="5.258" height="20.299"/>
				<rect x="103.59" y="293.683" style="opacity:0.05;" width="5.258" height="20.299"/>
				<rect x="159.325" y="293.683" style="opacity:0.05;" width="5.258" height="20.299"/>
				<rect x="131.458" y="293.683" style="opacity:0.05;" width="5.258" height="20.299"/>
				<rect x="145.391" y="293.683" style="opacity:0.05;" width="5.258" height="20.299"/>
			</g>
		</g>
		<path style="opacity:0.15;" d="M73.055,293.835v14.255c0,0.987,0.801,1.788,1.788,1.788h95.02v0.475
			c0,2.004-1.625,3.629-3.629,3.629H74.038c-2.004,0-3.629-1.625-3.629-3.629v-13.042C70.409,295.651,71.532,294.266,73.055,293.835
			z"/>
	</g>
	<g>
		<g>
			<g>
				<rect x="353.453" y="140.454" style="fill:#8F8F8F;" width="12.213" height="33.074"/>
				<path style="fill:#E26573;" d="M365.653,143.987h-12.188c-1.301,0-2.365-1.064-2.365-2.365v-7.172
					c0-1.301,1.064-2.365,2.365-2.365h12.188c1.301,0,2.365,1.064,2.365,2.365v7.172
					C368.018,142.923,366.954,143.987,365.653,143.987z"/>
				<path style="fill:#BFBFBF;" d="M362.067,155.889h-5.016c-3.273,0-5.951-2.678-5.951-5.951l0,0c0-3.273,2.678-5.951,5.951-5.951
					h5.016c3.273,0,5.951,2.678,5.951,5.951l0,0C368.018,153.211,365.34,155.889,362.067,155.889z"/>
				<path style="fill:#D1D1D1;" d="M369.6,151.155h-20.081c-1.611,0-2.928-1.318-2.928-2.928v-6.045
					c0-1.611,1.318-2.928,2.928-2.928H369.6c1.611,0,2.928,1.318,2.928,2.928v6.045C372.528,149.837,371.21,151.155,369.6,151.155z"
					/>
			</g>
			<g>
				
					<rect x="389.696" y="150.581" transform="matrix(0.8888 0.4583 -0.4583 0.8888 120.5916 -162.8017)" style="fill:#8F8F8F;" width="12.213" height="33.073"/>
				<path style="fill:#BFBFBF;" d="M407.178,158.353l-10.833-5.585c-1.156-0.596-1.614-2.03-1.018-3.186l3.286-6.374
					c0.596-1.156,2.03-1.614,3.186-1.018l10.833,5.585c1.156,0.596,1.614,2.03,1.018,3.186l-3.287,6.374
					C409.768,158.49,408.334,158.949,407.178,158.353z"/>
				<path style="fill:#BFBFBF;" d="M398.537,167.288l-4.458-2.299c-2.909-1.5-4.062-5.107-2.562-8.016l0,0
					c1.5-2.909,5.107-4.062,8.016-2.562l4.458,2.299c2.909,1.5,4.062,5.107,2.562,8.016l0,0
					C405.053,167.635,401.446,168.788,398.537,167.288z"/>
				<path style="fill:#D1D1D1;" d="M407.401,166.532l-17.848-9.202c-1.431-0.738-1.999-2.513-1.261-3.945l2.77-5.373
					c0.738-1.431,2.513-1.999,3.945-1.261l17.848,9.202c1.432,0.738,1.999,2.513,1.261,3.945l-2.77,5.373
					C410.608,166.702,408.833,167.27,407.401,166.532z"/>
			</g>
			<g>
				
					<rect x="317.21" y="150.581" transform="matrix(-0.8888 0.4583 -0.4583 -0.8888 687.2686 167.489)" style="fill:#8F8F8F;" width="12.213" height="33.073"/>
				<path style="fill:#BFBFBF;" d="M311.94,158.353l10.833-5.585c1.156-0.596,1.614-2.03,1.018-3.186l-3.287-6.374
					c-0.596-1.156-2.03-1.614-3.186-1.018l-10.833,5.585c-1.156,0.596-1.614,2.03-1.018,3.186l3.286,6.374
					C309.351,158.49,310.784,158.949,311.94,158.353z"/>
				<path style="fill:#BFBFBF;" d="M320.582,167.288l4.458-2.299c2.909-1.5,4.062-5.107,2.562-8.016l0,0
					c-1.5-2.909-5.107-4.062-8.016-2.562l-4.458,2.299c-2.909,1.5-4.062,5.107-2.562,8.016h0
					C314.065,167.635,317.673,168.788,320.582,167.288z"/>
				<path style="fill:#D1D1D1;" d="M311.717,166.532l17.848-9.202c1.432-0.738,1.999-2.513,1.261-3.945l-2.77-5.373
					c-0.738-1.431-2.513-1.999-3.945-1.261l-17.848,9.202c-1.431,0.738-1.999,2.513-1.261,3.945l2.77,5.373
					C308.511,166.702,310.286,167.27,311.717,166.532z"/>
			</g>
			<g>
				
					<ellipse transform="matrix(0.7071 -0.7071 0.7071 0.7071 -75.7187 329.2325)" style="fill:#D4D4D4;" cx="359.559" cy="256.017" rx="91.615" ry="91.615"/>
				
					<ellipse transform="matrix(0.7071 -0.7071 0.7071 0.7071 -75.7187 329.2325)" style="opacity:0.15;" cx="359.559" cy="256.017" rx="84.882" ry="84.882"/>
				
					<ellipse transform="matrix(0.7071 -0.7071 0.7071 0.7071 -75.7187 329.2324)" style="fill:#FFFFFF;" cx="359.559" cy="256.017" rx="80.227" ry="80.227"/>
				<path style="opacity:0.1;" d="M359.559,175.79c-44.308,0-80.227,35.919-80.227,80.227s35.919,80.227,80.227,80.227
					s80.227-35.919,80.227-80.227S403.868,175.79,359.559,175.79z M359.559,330.081c-40.905,0-74.065-33.16-74.065-74.065
					s33.16-74.065,74.065-74.065s74.065,33.16,74.065,74.065S400.464,330.081,359.559,330.081z"/>
			</g>
			<path style="opacity:0.1;" d="M390.442,265.354l-14.372-5.427l0,0l-5.846-2.208c-0.634-4.182-3.656-7.573-7.641-8.734v-5.888
				v-32.825c0-1.595-1.305-2.9-2.9-2.9h-0.246c-1.595,0-2.9,1.305-2.9,2.9v32.825v5.888c-4.491,1.309-7.776,5.449-7.776,10.363
				c0,5.964,4.835,10.799,10.8,10.799c2.795,0,5.334-1.071,7.252-2.814l20.027,7.563c2.635,0.995,5.578-0.335,6.573-2.97
				C394.407,269.292,393.077,266.349,390.442,265.354z"/>
			<g>
				<g>
					<path style="fill:#578BBF;" d="M359.683,257.148h-0.246c-1.595,0-2.9-1.305-2.9-2.9v-47.307c0-1.595,1.305-2.9,2.9-2.9h0.246
						c1.595,0,2.9,1.305,2.9,2.9v47.307C362.583,255.843,361.278,257.148,359.683,257.148z"/>
					<path style="opacity:0.15;" d="M359.559,239.477c-1.034,0-2.042,0.107-3.023,0.289v14.482c0,1.595,1.305,2.9,2.9,2.9h0.246
						c1.595,0,2.9-1.305,2.9-2.9v-14.482C361.601,239.584,360.593,239.477,359.559,239.477z"/>
				</g>
				<g>
					<path style="fill:#578BBF;" d="M358.936,255.577L358.936,255.577c0.995-2.635,3.938-3.964,6.573-2.969l24.933,9.415
						c2.635,0.995,3.965,3.938,2.97,6.573l0,0c-0.995,2.635-3.938,3.965-6.573,2.969l-24.933-9.415
						C359.271,261.155,357.941,258.213,358.936,255.577z"/>
					<path style="opacity:0.15;" d="M376.07,256.596l-10.56-3.988c-2.635-0.995-5.578,0.334-6.573,2.969
						c-0.995,2.635,0.335,5.578,2.97,6.573l10.681,4.033C374.668,263.52,375.944,260.207,376.07,256.596z"/>
				</g>
				<circle style="fill:#69A7E6;" cx="359.559" cy="256.017" r="10.8"/>
			</g>
			<g>
				<g>
					<g>
						<circle style="fill:#88C3FF;" cx="359.559" cy="193.47" r="3.773"/>
						<path style="fill:#88C3FF;" d="M363.332,318.564c0,2.084-1.689,3.773-3.773,3.773c-2.084,0-3.773-1.689-3.773-3.773
							c0-2.084,1.689-3.773,3.773-3.773C361.643,314.791,363.332,316.48,363.332,318.564z"/>
					</g>
					<g>
						<circle style="fill:#88C3FF;" cx="422.106" cy="256.017" r="3.773"/>
						<path style="fill:#88C3FF;" d="M297.012,259.79c-2.084,0-3.773-1.689-3.773-3.773c0-2.084,1.689-3.773,3.773-3.773
							c2.084,0,3.773,1.689,3.773,3.773C300.785,258.1,299.096,259.79,297.012,259.79z"/>
					</g>
				</g>
				<g>
					<g>
						<path style="fill:#88C3FF;" d="M395.366,204.594c-1.086,1.779-3.408,2.34-5.186,1.255c-1.779-1.086-2.34-3.408-1.255-5.186
							c1.086-1.779,3.408-2.34,5.186-1.255C395.889,200.494,396.451,202.816,395.366,204.594z"/>
						<path style="fill:#88C3FF;" d="M330.194,311.371c-1.086,1.779-3.408,2.34-5.186,1.255s-2.34-3.408-1.255-5.186
							s3.408-2.34,5.186-1.255C330.718,307.27,331.279,309.592,330.194,311.371z"/>
					</g>
					<g>
						<path style="fill:#88C3FF;" d="M410.982,291.823c-1.779-1.086-2.34-3.408-1.255-5.186s3.408-2.34,5.186-1.255
							s2.34,3.408,1.255,5.186S412.76,292.909,410.982,291.823z"/>
						<path style="fill:#88C3FF;" d="M304.206,226.651c-1.779-1.086-2.34-3.408-1.255-5.186c1.086-1.779,3.407-2.34,5.186-1.255
							s2.341,3.407,1.255,5.186C308.306,227.175,305.984,227.737,304.206,226.651z"/>
					</g>
				</g>
				<g>
					<g>
						<path style="fill:#88C3FF;" d="M323.753,204.594c1.086,1.779,3.407,2.34,5.186,1.255c1.779-1.086,2.34-3.408,1.255-5.186
							c-1.086-1.779-3.408-2.34-5.186-1.255C323.229,200.494,322.667,202.816,323.753,204.594z"/>
						<path style="fill:#88C3FF;" d="M388.925,311.371c1.086,1.779,3.407,2.34,5.186,1.255c1.779-1.086,2.34-3.408,1.255-5.186
							s-3.408-2.34-5.186-1.255C388.401,307.27,387.839,309.592,388.925,311.371z"/>
					</g>
					<g>
						<path style="fill:#88C3FF;" d="M308.137,291.823c1.779-1.086,2.341-3.408,1.255-5.186s-3.408-2.34-5.186-1.255
							s-2.34,3.408-1.255,5.186S306.358,292.909,308.137,291.823z"/>
						<path style="fill:#88C3FF;" d="M414.913,226.651c1.779-1.086,2.34-3.408,1.255-5.186c-1.086-1.779-3.407-2.34-5.186-1.255
							s-2.34,3.407-1.255,5.186C410.813,227.175,413.134,227.737,414.913,226.651z"/>
					</g>
				</g>
			</g>
		</g>
		<path style="opacity:0.1;" d="M332.556,266.9h-63.965c4.853,40.996,36.772,73.695,77.394,79.729v-66.3
			C345.985,272.943,339.942,266.9,332.556,266.9z"/>
	</g>
	<g>
		<path style="fill:#88A142;" d="M336.958,323.376c-9.119,5.41-17.53,11.367-25.137,17.731l6.07,7.238l-12.843-1.27
			c-9.326,8.663-17.219,17.945-23.442,27.526c14.11,3.216,29.805,4.228,46.296,2.884l5.151-7.938l1.701,7.249
			c12.355-1.477,25.087-4.258,37.877-8.407l1.745-12.958l8.488,9.346c1.405-0.536,2.81-1.083,4.214-1.653
			c8.902-3.611,17.35-7.731,25.293-12.262l-0.562-12.544l9.382,7.212c8.646-5.535,16.59-11.567,23.741-17.964l-5.566-6.637
			l11.435,1.131c7.811-7.691,14.511-15.821,19.939-24.178c-11.662-2.658-24.408-3.807-37.789-3.37l-4.713,7.262l-1.629-6.939
			c-12.227,0.846-24.913,2.998-37.737,6.518l-1.957,14.537l-9.897-10.899c-3.916,1.328-7.836,2.778-11.749,4.365
			c-5.692,2.309-11.199,4.827-16.508,7.525L336.958,323.376z"/>
		<path style="fill:#6E8235;" d="M375.766,335.236c-37.261,15.114-70.701,29.128-94.159,39.364
			c23.961-8.997,57.714-22.238,94.975-37.352c37.261-15.114,70.701-29.128,94.159-39.364
			C446.78,306.882,413.027,320.123,375.766,335.236z"/>
	</g>
	<g>
		<path style="fill:#88A142;" d="M102.257,376.169c6.919,3.179,13.978,5.606,21.046,7.294l2.981-7.765l3.523,9.11
			c9.268,1.62,18.476,1.974,27.32,1.073c-2.596-10.957-7.279-21.809-13.884-31.956l-7.326,0.748l4.49-4.897
			c-5.278-7.357-11.598-14.283-18.896-20.534l-9.669,5.606l3.626-10.454c-0.858-0.645-1.723-1.284-2.604-1.91
			c-5.585-3.974-11.372-7.383-17.271-10.247l-8.587,6.908l1.825-9.93c-6.844-2.802-13.796-4.884-20.729-6.254l-2.733,7.12
			l-3.136-8.112c-8.067-1.13-16.059-1.299-23.773-0.514c2.145,9.056,5.72,18.039,10.623,26.613l6.702-0.685l-4.298,4.688
			c4.792,7.602,10.657,14.825,17.526,21.426l10.847-6.289l-4.229,12.191c2.275,1.884,4.636,3.707,7.092,5.454
			c3.571,2.541,7.225,4.851,10.938,6.937L102.257,376.169z"/>
		<path style="fill:#6E8235;" d="M97.228,344.46c23.379,16.633,44.675,31.326,59.898,41.421
			c-14.529-11.072-35.391-26.374-58.77-43.007c-23.379-16.633-44.675-31.326-59.899-41.421
			C52.986,312.525,73.849,327.827,97.228,344.46z"/>
	</g>
	<g>
		<path style="fill:#A3BF54;" d="M354.733,355.517c-39.325,10.107-72.6,27.709-94.128,47.74
			c28.518,7.168,66.157,6.543,105.482-3.564s72.6-27.709,94.128-47.74C431.697,344.786,394.058,345.41,354.733,355.517z"/>
		<path style="fill:#819642;" d="M360.198,376.778c-39.325,10.107-74.701,19.538-99.592,26.479
			c25.153-5.922,60.692-14.718,100.017-24.825c39.325-10.107,74.701-19.538,99.592-26.478
			C435.062,357.876,399.523,366.671,360.198,376.778z"/>
	</g>
	<g>
		<path style="fill:#A3BF54;" d="M85.693,390.461c29.167,11.177,58.204,14.11,81.149,9.777
			c-14.173-18.557-37.734-35.78-66.901-46.957c-29.167-11.177-58.204-14.11-81.149-9.777
			C32.965,362.062,56.526,379.284,85.693,390.461z"/>
		<path style="fill:#819642;" d="M92.55,372.567c29.167,11.177,55.568,20.987,74.292,27.671
			c-18.395-7.54-44.591-17.886-73.758-29.063c-29.167-11.177-55.568-20.987-74.292-27.671
			C37.187,351.045,63.383,361.39,92.55,372.567z"/>
	</g>
	<g>
		<path style="fill:#374693;" d="M323.046,428.665H111.681c-6.812,0-12.386-5.574-12.386-12.386V285.435
			c0-6.812,5.574-12.386,12.386-12.386h211.365c6.812,0,12.386,5.574,12.386,12.386v130.843
			C335.432,423.091,329.859,428.665,323.046,428.665z"/>
		<rect x="99.295" y="385.077" style="fill:#8493E3;" width="236.137" height="23.845"/>
		<g style="opacity:0.1;">
			<polygon style="fill:#FFFFFF;" points="182.055,387.585 169.331,387.585 150.504,406.413 163.228,406.413 			"/>
			<polygon style="fill:#FFFFFF;" points="106.585,387.585 99.295,394.876 99.295,406.413 100.482,406.413 119.309,387.585 			"/>
			<polygon style="fill:#FFFFFF;" points="202.97,387.585 190.246,387.585 171.419,406.413 184.143,406.413 			"/>
			<polygon style="fill:#FFFFFF;" points="161.14,387.585 148.416,387.585 129.589,406.413 142.312,406.413 			"/>
			<polygon style="fill:#FFFFFF;" points="140.225,387.585 127.501,387.585 108.673,406.413 121.397,406.413 			"/>
			<polygon style="fill:#FFFFFF;" points="223.885,387.585 211.161,387.585 192.334,406.413 205.058,406.413 			"/>
			<polygon style="fill:#FFFFFF;" points="328.461,387.585 315.737,387.585 296.91,406.413 309.634,406.413 			"/>
			<polygon style="fill:#FFFFFF;" points="307.546,387.585 294.822,387.585 275.995,406.413 288.719,406.413 			"/>
			<polygon style="fill:#FFFFFF;" points="335.432,388.806 317.825,406.413 330.549,406.413 335.432,401.53 			"/>
			<polygon style="fill:#FFFFFF;" points="265.716,387.585 252.992,387.585 234.165,406.413 246.888,406.413 			"/>
			<polygon style="fill:#FFFFFF;" points="286.631,387.585 273.907,387.585 255.08,406.413 267.804,406.413 			"/>
			<polygon style="fill:#FFFFFF;" points="244.8,387.585 232.077,387.585 213.249,406.413 225.973,406.413 			"/>
		</g>
		<g>
			<path style="fill:#FFCE1F;" d="M149.077,358.701l-22.844,0c-3.122,0-5.676-2.554-5.676-5.676v-22.844
				c0-3.121,2.554-5.675,5.676-5.676l22.844,0c3.122,0,5.676,2.554,5.676,5.676v22.844
				C154.752,356.147,152.198,358.701,149.077,358.701z"/>
			<path style="fill:none;stroke:#D99D1A;stroke-miterlimit:10;" d="M148.749,355.327l-22.188,0c-1.446,0-2.63-1.183-2.63-2.63
				v-22.189c0-1.446,1.183-2.63,2.63-2.63l22.188,0c1.446,0,2.63,1.183,2.63,2.63v22.189
				C151.379,354.144,150.195,355.327,148.749,355.327z"/>
			<path style="fill:none;stroke:#D99D1A;stroke-miterlimit:10;" d="M141.204,349.664l-7.099,0c-1.251,0-2.274-1.023-2.274-2.274
				v-11.573c0-1.251,1.023-2.274,2.274-2.275h7.099c1.251,0,2.274,1.023,2.274,2.274v11.573
				C143.479,348.64,142.455,349.664,141.204,349.664z"/>
			<g>
				<line style="fill:none;stroke:#D99D1A;stroke-miterlimit:10;" x1="143.479" y1="341.603" x2="151.379" y2="341.603"/>
				<line style="fill:none;stroke:#D99D1A;stroke-miterlimit:10;" x1="143.479" y1="337.519" x2="151.379" y2="337.519"/>
				<line style="fill:none;stroke:#D99D1A;stroke-miterlimit:10;" x1="143.479" y1="345.686" x2="151.379" y2="345.686"/>
			</g>
			<g>
				<line style="fill:none;stroke:#D99D1A;stroke-miterlimit:10;" x1="123.931" y1="341.603" x2="131.831" y2="341.603"/>
				<line style="fill:none;stroke:#D99D1A;stroke-miterlimit:10;" x1="123.931" y1="337.52" x2="131.831" y2="337.519"/>
				<line style="fill:none;stroke:#D99D1A;stroke-miterlimit:10;" x1="123.931" y1="345.687" x2="131.831" y2="345.687"/>
			</g>
		</g>
		<g>
			<path style="fill:#8493E3;" d="M165.66,341.6c0,2.087-1.095,3.915-2.739,4.953l1.892,3.043c2.66-1.671,4.433-4.622,4.433-7.995
				c0-3.385-1.786-6.346-4.462-8.013l-1.892,3.043C164.552,337.664,165.66,339.501,165.66,341.6z"/>
			<path style="fill:#8493E3;" d="M170.669,327.337l-2.078,3.341c3.647,2.273,6.082,6.308,6.082,10.922
				c0,4.602-2.422,8.628-6.053,10.904l2.078,3.341c4.747-2.972,7.914-8.232,7.914-14.246
				C178.612,335.575,175.432,330.305,170.669,327.337z"/>
			<path style="fill:#8493E3;" d="M188.003,341.6c0-8.675-4.567-16.281-11.424-20.554l-2.135,3.433
				c5.712,3.56,9.516,9.895,9.516,17.121c0,7.214-3.791,13.54-9.488,17.103l2.135,3.433
				C183.449,357.859,188.003,350.263,188.003,341.6z"/>
		</g>
		<g>
			<path style="fill:#4F5FB3;" d="M167.812,298.334h-46.775c-1.055,0-1.919-0.863-1.919-1.918v-8.239
				c0-1.055,0.863-1.919,1.919-1.919h46.775c1.055,0,1.918,0.863,1.918,1.919v8.239
				C169.731,297.471,168.868,298.334,167.812,298.334z"/>
			<path style="fill:#7081D4;" d="M209.314,298.334h-26.477c-0.898,0-1.633-0.735-1.633-1.633v-8.81
				c0-0.898,0.735-1.633,1.633-1.633h26.477c0.898,0,1.633,0.735,1.633,1.633v8.81C210.948,297.599,210.213,298.334,209.314,298.334
				z"/>
			<path style="fill:#4F5FB3;" d="M272.473,298.334h-46.775c-1.055,0-1.919-0.863-1.919-1.918v-8.239
				c0-1.055,0.863-1.919,1.919-1.919h46.775c1.055,0,1.919,0.863,1.919,1.919v8.239
				C274.391,297.471,273.528,298.334,272.473,298.334z"/>
			<path style="fill:#7081D4;" d="M313.975,298.334h-26.478c-0.898,0-1.633-0.735-1.633-1.633v-8.81
				c0-0.898,0.735-1.633,1.633-1.633h26.478c0.898,0,1.633,0.735,1.633,1.633v8.81C315.608,297.599,314.873,298.334,313.975,298.334
				z"/>
		</g>
		<path style="opacity:0.15;" d="M323.046,273.049h-0.428c3.964,1.893,6.726,5.933,6.726,10.598v126.162
			c0,6.461-5.286,11.747-11.747,11.747H117.13c-6.461,0-11.747-5.286-11.747-11.747V283.648c0-4.665,2.762-8.705,6.726-10.598
			h-0.428c-6.812,0-12.386,5.574-12.386,12.386v130.843c0,6.812,5.574,12.386,12.386,12.386h211.365
			c6.812,0,12.386-5.574,12.386-12.386V285.435C335.432,278.623,329.859,273.049,323.046,273.049z"/>
	</g>
	<g>
		<g>
			<g>
				<path style="fill:#FFD747;" d="M64.725,417.56h92.196c2.004,0,3.628,1.625,3.628,3.629v13.042c0,2.004-1.624,3.629-3.628,3.629
					H64.725c-2.004,0-3.628-1.624-3.628-3.629v-13.042C61.096,419.185,62.721,417.56,64.725,417.56z"/>
				<g>
					<rect x="80.344" y="417.56" style="opacity:0.05;" width="5.258" height="20.299"/>
					<rect x="66.41" y="417.56" style="opacity:0.05;" width="5.258" height="20.299"/>
					<rect x="108.211" y="417.56" style="opacity:0.05;" width="5.258" height="20.299"/>
					<rect x="94.277" y="417.56" style="opacity:0.05;" width="5.258" height="20.299"/>
					<rect x="150.012" y="417.56" style="opacity:0.05;" width="5.258" height="20.299"/>
					<rect x="122.145" y="417.56" style="opacity:0.05;" width="5.258" height="20.299"/>
					<rect x="136.078" y="417.56" style="opacity:0.05;" width="5.258" height="20.299"/>
				</g>
			</g>
			<path style="opacity:0.15;" d="M63.742,417.712v14.255c0,0.988,0.801,1.788,1.788,1.788h95.019v0.475
				c0,2.004-1.625,3.628-3.628,3.628H64.725c-2.004,0-3.629-1.625-3.629-3.628v-13.042
				C61.096,419.528,62.219,418.143,63.742,417.712z"/>
		</g>
		<g>
			<g>
				<path style="fill:#FFB81F;" d="M59.563,397.262h92.196c2.004,0,3.629,1.625,3.629,3.629v13.042c0,2.004-1.625,3.629-3.629,3.629
					H59.563c-2.004,0-3.629-1.625-3.629-3.629V400.89C55.934,398.886,57.559,397.262,59.563,397.262z"/>
				<g>
					<rect x="75.182" y="397.262" style="opacity:0.05;" width="5.258" height="20.299"/>
					<rect x="61.248" y="397.262" style="opacity:0.05;" width="5.258" height="20.299"/>
					<rect x="103.049" y="397.262" style="opacity:0.05;" width="5.257" height="20.299"/>
					<rect x="89.115" y="397.262" style="opacity:0.05;" width="5.257" height="20.299"/>
					<rect x="144.85" y="397.262" style="opacity:0.05;" width="5.257" height="20.299"/>
					<rect x="116.983" y="397.262" style="opacity:0.05;" width="5.257" height="20.299"/>
					<rect x="130.916" y="397.262" style="opacity:0.05;" width="5.257" height="20.299"/>
				</g>
			</g>
			<path style="opacity:0.15;" d="M58.58,397.413v14.255c0,0.988,0.801,1.788,1.788,1.788h95.019v0.475
				c0,2.004-1.625,3.629-3.629,3.629H59.563c-2.004,0-3.629-1.625-3.629-3.629V400.89C55.934,399.229,57.057,397.844,58.58,397.413z
				"/>
		</g>
		<g>
			<g>
				<path style="fill:#FFD747;" d="M65.588,376.7h92.196c2.004,0,3.628,1.625,3.628,3.629v13.042c0,2.004-1.624,3.629-3.628,3.629
					H65.588c-2.004,0-3.629-1.625-3.629-3.629v-13.042C61.959,378.325,63.584,376.7,65.588,376.7z"/>
				<g>
					<rect x="81.207" y="376.7" style="opacity:0.05;" width="5.258" height="20.299"/>
					<rect x="67.273" y="376.7" style="opacity:0.05;" width="5.258" height="20.299"/>
					<rect x="109.074" y="376.7" style="opacity:0.05;" width="5.258" height="20.299"/>
					<rect x="95.141" y="376.7" style="opacity:0.05;" width="5.258" height="20.299"/>
					<rect x="150.875" y="376.7" style="opacity:0.05;" width="5.258" height="20.299"/>
					<rect x="123.008" y="376.7" style="opacity:0.05;" width="5.258" height="20.299"/>
					<rect x="136.942" y="376.7" style="opacity:0.05;" width="5.258" height="20.299"/>
				</g>
			</g>
			<path style="opacity:0.15;" d="M64.605,376.852v14.255c0,0.987,0.801,1.788,1.788,1.788h95.02v0.475
				c0,2.004-1.625,3.629-3.628,3.629H65.588c-2.004,0-3.629-1.625-3.629-3.629v-13.042
				C61.959,378.668,63.082,377.283,64.605,376.852z"/>
		</g>
	</g>
	<g>
		<g>
			<g>
				<path style="fill:#FFB81F;" d="M405.365,417.56h-92.196c-2.004,0-3.629,1.625-3.629,3.629v13.042
					c0,2.004,1.625,3.629,3.629,3.629h92.196c2.004,0,3.629-1.624,3.629-3.629v-13.042
					C408.994,419.185,407.369,417.56,405.365,417.56z"/>
				<g>
					<rect x="384.489" y="417.56" style="opacity:0.05;" width="5.258" height="20.299"/>
					<rect x="398.422" y="417.56" style="opacity:0.05;" width="5.258" height="20.299"/>
					<rect x="356.621" y="417.56" style="opacity:0.05;" width="5.258" height="20.299"/>
					<rect x="370.555" y="417.56" style="opacity:0.05;" width="5.258" height="20.299"/>
					<rect x="314.82" y="417.56" style="opacity:0.05;" width="5.258" height="20.299"/>
					<rect x="342.688" y="417.56" style="opacity:0.05;" width="5.258" height="20.299"/>
					<rect x="328.754" y="417.56" style="opacity:0.05;" width="5.258" height="20.299"/>
				</g>
			</g>
			<path style="opacity:0.15;" d="M406.348,417.712v14.255c0,0.988-0.801,1.788-1.788,1.788h-95.02v0.475
				c0,2.004,1.625,3.628,3.629,3.628h92.196c2.004,0,3.629-1.625,3.629-3.628v-13.042
				C408.994,419.528,407.871,418.143,406.348,417.712z"/>
		</g>
		<g>
			<g>
				<path style="fill:#FFD747;" d="M397.406,397.262h-92.196c-2.004,0-3.629,1.625-3.629,3.629v13.042
					c0,2.004,1.625,3.629,3.629,3.629h92.196c2.004,0,3.629-1.625,3.629-3.629V400.89
					C401.034,398.886,399.41,397.262,397.406,397.262z"/>
				<g>
					<rect x="376.529" y="397.262" style="opacity:0.05;" width="5.257" height="20.299"/>
					<rect x="390.463" y="397.262" style="opacity:0.05;" width="5.257" height="20.299"/>
					<rect x="348.662" y="397.262" style="opacity:0.05;" width="5.257" height="20.299"/>
					<rect x="362.595" y="397.262" style="opacity:0.05;" width="5.257" height="20.299"/>
					<rect x="306.861" y="397.262" style="opacity:0.05;" width="5.258" height="20.299"/>
					<rect x="334.728" y="397.262" style="opacity:0.05;" width="5.257" height="20.299"/>
					<rect x="320.794" y="397.262" style="opacity:0.05;" width="5.257" height="20.299"/>
				</g>
			</g>
			<path style="opacity:0.15;" d="M398.388,397.413v14.255c0,0.988-0.801,1.788-1.788,1.788h-95.02v0.475
				c0,2.004,1.625,3.629,3.629,3.629h92.196c2.004,0,3.629-1.625,3.629-3.629V400.89
				C401.034,399.229,399.911,397.844,398.388,397.413z"/>
		</g>
		<g>
			<g>
				<path style="fill:#FFB81F;" d="M406.697,376.7h-92.196c-2.004,0-3.629,1.625-3.629,3.629v13.042
					c0,2.004,1.625,3.629,3.629,3.629h92.196c2.004,0,3.629-1.625,3.629-3.629v-13.042C410.325,378.325,408.701,376.7,406.697,376.7
					z"/>
				<g>
					<rect x="385.82" y="376.7" style="opacity:0.05;" width="5.257" height="20.299"/>
					<rect x="399.754" y="376.7" style="opacity:0.05;" width="5.258" height="20.299"/>
					<rect x="357.953" y="376.7" style="opacity:0.05;" width="5.257" height="20.299"/>
					<rect x="371.887" y="376.7" style="opacity:0.05;" width="5.257" height="20.299"/>
					<rect x="316.152" y="376.7" style="opacity:0.05;" width="5.257" height="20.299"/>
					<rect x="344.019" y="376.7" style="opacity:0.05;" width="5.257" height="20.299"/>
					<rect x="330.086" y="376.7" style="opacity:0.05;" width="5.257" height="20.299"/>
				</g>
			</g>
			<path style="opacity:0.15;" d="M407.68,376.852v14.255c0,0.987-0.801,1.788-1.788,1.788h-95.019v0.475
				c0,2.004,1.625,3.629,3.629,3.629h92.196c2.004,0,3.629-1.625,3.629-3.629v-13.042
				C410.325,378.668,409.203,377.283,407.68,376.852z"/>
		</g>
		<g>
			<g>
				<path style="fill:#FFD747;" d="M398.754,356.553h-92.196c-2.004,0-3.629,1.625-3.629,3.629v13.042
					c0,2.004,1.625,3.629,3.629,3.629h92.196c2.004,0,3.629-1.625,3.629-3.629v-13.042
					C402.383,358.177,400.758,356.553,398.754,356.553z"/>
				<g>
					<rect x="377.878" y="356.553" style="opacity:0.05;" width="5.258" height="20.299"/>
					<rect x="391.811" y="356.553" style="opacity:0.05;" width="5.258" height="20.299"/>
					<rect x="350.01" y="356.553" style="opacity:0.05;" width="5.258" height="20.299"/>
					<rect x="363.944" y="356.553" style="opacity:0.05;" width="5.258" height="20.299"/>
					<rect x="308.209" y="356.553" style="opacity:0.05;" width="5.258" height="20.299"/>
					<rect x="336.077" y="356.553" style="opacity:0.05;" width="5.258" height="20.299"/>
					<rect x="322.143" y="356.553" style="opacity:0.05;" width="5.258" height="20.299"/>
				</g>
			</g>
			<path style="opacity:0.15;" d="M399.737,356.705v14.255c0,0.987-0.801,1.788-1.788,1.788h-95.02v0.475
				c0,2.004,1.625,3.629,3.629,3.629h92.196c2.004,0,3.629-1.625,3.629-3.629v-13.042
				C402.383,358.521,401.26,357.135,399.737,356.705z"/>
		</g>
		<g>
			<g>
				<path style="fill:#FFB81F;" d="M407.977,336.406h-92.196c-2.004,0-3.629,1.625-3.629,3.629v13.042
					c0,2.004,1.625,3.629,3.629,3.629h92.196c2.004,0,3.629-1.625,3.629-3.629v-13.042
					C411.606,338.03,409.981,336.406,407.977,336.406z"/>
				<g>
					<rect x="387.1" y="336.406" style="opacity:0.05;" width="5.258" height="20.299"/>
					<rect x="401.034" y="336.406" style="opacity:0.05;" width="5.258" height="20.299"/>
					<rect x="359.233" y="336.406" style="opacity:0.05;" width="5.258" height="20.299"/>
					<rect x="373.167" y="336.406" style="opacity:0.05;" width="5.258" height="20.299"/>
					<rect x="317.432" y="336.406" style="opacity:0.05;" width="5.258" height="20.299"/>
					<rect x="345.299" y="336.406" style="opacity:0.05;" width="5.258" height="20.299"/>
					<rect x="331.366" y="336.406" style="opacity:0.05;" width="5.258" height="20.299"/>
				</g>
			</g>
			<path style="opacity:0.15;" d="M408.96,336.558v14.255c0,0.988-0.801,1.788-1.788,1.788h-95.02v0.475
				c0,2.004,1.625,3.629,3.629,3.629h92.196c2.004,0,3.629-1.625,3.629-3.629v-13.042
				C411.606,338.373,410.483,336.988,408.96,336.558z"/>
		</g>
	</g>
</g>
</svg>
