<?xml version="1.0" encoding="utf-8"?>
<!-- Generator: Adobe Illustrator 27.5.0, SVG Export Plug-In . SVG Version: 6.00 Build 0)  -->
<svg version="1.1" xmlns="http://www.w3.org/2000/svg" xmlns:xlink="http://www.w3.org/1999/xlink" x="0px" y="0px"
	 viewBox="0 0 500 500" style="enable-background:new 0 0 500 500;" xml:space="preserve">
<g id="BACKGROUND">
	<g>
		<rect style="fill:#F2EDE2;" width="500" height="500"/>
		<circle style="fill:#FFFFFF;" cx="250" cy="250" r="222.258"/>
	</g>
</g>
<g id="OBJECTS_1_">
	<g>
		<g>
			<polygon style="fill:#FFC200;" points="380.529,128.077 372.834,127.124 356.789,500 370.848,500 			"/>
			<polygon style="fill:#FFC200;" points="226.435,108.981 11.833,500 42.643,500 238.186,110.437 			"/>
			<polygon style="fill:#A42E00;" points="238.186,110.437 42.643,500 356.789,500 372.834,127.124 			"/>
			<g>
				<g style="opacity:0.5;">
					<polygon style="fill:#443100;" points="240.327,152.805 223.39,189.477 206.309,226.081 172.139,299.284 137.706,372.365 
						120.413,408.868 103.022,445.327 119.958,408.655 136.991,372.029 171.21,298.848 205.692,225.791 222.938,189.264 					"/>
				</g>
				<g style="opacity:0.5;">
					<path style="fill:#443100;" d="M258.063,185.299l-7.457,16.913l-7.376,16.948l-7.365,16.952l-7.287,16.985
						c-9.662,22.67-19.106,45.433-28.33,68.283c-9.314,22.815-18.369,45.734-27.283,68.708l-6.653,17.244l-6.572,17.275
						l-6.539,17.288l-6.456,17.32l6.22-17.407l6.304-17.378l6.437-17.329l6.522-17.297c8.763-23.038,17.827-45.961,27.071-68.811
						c9.333-22.813,18.885-45.537,28.654-68.165l7.368-16.954l7.453-16.917l7.605-16.848L258.063,185.299z"/>
				</g>
				<g style="opacity:0.5;">
					<polygon style="fill:#443100;" points="280.891,185.947 273.325,218.266 265.604,250.548 250.154,315.111 234.422,379.604 
						226.473,411.832 218.42,444.033 225.984,411.713 233.653,379.418 249.157,314.869 264.942,250.388 272.839,218.149 					"/>
				</g>
				<g style="opacity:0.5;">
					<path style="fill:#443100;" d="M349.1,162.301l-1.826,19.009l-1.893,19.003l-2.036,18.989l-2.107,18.981
						c-2.854,25.303-5.885,50.587-9.092,75.848c-3.303,25.249-6.741,50.481-10.439,75.675l-2.816,18.889l-2.884,18.878l-3.002,18.86
						l-3.068,18.849l2.82-18.887l2.753-18.897l2.739-18.898l2.676-18.907c3.536-25.213,6.98-50.439,10.205-75.694
						c3.321-25.242,6.465-50.508,9.433-75.794l2.193-18.969l2.131-18.976l2.141-18.976L349.1,162.301z"/>
				</g>
				<g style="opacity:0.5;">
					<path style="fill:#443100;" d="M326.031,201.133l-0.91,10.255l-0.974,10.249c-0.707,6.827-1.46,13.65-2.242,20.469
						c-1.59,13.636-3.439,27.242-5.406,40.829c-2.049,13.575-4.221,27.132-6.645,40.645l-1.858,10.127l-1.923,10.115l-2.036,10.092
						l-2.098,10.079l1.852-10.126l1.789-10.137l1.778-10.137l1.718-10.147c2.261-13.534,4.44-27.082,6.408-40.661
						c2.051-13.567,3.884-27.165,5.641-40.774l1.293-10.21l1.233-10.218l1.222-10.221L326.031,201.133z"/>
				</g>
			</g>
			<g>
				<g>
					<g>
						<path style="fill:#FFC200;" d="M240.281,119.401c3.217,0,3.223-5,0-5C237.063,114.401,237.058,119.401,240.281,119.401
							L240.281,119.401z"/>
					</g>
				</g>
				<g>
					<g>
						<path style="fill:#FFC200;" d="M237.355,127.299c3.217,0,3.223-5,0-5C234.138,122.299,234.133,127.299,237.355,127.299
							L237.355,127.299z"/>
					</g>
				</g>
				<g>
					<g>
						<path style="fill:#FFC200;" d="M233.26,134.612c3.217,0,3.223-5,0-5C230.043,129.612,230.038,134.612,233.26,134.612
							L233.26,134.612z"/>
					</g>
				</g>
				<g>
					<g>
						<path style="fill:#FFC200;" d="M229.75,141.633c3.217,0,3.222-5,0-5C226.533,136.633,226.527,141.633,229.75,141.633
							L229.75,141.633z"/>
					</g>
				</g>
				<g>
					<g>
						<path style="fill:#FFC200;" d="M224.777,151.286c3.217,0,3.223-5,0-5C221.56,146.286,221.555,151.286,224.777,151.286
							L224.777,151.286z"/>
					</g>
				</g>
				<g>
					<g>
						<path style="fill:#FFC200;" d="M220.097,159.476c3.217,0,3.223-5,0-5C216.88,154.476,216.874,159.476,220.097,159.476
							L220.097,159.476z"/>
					</g>
				</g>
				<g>
					<g>
						<path style="fill:#FFC200;" d="M215.124,168.252c3.217,0,3.223-5,0-5C211.907,163.252,211.901,168.252,215.124,168.252
							L215.124,168.252z"/>
					</g>
				</g>
				<g>
					<g>
						<path style="fill:#FFC200;" d="M211.906,176.442c3.217,0,3.223-5,0-5C208.689,171.442,208.684,176.442,211.906,176.442
							L211.906,176.442z"/>
					</g>
				</g>
				<g>
					<g>
						<path style="fill:#FFC200;" d="M208.689,182c3.217,0,3.223-5,0-5C205.471,177,205.466,182,208.689,182L208.689,182z"/>
					</g>
				</g>
				<g>
					<g>
						<path style="fill:#FFC200;" d="M205.471,190.191c3.217,0,3.223-5,0-5C202.254,185.191,202.248,190.191,205.471,190.191
							L205.471,190.191z"/>
					</g>
				</g>
				<g>
					<g>
						<path style="fill:#FFC200;" d="M201.668,197.503c3.217,0,3.223-5,0-5C198.451,192.503,198.446,197.503,201.668,197.503
							L201.668,197.503z"/>
					</g>
				</g>
				<g>
					<g>
						<path style="fill:#FFC200;" d="M196.988,206.279c3.217,0,3.223-5,0-5C193.771,201.279,193.765,206.279,196.988,206.279
							L196.988,206.279z"/>
					</g>
				</g>
				<g>
					<g>
						<path style="fill:#FFC200;" d="M192.893,214.762c3.217,0,3.223-5,0-5C189.675,209.762,189.67,214.762,192.893,214.762
							L192.893,214.762z"/>
					</g>
				</g>
				<g>
					<g>
						<path style="fill:#FFC200;" d="M188.798,222.367c3.217,0,3.223-5,0-5C185.58,217.367,185.575,222.367,188.798,222.367
							L188.798,222.367z"/>
					</g>
				</g>
				<g>
					<g>
						<path style="fill:#FFC200;" d="M185.287,228.51c3.217,0,3.223-5,0-5C182.07,223.51,182.065,228.51,185.287,228.51
							L185.287,228.51z"/>
					</g>
				</g>
				<g>
					<g>
						<path style="fill:#FFC200;" d="M180.899,237.578c3.217,0,3.223-5,0-5C177.682,232.578,177.677,237.578,180.899,237.578
							L180.899,237.578z"/>
					</g>
				</g>
				<g>
					<g>
						<path style="fill:#FFC200;" d="M176.512,246.354c3.217,0,3.223-5,0-5C173.294,241.354,173.289,246.354,176.512,246.354
							L176.512,246.354z"/>
					</g>
				</g>
				<g>
					<g>
						<path style="fill:#FFC200;" d="M173.002,254.252c3.217,0,3.223-5,0-5C169.784,249.252,169.779,254.252,173.002,254.252
							L173.002,254.252z"/>
					</g>
				</g>
				<g>
					<g>
						<path style="fill:#FFC200;" d="M168.906,261.565c3.217,0,3.223-5,0-5C165.689,256.565,165.684,261.565,168.906,261.565
							L168.906,261.565z"/>
					</g>
				</g>
				<g>
					<g>
						<path style="fill:#FFC200;" d="M165.396,269.755c3.217,0,3.223-5,0-5C162.179,264.755,162.173,269.755,165.396,269.755
							L165.396,269.755z"/>
					</g>
				</g>
				<g>
					<g>
						<path style="fill:#FFC200;" d="M160.716,278.823c3.217,0,3.223-5,0-5C157.499,273.823,157.493,278.823,160.716,278.823
							L160.716,278.823z"/>
					</g>
				</g>
				<g>
					<g>
						<path style="fill:#FFC200;" d="M155.451,287.891c3.217,0,3.223-5,0-5C152.233,282.891,152.228,287.891,155.451,287.891
							L155.451,287.891z"/>
					</g>
				</g>
				<g>
					<g>
						<path style="fill:#FFC200;" d="M151.648,296.082c3.217,0,3.223-5,0-5C148.43,291.082,148.425,296.082,151.648,296.082
							L151.648,296.082z"/>
					</g>
				</g>
				<g>
					<g>
						<path style="fill:#FFC200;" d="M145.798,306.027c3.217,0,3.222-5,0-5C142.58,301.027,142.575,306.027,145.798,306.027
							L145.798,306.027z"/>
					</g>
				</g>
				<g>
					<g>
						<path style="fill:#FFC200;" d="M140.532,316.266c3.217,0,3.223-5,0-5C137.315,311.266,137.31,316.266,140.532,316.266
							L140.532,316.266z"/>
					</g>
				</g>
				<g>
					<g>
						<path style="fill:#FFC200;" d="M135.852,325.919c3.217,0,3.223-5,0-5C132.635,320.919,132.629,325.919,135.852,325.919
							L135.852,325.919z"/>
					</g>
				</g>
				<g>
					<g>
						<path style="fill:#FFC200;" d="M131.172,336.157c3.217,0,3.223-5,0-5C127.954,331.157,127.949,336.157,131.172,336.157
							L131.172,336.157z"/>
					</g>
				</g>
				<g>
					<g>
						<path style="fill:#FFC200;" d="M127.369,344.64c3.217,0,3.223-5,0-5C124.152,339.64,124.146,344.64,127.369,344.64
							L127.369,344.64z"/>
					</g>
				</g>
				<g>
					<g>
						<path style="fill:#FFC200;" d="M124.444,351.66c3.217,0,3.223-5,0-5C121.226,346.66,121.221,351.66,124.444,351.66
							L124.444,351.66z"/>
					</g>
				</g>
				<g>
					<g>
						<path style="fill:#FFC200;" d="M119.763,359.266c3.217,0,3.223-5,0-5C116.546,354.266,116.541,359.266,119.763,359.266
							L119.763,359.266z"/>
					</g>
				</g>
				<g>
					<g>
						<path style="fill:#FFC200;" d="M114.206,368.919c3.217,0,3.223-5,0-5C110.988,363.919,110.983,368.919,114.206,368.919
							L114.206,368.919z"/>
					</g>
				</g>
				<g>
					<g>
						<path style="fill:#FFC200;" d="M110.695,377.987c3.217,0,3.223-5,0-5C107.478,372.987,107.473,377.987,110.695,377.987
							L110.695,377.987z"/>
					</g>
				</g>
				<g>
					<g>
						<path style="fill:#FFC200;" d="M105.723,387.055c3.217,0,3.223-5,0-5C102.505,382.055,102.5,387.055,105.723,387.055
							L105.723,387.055z"/>
					</g>
				</g>
				<g>
					<g>
						<path style="fill:#FFC200;" d="M100.457,398.463c3.217,0,3.223-5,0-5C97.24,393.463,97.235,398.463,100.457,398.463
							L100.457,398.463z"/>
					</g>
				</g>
				<g>
					<g>
						<path style="fill:#FFC200;" d="M97.24,406.361c3.217,0,3.223-5,0-5C94.022,401.361,94.017,406.361,97.24,406.361
							L97.24,406.361z"/>
					</g>
				</g>
				<g>
					<g>
						<path style="fill:#FFC200;" d="M94.022,413.966c3.217,0,3.223-5,0-5C90.805,408.966,90.799,413.966,94.022,413.966
							L94.022,413.966z"/>
					</g>
				</g>
				<g>
					<g>
						<path style="fill:#FFC200;" d="M89.634,422.157c3.217,0,3.223-5,0-5C86.417,417.157,86.411,422.157,89.634,422.157
							L89.634,422.157z"/>
					</g>
				</g>
				<g>
					<g>
						<path style="fill:#FFC200;" d="M83.491,432.395c3.217,0,3.222-5,0-5C80.274,427.395,80.269,432.395,83.491,432.395
							L83.491,432.395z"/>
					</g>
				</g>
				<g>
					<g>
						<path style="fill:#FFC200;" d="M79.104,440.878c3.217,0,3.223-5,0-5C75.886,435.878,75.881,440.878,79.104,440.878
							L79.104,440.878z"/>
					</g>
				</g>
				<g>
					<g>
						<path style="fill:#FFC200;" d="M75.008,449.361c3.217,0,3.223-5,0-5C71.791,444.361,71.786,449.361,75.008,449.361
							L75.008,449.361z"/>
					</g>
				</g>
				<g>
					<g>
						<path style="fill:#FFC200;" d="M71.205,458.137c3.217,0,3.223-5,0-5C67.988,453.137,67.983,458.137,71.205,458.137
							L71.205,458.137z"/>
					</g>
				</g>
				<g>
					<g>
						<path style="fill:#FFC200;" d="M66.818,466.912c3.217,0,3.223-5,0-5C63.6,461.912,63.595,466.912,66.818,466.912
							L66.818,466.912z"/>
					</g>
				</g>
				<g>
					<g>
						<path style="fill:#FFC200;" d="M63.6,473.055c3.217,0,3.223-5,0-5C60.383,468.055,60.377,473.055,63.6,473.055L63.6,473.055z"
							/>
					</g>
				</g>
				<g>
					<g>
						<path style="fill:#FFC200;" d="M59.212,481.83c3.217,0,3.223-5,0-5C55.995,476.83,55.99,481.83,59.212,481.83L59.212,481.83z"
							/>
					</g>
				</g>
				<g>
					<g>
						<path style="fill:#FFC200;" d="M55.702,488.266c3.217,0,3.223-5,0-5C52.485,483.266,52.479,488.266,55.702,488.266
							L55.702,488.266z"/>
					</g>
				</g>
				<g>
					<g>
						<path style="fill:#FFC200;" d="M51.607,497.041c3.217,0,3.222-5,0-5C48.39,492.041,48.384,497.041,51.607,497.041
							L51.607,497.041z"/>
					</g>
				</g>
			</g>
			<g>
				<g>
					<g>
						<path style="fill:#FFC200;" d="M364.472,135.48c3.217,0,3.223-5,0-5C361.255,130.48,361.25,135.48,364.472,135.48
							L364.472,135.48z"/>
					</g>
				</g>
				<g>
					<g>
						<path style="fill:#FFC200;" d="M364.969,143.888c3.217,0,3.223-5,0-5C361.751,138.888,361.746,143.888,364.969,143.888
							L364.969,143.888z"/>
					</g>
				</g>
				<g>
					<g>
						<path style="fill:#FFC200;" d="M364.158,152.23c3.217,0,3.223-5,0-5C360.941,147.23,360.936,152.23,364.158,152.23
							L364.158,152.23z"/>
					</g>
				</g>
				<g>
					<g>
						<path style="fill:#FFC200;" d="M363.766,160.069c3.217,0,3.223-5,0-5C360.549,155.069,360.543,160.069,363.766,160.069
							L363.766,160.069z"/>
					</g>
				</g>
				<g>
					<g>
						<path style="fill:#FFC200;" d="M363.093,170.907c3.217,0,3.223-5,0-5C359.876,165.907,359.87,170.907,363.093,170.907
							L363.093,170.907z"/>
					</g>
				</g>
				<g>
					<g>
						<path style="fill:#FFC200;" d="M362.1,180.288c3.217,0,3.223-5,0-5C358.882,175.288,358.877,180.288,362.1,180.288
							L362.1,180.288z"/>
					</g>
				</g>
				<g>
					<g>
						<path style="fill:#FFC200;" d="M361.074,190.322c3.217,0,3.223-5,0-5C357.856,185.322,357.851,190.322,361.074,190.322
							L361.074,190.322z"/>
					</g>
				</g>
				<g>
					<g>
						<path style="fill:#FFC200;" d="M361.42,199.115c3.217,0,3.223-5,0-5C358.202,194.115,358.197,199.115,361.42,199.115
							L361.42,199.115z"/>
					</g>
				</g>
				<g>
					<g>
						<path style="fill:#FFC200;" d="M360.707,205.498c3.217,0,3.223-5,0-5C357.49,200.498,357.485,205.498,360.707,205.498
							L360.707,205.498z"/>
					</g>
				</g>
				<g>
					<g>
						<path style="fill:#FFC200;" d="M361.053,214.291c3.217,0,3.223-5,0-5C357.836,209.291,357.831,214.291,361.053,214.291
							L361.053,214.291z"/>
					</g>
				</g>
				<g>
					<g>
						<path style="fill:#FFC200;" d="M360.511,222.516c3.217,0,3.223-5,0-5C357.294,217.516,357.288,222.516,360.511,222.516
							L360.511,222.516z"/>
					</g>
				</g>
				<g>
					<g>
						<path style="fill:#FFC200;" d="M359.753,232.432c3.217,0,3.223-5,0-5C356.535,227.432,356.53,232.432,359.753,232.432
							L359.753,232.432z"/>
					</g>
				</g>
				<g>
					<g>
						<path style="fill:#FFC200;" d="M359.413,241.846c3.217,0,3.223-5,0-5C356.195,236.846,356.19,241.846,359.413,241.846
							L359.413,241.846z"/>
					</g>
				</g>
				<g>
					<g>
						<path style="fill:#FFC200;" d="M358.72,250.456c3.217,0,3.223-5,0-5C355.503,245.456,355.497,250.456,358.72,250.456
							L358.72,250.456z"/>
					</g>
				</g>
				<g>
					<g>
						<path style="fill:#FFC200;" d="M357.975,257.492c3.217,0,3.223-5,0-5C354.758,252.492,354.752,257.492,357.975,257.492
							L357.975,257.492z"/>
					</g>
				</g>
				<g>
					<g>
						<path style="fill:#FFC200;" d="M357.602,267.559c3.217,0,3.223-5,0-5C354.385,262.559,354.38,267.559,357.602,267.559
							L357.602,267.559z"/>
					</g>
				</g>
				<g>
					<g>
						<path style="fill:#FFC200;" d="M357.112,277.358c3.217,0,3.223-5,0-5C353.895,272.358,353.89,277.358,357.112,277.358
							L357.112,277.358z"/>
					</g>
				</g>
				<g>
					<g>
						<path style="fill:#FFC200;" d="M357.073,286c3.217,0,3.223-5,0-5C353.855,281,353.85,286,357.073,286L357.073,286z"/>
					</g>
				</g>
				<g>
					<g>
						<path style="fill:#FFC200;" d="M356.262,294.343c3.217,0,3.223-5,0-5C353.045,289.343,353.04,294.343,356.262,294.343
							L356.262,294.343z"/>
					</g>
				</g>
				<g>
					<g>
						<path style="fill:#FFC200;" d="M356.34,303.253c3.217,0,3.223-5,0-5C353.123,298.253,353.118,303.253,356.34,303.253
							L356.34,303.253z"/>
					</g>
				</g>
				<g>
					<g>
						<path style="fill:#FFC200;" d="M355.7,313.438c3.217,0,3.223-5,0-5C352.483,308.438,352.477,313.438,355.7,313.438
							L355.7,313.438z"/>
					</g>
				</g>
				<g>
					<g>
						<path style="fill:#FFC200;" d="M354.524,323.858c3.217,0,3.223-5,0-5C351.307,318.858,351.301,323.858,354.524,323.858
							L354.524,323.858z"/>
					</g>
				</g>
				<g>
					<g>
						<path style="fill:#FFC200;" d="M354.334,332.886c3.217,0,3.223-5,0-5C351.117,327.886,351.111,332.886,354.334,332.886
							L354.334,332.886z"/>
					</g>
				</g>
				<g>
					<g>
						<path style="fill:#FFC200;" d="M352.975,344.344c3.217,0,3.223-5,0-5C349.758,339.344,349.752,344.344,352.975,344.344
							L352.975,344.344z"/>
					</g>
				</g>
				<g>
					<g>
						<path style="fill:#FFC200;" d="M352.269,355.835c3.217,0,3.223-5,0-5C349.052,350.835,349.046,355.835,352.269,355.835
							L352.269,355.835z"/>
					</g>
				</g>
				<g>
					<g>
						<path style="fill:#FFC200;" d="M351.864,366.555c3.217,0,3.223-5,0-5C348.646,361.555,348.641,366.555,351.864,366.555
							L351.864,366.555z"/>
					</g>
				</g>
				<g>
					<g>
						<path style="fill:#FFC200;" d="M351.693,377.811c3.217,0,3.223-5,0-5C348.476,372.811,348.471,377.811,351.693,377.811
							L351.693,377.811z"/>
					</g>
				</g>
				<g>
					<g>
						<path style="fill:#FFC200;" d="M351.621,387.107c3.217,0,3.223-5,0-5C348.404,382.107,348.399,387.107,351.621,387.107
							L351.621,387.107z"/>
					</g>
				</g>
				<g>
					<g>
						<path style="fill:#FFC200;" d="M351.765,394.711c3.217,0,3.223-5,0-5C348.548,389.711,348.542,394.711,351.765,394.711
							L351.765,394.711z"/>
					</g>
				</g>
				<g>
					<g>
						<path style="fill:#FFC200;" d="M350.536,403.557c3.217,0,3.223-5,0-5C347.319,398.557,347.314,403.557,350.536,403.557
							L350.536,403.557z"/>
					</g>
				</g>
				<g>
					<g>
						<path style="fill:#FFC200;" d="M349.327,414.63c3.217,0,3.223-5,0-5C346.11,409.63,346.105,414.63,349.327,414.63
							L349.327,414.63z"/>
					</g>
				</g>
				<g>
					<g>
						<path style="fill:#FFC200;" d="M349.758,424.344c3.217,0,3.223-5,0-5C346.541,419.344,346.536,424.344,349.758,424.344
							L349.758,424.344z"/>
					</g>
				</g>
				<g>
					<g>
						<path style="fill:#FFC200;" d="M348.85,434.646c3.217,0,3.223-5,0-5C345.633,429.646,345.627,434.646,348.85,434.646
							L348.85,434.646z"/>
					</g>
				</g>
				<g>
					<g>
						<path style="fill:#FFC200;" d="M348.614,447.208c3.217,0,3.223-5,0-5C345.397,442.208,345.392,447.208,348.614,447.208
							L348.614,447.208z"/>
					</g>
				</g>
				<g>
					<g>
						<path style="fill:#FFC200;" d="M348.843,455.733c3.217,0,3.223-5,0-5C345.626,450.733,345.62,455.733,348.843,455.733
							L348.843,455.733z"/>
					</g>
				</g>
				<g>
					<g>
						<path style="fill:#FFC200;" d="M348.954,463.991c3.217,0,3.223-5,0-5C345.736,458.991,345.731,463.991,348.954,463.991
							L348.954,463.991z"/>
					</g>
				</g>
				<g>
					<g>
						<path style="fill:#FFC200;" d="M348.228,473.254c3.217,0,3.223-5,0-5C345.011,468.254,345.006,473.254,348.228,473.254
							L348.228,473.254z"/>
					</g>
				</g>
				<g>
					<g>
						<path style="fill:#FFC200;" d="M346.719,485.098c3.217,0,3.223-5,0-5C343.501,480.098,343.496,485.098,346.719,485.098
							L346.719,485.098z"/>
					</g>
				</g>
				<g>
					<g>
						<path style="fill:#FFC200;" d="M346.111,494.629c3.217,0,3.223-5,0-5C342.894,489.629,342.888,494.629,346.111,494.629
							L346.111,494.629z"/>
					</g>
				</g>
			</g>
		</g>
		<g>
			<circle style="fill:#25232D;" cx="228.145" cy="238.245" r="44.595"/>
			<path style="fill:#D78F64;" d="M202.385,387.297c12.51,18.533,21.886,38.988,30.424,59.655
				c23.378-0.916,48.003,8.357,66.338,22.892c11.322-12.746,27.851-19.709,44.866-20.772c-0.465-39.89-5.106-76.867-22.492-111.658
				c-14.802-8.74-25.994-16.171-26.681-20.522c-1.992-12.616,11.952-53.784,11.952-53.784l14.608-37.848l-52.417-22.247
				c0,0-17.875,46.317-53.824,87.984c-16.696,19.352-37.29,37.699-55.525,53.033C176.771,355.046,190.963,370.376,202.385,387.297z"
				/>
			<path style="fill:#D78F64;" d="M411.861,145.523c-3.751,41.077-37.255,147.299-74.999,153.921
				c-40.561,7.116-101.475-94.834-101.475-143.959c0-49.125,39.824-88.949,88.949-88.949
				C373.461,66.536,416.328,96.601,411.861,145.523z"/>
			<path style="fill:#D78F64;" d="M398.889,191.559c-0.2,14.014-0.401,28.028-0.601,42.042c-0.088,6.138-0.179,12.316-1.363,18.34
				c-0.299,1.523-0.779,3.191-2.108,3.992c-0.856,0.516-1.906,0.564-2.905,0.569c-6.108,0.033-12.22-1.022-17.964-3.1"/>
			<path style="fill:#25232D;" d="M409.768,155.192c0,0-4.375-16.881-12.304-21.355c-5.018-2.832-11.246-2.972-16.773-1.342
				c-5.527,1.63-10.442,4.882-14.895,8.539c-9.251,7.597-16.854,17.071-26.31,24.41c-9.457,7.339-21.756,12.504-33.331,9.453
				c-7.836,14.482-21.093,24.567-37.172,28.112c-4.527,10.965-7.734,22.072-17.705,34.037c-9.372-9.045-12.888-19.384-17.581-31.534
				c-12.457-32.246-12.434-69.133,0.063-101.363c6.784-17.498,17.935-34.352,34.821-42.542c15.829-7.677,34.441-6.733,51.768-3.681
				c17.326,3.052,34.488,8.053,52.081,7.949c16.108-0.095,33.643-4.168,47.345,4.301c6.462,3.994,11.177,10.44,14.008,17.49
				c6.174,15.373,3.292,34.012-7.236,46.803c2.787-3.043,7.173-4.168,11.292-4.408c2.954-0.172,6.206,0.654,7.939,3.053
				c2.016,2.79,1.344,6.682,0.1,9.892c-2.914,7.518-8.476,13.872-15.195,18.327c-6.719,4.456-15.435,8.828-23.412,9.996
				C408.66,168.204,409.768,155.192,409.768,155.192z"/>
			<g>
				<path style="fill:#FFFFFF;" d="M307.984,175.138c-7.696-1.22-15.087-4.312-21.503-8.786
					c-6.413-4.48-11.948-10.242-16.138-16.876c-4.184-6.639-7.081-14.05-8.756-21.703c-1.694-7.658-2.099-15.573-1.446-23.371
					l0.899,0.241c-2.122,4.457-4.083,8.993-5.578,13.683c-1.509,4.68-2.552,9.523-2.844,14.436
					c-0.299,4.905,0.191,9.866,1.522,14.61c1.339,4.733,3.625,9.246,6.916,12.957c-3.387-3.623-5.812-8.101-7.29-12.845
					c-1.496-4.751-2.032-9.782-1.811-14.757c0.227-4.98,1.196-9.912,2.675-14.664c1.489-4.754,3.446-9.337,5.555-13.825l1.11-2.362
					l-0.212,2.603c-0.627,7.717-0.122,15.517,1.476,23.082c1.615,7.559,4.438,14.881,8.53,21.446
					c4.08,6.56,9.424,12.358,15.719,16.88C293.089,170.41,300.311,173.732,307.984,175.138z"/>
			</g>
			<g>
				<path style="fill:#FFFFFF;" d="M407.225,171.352c7.441-5.529,13.659-13.03,16.521-21.884c1.431-4.399,1.906-9.097,1.404-13.683
					c-0.507-4.579-2.031-9.072-4.633-12.87c-2.579-3.819-6.284-6.786-10.393-8.85c-2.051-1.049-4.219-1.867-6.43-2.521
					c-1.108-0.321-2.227-0.603-3.362-0.818c-1.127-0.255-2.27-0.422-3.413-0.585c-9.19-1.209-18.541,0.142-27.458,2.583
					c-8.963,2.414-17.553,6.028-26.278,9.287c-8.712,3.27-17.599,6.354-26.891,7.731c-4.636,0.658-9.378,0.842-14.045,0.171
					c-4.659-0.651-9.226-2.272-13.147-4.913c-3.918-2.644-7.19-6.111-9.962-9.878c-2.762-3.787-5.054-7.878-7.138-12.049
					l0.547-0.069c-1.525,6.85-1.432,14.056,0.197,20.902c1.628,6.843,4.811,13.355,9.416,18.721
					c-4.686-5.295-7.984-11.78-9.727-18.644c-1.747-6.865-1.963-14.15-0.458-21.105l0.173-0.802l0.374,0.733
					c2.11,4.135,4.422,8.176,7.182,11.893c2.768,3.697,6.013,7.069,9.851,9.611c3.844,2.525,8.262,4.09,12.819,4.716
					c4.56,0.643,9.217,0.452,13.786-0.21c9.16-1.382,17.985-4.465,26.667-7.754c8.688-3.301,17.354-6.818,26.397-9.227
					c9-2.414,18.471-3.739,27.799-2.463c1.161,0.172,2.32,0.347,3.464,0.612c1.151,0.225,2.289,0.517,3.415,0.85
					c2.247,0.677,4.451,1.521,6.539,2.603c4.181,2.127,7.966,5.188,10.593,9.12c2.647,3.908,4.175,8.501,4.666,13.163
					c0.497,4.667-0.022,9.445-1.555,13.874C421.112,158.513,414.747,165.935,407.225,171.352z"/>
			</g>
			<g>
				<path style="fill:#FFFFFF;" d="M430.122,129.039c0.923-2.063,1.627-4.215,2.109-6.419c0.448-2.212,0.658-4.462,0.69-6.713
					c0.01-2.254-0.208-4.5-0.559-6.722c-0.371-2.221-0.94-4.402-1.618-6.545c-1.424-4.263-3.362-8.362-5.832-12.112
					c-2.467-3.732-5.585-7.102-9.452-9.355c-3.852-2.27-8.251-3.523-12.694-3.989c-4.458-0.456-8.973-0.13-13.376,0.703
					c-8.832,1.729-17.122,5.482-25.141,9.557c-8.033,4.088-15.944,8.56-24.486,11.707c-4.264,1.566-8.67,2.795-13.182,3.459
					c-4.509,0.656-9.098,0.758-13.629,0.302c-4.531-0.453-9.013-1.455-13.284-3.055c-4.263-1.606-8.316-3.853-11.809-6.809
					c-3.494-2.947-6.357-6.656-8.267-10.81c-1.899-4.152-2.817-8.792-2.374-13.355l0.563,0.157c-1.527,3.15-2.748,6.459-3.448,9.887
					c-0.7,3.417-0.839,6.987-0.053,10.401c1.576,6.829,5.591,13.09,11.175,17.391c-5.65-4.214-9.793-10.434-11.494-17.315
					c-0.854-3.457-0.768-7.092-0.111-10.572c0.662-3.491,1.883-6.85,3.395-10.049l0.71-1.501l-0.146,1.658
					c-0.392,4.449,0.541,8.964,2.429,13c1.902,4.04,4.719,7.627,8.155,10.474c6.905,5.724,15.77,8.698,24.65,9.571
					c4.457,0.436,8.968,0.322,13.396-0.335c4.43-0.665,8.764-1.886,12.974-3.446c8.423-3.147,16.355-7.497,24.423-11.573
					c8.069-4.046,16.446-7.792,25.41-9.498c4.469-0.821,9.059-1.13,13.594-0.641c4.522,0.498,9.006,1.798,12.939,4.145
					c3.955,2.333,7.117,5.796,9.595,9.588c2.489,3.805,4.413,7.96,5.769,12.29c0.651,2.173,1.19,4.38,1.529,6.622
					c0.32,2.243,0.504,4.508,0.459,6.774c-0.067,2.264-0.313,4.521-0.797,6.733C431.815,124.845,431.077,126.991,430.122,129.039z"
					/>
			</g>
			<g>
				<g>
					<g>
						<path style="fill:#D78F64;" d="M256.357,170.973c-3.048,8.411-2.136,18.161,2.435,26.081c1.431,2.479,3.26,4.834,5.74,6.355
							c5.595,3.43,13.301,1.624,17.934-2.749c4.635-4.375,6.734-10.7,7.836-16.922c1.426-8.041,0.941-17.515-5.506-22.979
							C274.403,151.95,260.132,160.556,256.357,170.973z"/>
						<path style="fill:#D78F64;" d="M275.022,200.202c-2.142-2.063-3.685-4.701-4.395-7.523c-0.143-0.567-0.252-1.17-0.067-1.718
							c0.353-1.047,1.594-1.488,2.688-1.798c2.212-0.626,4.425-1.251,6.636-1.878c0.443-0.126,0.904-0.262,1.221-0.582
							c0.348-0.353,0.456-0.863,0.55-1.345c1.194-6.144,2.308-12.857-0.775-18.454c-0.832-1.511-1.989-2.911-3.531-3.753
							c-2.291-1.249-5.151-1.096-7.549-0.173c-2.398,0.923-4.426,2.53-6.377,4.15c0,0-7.328,10.665-2.785,21.76
							C265.179,199.984,275.022,200.202,275.022,200.202z"/>
					</g>
					<g>
						<path style="fill:#25232D;" d="M263.422,167.128c1.804-1.925,3.796-3.778,6.368-4.931c1.291-0.555,2.696-0.888,4.158-0.923
							c1.457-0.039,2.984,0.306,4.335,1.063c1.345,0.757,2.423,1.862,3.24,3.072c0.821,1.212,1.436,2.511,1.895,3.875
							c0.909,2.737,1.045,5.604,0.892,8.338c-0.199,2.747-0.705,5.393-1.245,7.986c-0.077,0.329-0.156,0.758-0.403,1.273
							c-0.218,0.514-0.799,1.097-1.292,1.316c-0.493,0.246-0.897,0.331-1.207,0.413l-0.957,0.243
							c-1.274,0.332-2.556,0.639-3.84,0.936l-1.918,0.451c-0.599,0.14-1.147,0.315-1.531,0.535c-0.383,0.243-0.54,0.414-0.585,0.855
							c-0.038,0.44,0.123,1.112,0.259,1.713c0.564,2.456,1.776,4.791,3.433,6.858c-2.13-1.59-3.815-3.842-4.846-6.408
							c-0.238-0.656-0.5-1.252-0.58-2.134c-0.035-0.429,0.039-0.954,0.264-1.404c0.219-0.456,0.557-0.822,0.901-1.089
							c0.696-0.544,1.419-0.792,2.078-1.021l1.882-0.625c1.249-0.42,2.501-0.83,3.761-1.214c0.578-0.19,1.417-0.415,1.593-0.541
							c0.095-0.079-0.003,0.007,0.047-0.083c0.034-0.083,0.084-0.307,0.134-0.622c0.45-2.575,0.908-5.121,1.04-7.635
							c0.197-2.507,0.07-4.994-0.603-7.296c-0.631-2.3-1.85-4.52-3.643-5.793c-1.799-1.243-4.4-1.422-6.762-0.751
							C267.874,164.23,265.648,165.704,263.422,167.128z"/>
					</g>
				</g>
			</g>
			<path style="fill:#25232D;" d="M301.564,284.813c-4.894-4.144-8.174-9.862-10.912-15.66
				c-7.696-16.293-11.883-34.232-12.194-52.248c-0.356,14.168-0.681,29.582,1.982,43.502c2.663,13.92,7.696,27.545,16.021,39.014"/>
			<g>
				<path style="fill:#25232D;" d="M360.532,206.603c1.323,1.636,2.746,3.129,4.383,4.328c0.8,0.616,1.631,1.178,2.495,1.672
					c0.851,0.51,1.727,0.967,2.63,1.347c1.816,0.791,3.766,0.954,5.53,1.645l2.727,0.992c0.932,0.317,1.882,0.621,3.019,0.941
					l0.102,0.398c-0.899,0.84-2.064,1.31-3.229,1.55c-1.175,0.254-2.363,0.273-3.504,0.133c-1.155-0.112-2.262-0.487-3.294-0.994
					c-1.015-0.553-1.99-1.148-2.927-1.779c-1.902-1.216-3.571-2.74-4.984-4.433c-1.382-1.721-2.533-3.599-3.307-5.599
					L360.532,206.603z"/>
			</g>
			<g>
				<path style="fill:#25232D;" d="M374.013,216.461c2.345-5.688,4.967-11.244,7.85-16.64c-2.262,5.685-4.234,11.467-5.909,17.316
					L374.013,216.461z"/>
			</g>
			<g>
				<path style="fill:#25232D;" d="M348.323,191.99c2.455-3.514,5.758-6.495,9.534-8.787c1.898-1.13,3.917-2.089,6.028-2.85
					c2.118-0.731,4.323-1.264,6.579-1.569c2.254-0.298,4.55-0.484,6.861-0.408c2.308,0.088,4.601,0.576,6.732,1.462
					c4.234,1.776,8.075,4.693,10.246,8.759l-0.397,0.472c-4.276-1.359-7.969-2.549-11.747-3.363l-5.584-1.27
					c-1.868-0.442-3.802-0.743-5.749-0.731c-1.944,0.004-3.907,0.207-5.847,0.601c-1.948,0.364-3.879,0.921-5.754,1.661
					c-3.769,1.448-7.315,3.634-10.441,6.433L348.323,191.99z"/>
			</g>
			<path style="fill:#D82E00;" d="M351.012,266.277c0,0,2.248-1.08,9.863-1.625c7.615-0.545,11.435,0.82,11.435,0.82
				s-7.74,13.075-10.083,14.718C359.883,281.835,351.012,266.277,351.012,266.277z"/>
			<g>
				<path style="fill:#25232D;" d="M345.666,258.927c1.215,1.921,2.359,3.913,3.868,5.368c0.367,0.367,0.772,0.665,1.181,0.888
					c0.204,0.119,0.412,0.185,0.615,0.272l0.804,0.261c1.076,0.336,2.138,0.714,3.201,1.094c2.124,0.762,4.233,1.604,6.289,2.623
					c1.024,0.515,2.034,1.089,2.985,1.762c0.938,0.683,1.85,1.459,2.487,2.428c-1.938-1.228-4.022-1.897-6.124-2.653
					c-2.106-0.731-4.236-1.447-6.342-2.26c-1.053-0.406-2.108-0.812-3.143-1.272l-0.78-0.335c-0.312-0.145-0.625-0.301-0.887-0.502
					c-0.539-0.387-0.995-0.837-1.373-1.317C346.955,263.339,346.209,261.141,345.666,258.927z"/>
			</g>
			<g>
				<path style="fill:#25232D;" d="M377.458,251.996c-1.476,0.018-2.921-0.132-4.357-0.329c-0.72-0.09-1.431-0.227-2.144-0.35
					c-0.71-0.14-1.421-0.281-2.125-0.454l-0.368-0.09l0-0.33c0.001-1.394,0.41-2.787,1.23-3.86
					c-0.335,1.299-0.468,2.573-0.331,3.813l-0.368-0.42c0.72,0.09,1.434,0.211,2.147,0.334c0.711,0.139,1.424,0.265,2.128,0.438
					C374.683,251.077,376.086,251.452,377.458,251.996z"/>
			</g>
			<g>
				<path style="fill:#FFC200;" d="M186.95,396.381c4.886,13.013,7.926,26.726,13.112,39.613
					c5.187,12.888,12.955,25.302,24.646,32.225c11.87,7.029,26.136,7.551,39.727,9.054c13.59,1.503,28.128,4.752,37.204,15.354
					c2.603-8.743,11.918-12.125,20.454-14.425c8.537-2.299,17.823-3.537,24.581-9.416c9.763-8.493,10.839-23.514,10.104-36.71
					c-1.657-29.752-8.757-59.155-20.719-86.246c-5.055-2.895-9.97-5.719-14.539-8.417c17.386,34.791,22.027,71.769,22.492,111.658
					c-17.015,1.063-33.544,8.026-44.866,20.772c-18.334-14.534-42.96-23.807-66.338-22.892
					c-8.538-20.666-17.914-41.121-30.424-59.655c-11.422-16.921-25.614-32.251-42.751-43.269c-2.148,1.806-4.26,3.568-6.332,5.287
					C168.928,360.579,180.015,377.911,186.95,396.381z"/>
				<path style="fill:#D82E00;" d="M397.761,389.267c-5.829-11.659-35.645-28.514-61.701-43.438
					c11.962,27.091,19.062,56.494,20.719,86.246c0.735,13.196-0.342,28.217-10.104,36.71c-6.758,5.879-16.045,7.117-24.581,9.416
					c-8.537,2.299-17.852,5.682-20.454,14.425c-9.076-10.602-23.614-13.851-37.204-15.354c-13.59-1.503-27.857-2.025-39.727-9.054
					c-11.691-6.922-19.459-19.337-24.646-32.225c-5.187-12.888-8.226-26.6-13.112-39.613c-6.935-18.47-18.022-35.801-33.649-47.067
					c-18.215,15.112-33.113,26.742-37.743,32.649C96.302,406.531,88.334,500,88.334,500h328.019
					C416.353,500,408.385,410.515,397.761,389.267z"/>
			</g>
			<g>
				<g>
					<path style="fill:#FFC200;" d="M153.505,360.639c3.307,0,3.312-5.139,0-5.139C150.199,355.501,150.193,360.639,153.505,360.639
						L153.505,360.639z"/>
				</g>
			</g>
			<g>
				<g>
					<path style="fill:#FFC200;" d="M161.012,366.44c3.307,0,3.312-5.139,0-5.139C157.705,361.301,157.699,366.44,161.012,366.44
						L161.012,366.44z"/>
				</g>
			</g>
			<g>
				<g>
					<path style="fill:#FFC200;" d="M167.153,374.288c3.306,0,3.312-5.139,0-5.139C163.847,369.149,163.841,374.288,167.153,374.288
						L167.153,374.288z"/>
				</g>
			</g>
			<g>
				<g>
					<path style="fill:#FFC200;" d="M171.589,381.794c3.307,0,3.312-5.139,0-5.139C168.282,376.655,168.277,381.794,171.589,381.794
						L171.589,381.794z"/>
				</g>
			</g>
			<g>
				<g>
					<path style="fill:#FFC200;" d="M177.389,392.03c3.307,0,3.312-5.139,0-5.139C174.083,386.892,174.077,392.03,177.389,392.03
						L177.389,392.03z"/>
				</g>
			</g>
			<g>
				<g>
					<path style="fill:#FFC200;" d="M181.484,401.584c3.307,0,3.312-5.139,0-5.139C178.177,396.445,178.172,401.584,181.484,401.584
						L181.484,401.584z"/>
				</g>
			</g>
			<g>
				<g>
					<path style="fill:#FFC200;" d="M185.92,412.503c3.307,0,3.312-5.139,0-5.139C182.613,407.364,182.608,412.503,185.92,412.503
						L185.92,412.503z"/>
				</g>
			</g>
			<g>
				<g>
					<path style="fill:#FFC200;" d="M188.649,422.739c3.307,0,3.312-5.139,0-5.139C185.343,417.6,185.337,422.739,188.649,422.739
						L188.649,422.739z"/>
				</g>
			</g>
			<g>
				<g>
					<path style="fill:#FFC200;" d="M191.038,433.999c3.307,0,3.312-5.139,0-5.139C187.731,428.86,187.726,433.999,191.038,433.999
						L191.038,433.999z"/>
				</g>
			</g>
			<g>
				<g>
					<path style="fill:#FFC200;" d="M194.791,442.87c3.307,0,3.312-5.139,0-5.139C191.484,437.732,191.479,442.87,194.791,442.87
						L194.791,442.87z"/>
				</g>
			</g>
			<g>
				<g>
					<path style="fill:#FFC200;" d="M198.885,452.424c3.307,0,3.312-5.139,0-5.139C195.579,447.285,195.574,452.424,198.885,452.424
						L198.885,452.424z"/>
				</g>
			</g>
			<g>
				<g>
					<path style="fill:#FFC200;" d="M204.004,459.589c3.307,0,3.312-5.139,0-5.139C200.697,454.451,200.692,459.589,204.004,459.589
						L204.004,459.589z"/>
				</g>
			</g>
			<g>
				<g>
					<path style="fill:#FFC200;" d="M210.828,468.802c3.307,0,3.312-5.139,0-5.139C207.521,463.663,207.516,468.802,210.828,468.802
						L210.828,468.802z"/>
				</g>
			</g>
			<g>
				<g>
					<path style="fill:#FFC200;" d="M216.628,474.944c3.306,0,3.312-5.139,0-5.139C213.322,469.805,213.316,474.944,216.628,474.944
						L216.628,474.944z"/>
				</g>
			</g>
			<g>
				<g>
					<path style="fill:#FFC200;" d="M224.817,479.038c3.306,0,3.312-5.139,0-5.139C221.511,473.899,221.505,479.038,224.817,479.038
						L224.817,479.038z"/>
				</g>
			</g>
			<g>
				<g>
					<path style="fill:#FFC200;" d="M233.689,481.768c3.307,0,3.312-5.139,0-5.139C230.382,476.629,230.377,481.768,233.689,481.768
						L233.689,481.768z"/>
				</g>
			</g>
			<g>
				<g>
					<path style="fill:#FFC200;" d="M240.854,483.133c3.307,0,3.312-5.139,0-5.139C237.547,477.994,237.542,483.133,240.854,483.133
						L240.854,483.133z"/>
				</g>
			</g>
			<g>
				<g>
					<path style="fill:#FFC200;" d="M252.114,484.156c3.307,0,3.312-5.139,0-5.139C248.807,479.017,248.802,484.156,252.114,484.156
						L252.114,484.156z"/>
				</g>
			</g>
			<g>
				<g>
					<path style="fill:#FFC200;" d="M263.032,486.545c3.307,0,3.312-5.139,0-5.139C259.726,481.406,259.72,486.545,263.032,486.545
						L263.032,486.545z"/>
				</g>
			</g>
			<g>
				<g>
					<path style="fill:#FFC200;" d="M271.221,487.227c3.306,0,3.312-5.139,0-5.139C267.915,482.088,267.909,487.227,271.221,487.227
						L271.221,487.227z"/>
				</g>
			</g>
			<g>
				<g>
					<path style="fill:#FFC200;" d="M280.434,489.616c3.306,0,3.312-5.139,0-5.139C277.127,484.477,277.122,489.616,280.434,489.616
						L280.434,489.616z"/>
				</g>
			</g>
			<g>
				<g>
					<path style="fill:#FFC200;" d="M288.282,493.369c3.307,0,3.312-5.139,0-5.139C284.975,488.23,284.97,493.369,288.282,493.369
						L288.282,493.369z"/>
				</g>
			</g>
			<g>
				<g>
					<path style="fill:#FFC200;" d="M295.447,497.463c3.307,0,3.312-5.139,0-5.139C292.141,492.325,292.135,497.463,295.447,497.463
						L295.447,497.463z"/>
				</g>
			</g>
			<g>
				<g>
					<path style="fill:#FFC200;" d="M307.048,497.463c3.307,0,3.312-5.139,0-5.139C303.742,492.325,303.736,497.463,307.048,497.463
						L307.048,497.463z"/>
				</g>
			</g>
			<g>
				<g>
					<path style="fill:#FFC200;" d="M312.507,490.639c3.307,0,3.312-5.139,0-5.139C309.201,485.5,309.195,490.639,312.507,490.639
						L312.507,490.639z"/>
				</g>
			</g>
			<g>
				<g>
					<path style="fill:#FFC200;" d="M320.014,487.909c3.307,0,3.312-5.139,0-5.139C316.707,482.771,316.702,487.909,320.014,487.909
						L320.014,487.909z"/>
				</g>
			</g>
			<g>
				<g>
					<path style="fill:#FFC200;" d="M326.838,486.203c3.307,0,3.312-5.139,0-5.139C323.532,481.065,323.526,486.203,326.838,486.203
						L326.838,486.203z"/>
				</g>
			</g>
			<g>
				<g>
					<path style="fill:#FFC200;" d="M334.686,484.156c3.307,0,3.312-5.139,0-5.139C331.379,479.017,331.374,484.156,334.686,484.156
						L334.686,484.156z"/>
				</g>
			</g>
			<g>
				<g>
					<path style="fill:#FFC200;" d="M343.899,481.085c3.306,0,3.312-5.139,0-5.139C340.592,475.947,340.586,481.085,343.899,481.085
						L343.899,481.085z"/>
				</g>
			</g>
			<g>
				<g>
					<path style="fill:#FFC200;" d="M350.723,476.309c3.306,0,3.312-5.139,0-5.139C347.416,471.17,347.411,476.309,350.723,476.309
						L350.723,476.309z"/>
				</g>
			</g>
			<g>
				<g>
					<path style="fill:#FFC200;" d="M356.182,469.484c3.306,0,3.312-5.139,0-5.139C352.875,464.346,352.87,469.484,356.182,469.484
						L356.182,469.484z"/>
				</g>
			</g>
			<g>
				<g>
					<path style="fill:#FFC200;" d="M361.3,456.86c3.306,0,3.312-5.139,0-5.139C357.994,451.721,357.988,456.86,361.3,456.86
						L361.3,456.86z"/>
				</g>
			</g>
			<g>
				<g>
					<path style="fill:#FFC200;" d="M362.324,447.306c3.307,0,3.312-5.139,0-5.139C359.017,442.167,359.012,447.306,362.324,447.306
						L362.324,447.306z"/>
				</g>
			</g>
			<g>
				<g>
					<path style="fill:#FFC200;" d="M363.689,437.07c3.307,0,3.312-5.139,0-5.139C360.382,431.931,360.376,437.07,363.689,437.07
						L363.689,437.07z"/>
				</g>
			</g>
			<g>
				<g>
					<path style="fill:#FFC200;" d="M361.641,425.81c3.307,0,3.312-5.139,0-5.139C358.335,420.671,358.329,425.81,361.641,425.81
						L361.641,425.81z"/>
				</g>
			</g>
			<g>
				<g>
					<path style="fill:#FFC200;" d="M360.618,416.939c3.306,0,3.312-5.139,0-5.139C357.311,411.8,357.306,416.939,360.618,416.939
						L360.618,416.939z"/>
				</g>
			</g>
			<g>
				<g>
					<path style="fill:#FFC200;" d="M358.229,406.02c3.307,0,3.312-5.139,0-5.139C354.923,400.881,354.917,406.02,358.229,406.02
						L358.229,406.02z"/>
				</g>
			</g>
			<g>
				<g>
					<path style="fill:#FFC200;" d="M357.206,396.466c3.307,0,3.312-5.139,0-5.139C353.899,391.327,353.894,396.466,357.206,396.466
						L357.206,396.466z"/>
				</g>
			</g>
			<g>
				<g>
					<path style="fill:#FFC200;" d="M355.158,385.889c3.306,0,3.312-5.139,0-5.139C351.852,380.75,351.846,385.889,355.158,385.889
						L355.158,385.889z"/>
				</g>
			</g>
			<g>
				<g>
					<path style="fill:#FFC200;" d="M353.111,377.358c3.307,0,3.312-5.139,0-5.139C349.805,372.22,349.799,377.358,353.111,377.358
						L353.111,377.358z"/>
				</g>
			</g>
			<g>
				<g>
					<path style="fill:#FFC200;" d="M350.381,369.169c3.307,0,3.312-5.139,0-5.139C347.075,364.031,347.069,369.169,350.381,369.169
						L350.381,369.169z"/>
				</g>
			</g>
			<g>
				<g>
					<path style="fill:#FFC200;" d="M346.969,360.981c3.307,0,3.312-5.139,0-5.139C343.663,355.842,343.657,360.981,346.969,360.981
						L346.969,360.981z"/>
				</g>
			</g>
			<path style="fill:#25232D;" d="M193.343,499.953c-2.804-39.171-18.377-77.602-43.784-107.548
				c8.847,6.962,16.896,17.92,22.559,27.65c14.402,24.743,24.736,51.847,30.462,79.898"/>
			<g>
				<path style="fill:#25232D;" d="M368.208,386.861c4.029,8.904,7.777,17.932,10.964,27.201c1.62,4.625,3.018,9.332,4.284,14.082
					c1.234,4.758,2.24,9.583,3.019,14.452c0.725,4.88,1.195,9.805,1.32,14.744c0.082,4.938-0.092,9.891-0.754,14.789
					c-1.25,9.783-4.163,19.44-9.156,27.871c3.834-9,5.977-18.523,6.764-28.124c0.363-4.804,0.478-9.626,0.229-14.437
					c-0.208-4.811-0.689-9.613-1.447-14.374c-0.704-4.774-1.681-9.511-2.799-14.22c-1.086-4.719-2.406-9.386-3.743-14.057
					C374.159,405.462,371.044,396.217,368.208,386.861z"/>
			</g>
			<g>
				<path style="fill:#FFFFFF;" d="M228.056,184.937c0.144,1.048,0.279,2.093,0.401,3.138l0.574,3.102l0.719,3.065l0.898,3.013
					c1.306,3.979,2.993,7.834,5.137,11.426c2.073,3.634,4.594,7.002,7.415,10.097l2.18,2.266l2.313,2.135l2.417,2.028
					c0.849,0.621,1.692,1.253,2.533,1.895c-0.901-0.548-1.8-1.106-2.693-1.675l-2.577-1.86l-2.435-2.049l-2.31-2.195
					c-2.986-3.03-5.55-6.467-7.729-10.124c-2.107-3.698-3.839-7.621-5.002-11.713l-0.774-3.091l-0.584-3.128l-0.35-3.159
					C228.133,187.048,228.09,185.991,228.056,184.937z"/>
			</g>
			<g>
				<path style="fill:#FFFFFF;" d="M196.001,208.479c-0.582,3.039-0.975,6.109-1.074,9.189c-0.132,3.076-0.014,6.161,0.383,9.205
					c0.779,6.082,2.583,12.056,5.63,17.367c2.971,5.342,7.211,9.958,12.212,13.489c4.998,3.531,10.854,5.923,17.005,6.66
					c-3.095-0.147-6.165-0.806-9.11-1.815c-2.937-1.041-5.739-2.466-8.342-4.193c-5.201-3.47-9.545-8.203-12.66-13.637
					c-3.043-5.475-4.895-11.58-5.518-17.781C193.902,220.759,194.406,214.462,196.001,208.479z"/>
			</g>
			<g>
				<path style="fill:#FFFFFF;" d="M201.114,207.378c0.508,2.403,1.185,4.762,2.105,7.024c0.888,2.272,1.978,4.46,3.26,6.526
					c2.55,4.134,5.781,7.857,9.633,10.801c3.801,3.009,8.201,5.231,12.835,6.686c2.317,0.735,4.706,1.256,7.126,1.559
					c2.418,0.337,4.872,0.415,7.326,0.318c-2.436,0.329-4.914,0.353-7.378,0.183c-2.462-0.205-4.908-0.645-7.298-1.302
					c-4.779-1.327-9.293-3.611-13.241-6.634c-3.898-3.088-7.223-6.901-9.679-11.21c-1.223-2.156-2.251-4.419-3.053-6.756
					C201.978,212.228,201.394,209.82,201.114,207.378z"/>
			</g>
			<g>
				<path style="fill:#FFC200;" d="M265.883,211.178c6.226-0.003,12.483,1.983,17.81,5.991c2.646,2.01,5.066,4.522,7.003,7.53
					c1.937,3.001,3.384,6.503,4.099,10.279c0.708,3.768,0.664,7.855-0.301,11.854c-0.963,3.994-2.823,7.894-5.52,11.237
					c-2.688,3.346-6.189,6.144-10.187,8.052c-3.991,1.915-8.469,2.928-12.904,2.933c-4.435-0.001-8.917-0.994-12.916-2.904
					c-4.005-1.9-7.517-4.695-10.213-8.042c-2.703-3.346-4.578-7.248-5.537-11.252c-0.972-4.006-1.011-8.103-0.3-11.877
					c0.72-3.783,2.173-7.291,4.12-10.293c1.941-3.012,4.373-5.521,7.024-7.529C253.399,213.152,259.658,211.176,265.883,211.178z
					 M265.883,211.178c-3.116,0.01-6.228,0.744-8.972,2.139c-2.749,1.387-5.119,3.422-6.864,5.825
					c-1.753,2.401-2.852,5.169-3.292,7.914c-0.443,2.753-0.215,5.473,0.494,7.922c1.453,4.949,4.715,8.431,8.105,10.529
					c3.46,2.106,6.967,2.962,10.529,2.996c3.561-0.015,7.091-0.846,10.568-2.958c3.408-2.101,6.674-5.605,8.121-10.568
					c0.704-2.456,0.926-5.182,0.473-7.936c-0.445-2.749-1.555-5.514-3.313-7.913c-1.75-2.4-4.125-4.432-6.875-5.816
					C272.11,211.921,268.999,211.188,265.883,211.178z"/>
				<g>
					<g>
						<path style="fill:#FFC200;" d="M231.486,233.382c3.306,0,3.312-5.139,0-5.139C228.18,228.243,228.174,233.382,231.486,233.382
							L231.486,233.382z"/>
					</g>
				</g>
				<g>
					<g>
						<path style="fill:#FFC200;" d="M230.219,240.227c3.307,0,3.312-5.139,0-5.139
							C226.912,235.088,226.907,240.227,230.219,240.227L230.219,240.227z"/>
					</g>
				</g>
				<g>
					<g>
						<path style="fill:#FFC200;" d="M230.726,247.832c3.307,0,3.312-5.139,0-5.139
							C227.419,242.693,227.414,247.832,230.726,247.832L230.726,247.832z"/>
					</g>
				</g>
				<g>
					<g>
						<path style="fill:#FFC200;" d="M233.261,254.677c3.307,0,3.312-5.139,0-5.139
							C229.954,249.538,229.949,254.677,233.261,254.677L233.261,254.677z"/>
					</g>
				</g>
				<g>
					<g>
						<path style="fill:#FFC200;" d="M237.063,262.282c3.307,0,3.312-5.139,0-5.139
							C233.757,257.143,233.751,262.282,237.063,262.282L237.063,262.282z"/>
					</g>
				</g>
				<g>
					<g>
						<path style="fill:#FFC200;" d="M241.627,267.606c3.307,0,3.312-5.139,0-5.139C238.32,262.467,238.315,267.606,241.627,267.606
							L241.627,267.606z"/>
					</g>
				</g>
				<g>
					<g>
						<path style="fill:#FFC200;" d="M246.443,271.408c3.306,0,3.312-5.139,0-5.139C243.137,266.27,243.131,271.408,246.443,271.408
							L246.443,271.408z"/>
					</g>
				</g>
				<g>
					<g>
						<path style="fill:#FFC200;" d="M252.781,274.197c3.307,0,3.312-5.139,0-5.139
							C249.474,269.058,249.469,274.197,252.781,274.197L252.781,274.197z"/>
					</g>
				</g>
				<g>
					<g>
						<path style="fill:#FFC200;" d="M259.626,275.464c3.307,0,3.312-5.139,0-5.139
							C256.319,270.326,256.314,275.464,259.626,275.464L259.626,275.464z"/>
					</g>
				</g>
				<g>
					<g>
						<path style="fill:#FFC200;" d="M265.964,276.225c3.306,0,3.312-5.139,0-5.139
							C262.657,271.086,262.651,276.225,265.964,276.225L265.964,276.225z"/>
					</g>
				</g>
				<g>
					<g>
						<path style="fill:#FFC200;" d="M272.048,275.971c3.306,0,3.312-5.139,0-5.139
							C268.741,270.833,268.736,275.971,272.048,275.971L272.048,275.971z"/>
					</g>
				</g>
				<g>
					<g>
						<path style="fill:#FFC200;" d="M278.132,274.45c3.306,0,3.312-5.139,0-5.139C274.825,269.312,274.82,274.45,278.132,274.45
							L278.132,274.45z"/>
					</g>
				</g>
				<g>
					<g>
						<path style="fill:#FFC200;" d="M283.963,271.662c3.307,0,3.312-5.139,0-5.139
							C280.656,266.523,280.651,271.662,283.963,271.662L283.963,271.662z"/>
					</g>
				</g>
				<g>
					<g>
						<path style="fill:#FFC200;" d="M289.033,267.859c3.307,0,3.312-5.139,0-5.139C285.726,262.72,285.721,267.859,289.033,267.859
							L289.033,267.859z"/>
					</g>
				</g>
				<g>
					<g>
						<path style="fill:#FFC200;" d="M294.103,262.028c3.307,0,3.312-5.139,0-5.139C290.796,256.89,290.791,262.028,294.103,262.028
							L294.103,262.028z"/>
					</g>
				</g>
				<path style="fill:#E99911;" d="M265.883,211.178c6.236-0.02,12.453,2.34,17.176,6.624c4.723,4.25,7.94,10.453,8.414,17.176
					c0.235,3.344-0.174,6.797-1.284,10.069c-1.111,3.269-2.913,6.346-5.287,8.949c-2.372,2.603-5.315,4.726-8.583,6.17
					c-3.267,1.451-6.857,2.189-10.435,2.207c-3.576-0.017-7.17-0.747-10.438-2.199c-3.272-1.438-6.219-3.562-8.592-6.166
					c-2.379-2.601-4.183-5.682-5.294-8.954c-1.114-3.274-1.518-6.731-1.283-10.077c0.476-6.728,3.702-12.931,8.428-17.18
					C253.429,213.516,259.647,211.158,265.883,211.178z M265.883,211.178c-6.247-0.023-12.411,2.744-16.479,7.321
					c-2.045,2.272-3.579,4.955-4.508,7.786c-0.927,2.836-1.241,5.81-1.006,8.692c0.485,5.79,3.307,11.031,7.365,14.628
					c4.069,3.618,9.324,5.584,14.628,5.577c5.303,0.01,10.566-1.944,14.64-5.564c4.063-3.597,6.89-8.845,7.371-14.641
					c0.233-2.884-0.081-5.861-1.013-8.697c-0.931-2.832-2.468-5.515-4.515-7.785C278.294,213.919,272.13,211.155,265.883,211.178z"
					/>
				
					<ellipse transform="matrix(0.7071 -0.7071 0.7071 0.7071 -69.6397 251.4298)" style="fill:#FFC200;" cx="268.683" cy="209.777" rx="8.75" ry="8.75"/>
				<path style="fill:#443186;" d="M274.559,209.777c0,3.245-2.631,5.876-5.876,5.876c-3.245,0-5.876-2.631-5.876-5.876
					c0-3.245,2.631-5.876,5.876-5.876C271.928,203.902,274.559,206.532,274.559,209.777z"/>
				<path style="fill:#FFFFFF;" d="M267.342,205.798c-0.556,0.534-0.995,1.091-1.333,1.692c-0.328,0.602-0.566,1.237-0.656,1.889
					c-0.108,0.65-0.069,1.326,0.065,1.998c0.143,0.673,0.396,1.336,0.766,2.012c-1.364-0.773-2.098-2.534-1.846-4.165
					C264.586,207.592,265.81,206.131,267.342,205.798z"/>
				<path style="fill:#FFFFFF;" d="M239.016,232.901c-0.192,1.705-0.293,3.411-0.177,5.11c0.076,1.697,0.294,3.384,0.652,5.039
					c0.715,3.306,1.816,6.543,3.354,9.54c1.525,3,3.564,5.745,6.148,7.898c2.59,2.145,5.714,3.657,9.05,4.451
					c-1.71-0.178-3.389-0.638-5.007-1.262c-1.606-0.658-3.128-1.528-4.532-2.567c-2.814-2.095-4.98-4.962-6.572-8.05
					c-1.567-3.11-2.667-6.439-3.215-9.867c-0.272-1.712-0.407-3.446-0.38-5.175C238.391,236.29,238.595,234.566,239.016,232.901z"/>
				<path style="fill:#FFFFFF;" d="M262.257,265.516c3.236,0.204,6.409,0.137,9.537-0.374c3.133-0.487,6.169-1.406,9.184-2.601
					c-2.631,1.917-5.791,3.091-9.022,3.615C268.721,266.657,265.353,266.521,262.257,265.516z"/>
				<g>
					<g>
						<path style="fill:#FFC200;" d="M297.906,255.944c3.307,0,3.312-5.139,0-5.139
							C294.599,250.805,294.594,255.944,297.906,255.944L297.906,255.944z"/>
					</g>
				</g>
				<g>
					<g>
						<path style="fill:#FFC200;" d="M300.187,248.592c3.307,0,3.312-5.139,0-5.139
							C296.881,243.454,296.875,248.592,300.187,248.592L300.187,248.592z"/>
					</g>
				</g>
			</g>
			<g>
				
					<ellipse transform="matrix(0.1598 -0.9871 0.9871 0.1598 -87.5171 462.8567)" style="fill:#443186;" cx="228.145" cy="282.84" rx="7.73" ry="7.729"/>
				<g>
					<path style="fill:#FFFFFF;" d="M222.995,285.623c-0.601-0.632-0.882-1.532-0.984-2.39c-0.113-0.868-0.039-1.771,0.22-2.634
						c0.274-0.854,0.755-1.674,1.446-2.264c0.67-0.598,1.549-0.985,2.415-0.967c-1.509,0.803-2.43,2.08-2.88,3.539
						c-0.238,0.728-0.348,1.505-0.402,2.299C222.766,284.003,222.779,284.793,222.995,285.623z"/>
				</g>
			</g>
			<g>
				<path style="fill:#443186;" d="M245.471,293.715c0,4.269-3.461,7.73-7.729,7.73c-4.269,0-7.73-3.461-7.73-7.73
					s3.461-7.729,7.73-7.729C242.01,285.986,245.471,289.446,245.471,293.715z"/>
				<g>
					<path style="fill:#FFFFFF;" d="M232.591,296.499c-0.601-0.632-0.882-1.532-0.984-2.39c-0.113-0.869-0.039-1.771,0.22-2.635
						c0.274-0.854,0.755-1.674,1.446-2.264c0.67-0.598,1.549-0.985,2.415-0.967c-1.509,0.803-2.43,2.08-2.88,3.539
						c-0.238,0.728-0.348,1.505-0.402,2.299C232.362,294.878,232.375,295.668,232.591,296.499z"/>
				</g>
			</g>
			<g>
				
					<ellipse transform="matrix(0.229 -0.9734 0.9734 0.229 -104.7461 477.1493)" style="fill:#443186;" cx="248.838" cy="304.698" rx="7.73" ry="7.73"/>
				<g>
					<path style="fill:#FFFFFF;" d="M243.687,307.481c-0.601-0.632-0.882-1.532-0.984-2.39c-0.113-0.869-0.039-1.771,0.22-2.634
						c0.274-0.854,0.755-1.674,1.446-2.264c0.67-0.598,1.549-0.985,2.415-0.967c-1.509,0.803-2.43,2.08-2.88,3.539
						c-0.238,0.728-0.348,1.504-0.402,2.299C243.458,305.86,243.471,306.651,243.687,307.481z"/>
				</g>
			</g>
			<g>
				
					<ellipse transform="matrix(0.7071 -0.7071 0.7071 0.7071 -144.798 276.4553)" style="fill:#443186;" cx="261.312" cy="313.014" rx="7.73" ry="7.73"/>
				<g>
					<path style="fill:#FFFFFF;" d="M256.162,315.798c-0.601-0.632-0.882-1.532-0.984-2.39c-0.113-0.869-0.039-1.771,0.22-2.634
						c0.275-0.854,0.755-1.674,1.446-2.264c0.67-0.598,1.549-0.985,2.415-0.967c-1.509,0.803-2.43,2.08-2.88,3.539
						c-0.238,0.728-0.348,1.504-0.402,2.299C255.933,314.177,255.946,314.967,256.162,315.798z"/>
				</g>
			</g>
			<g>
				<circle style="fill:#443186;" cx="275.386" cy="316.213" r="7.73"/>
				<g>
					<path style="fill:#FFFFFF;" d="M270.236,318.996c-0.601-0.632-0.882-1.532-0.984-2.39c-0.113-0.869-0.039-1.771,0.22-2.634
						c0.275-0.854,0.755-1.674,1.446-2.264c0.671-0.598,1.549-0.985,2.415-0.967c-1.509,0.803-2.43,2.08-2.88,3.539
						c-0.238,0.727-0.348,1.505-0.402,2.299C270.007,317.375,270.02,318.165,270.236,318.996z"/>
				</g>
			</g>
			<g>
				
					<ellipse transform="matrix(0.8951 -0.4458 0.4458 0.8951 -109.5211 162.4134)" style="fill:#443186;" cx="290.42" cy="313.974" rx="7.729" ry="7.73"/>
				<g>
					<path style="fill:#FFFFFF;" d="M285.269,316.757c-0.601-0.632-0.882-1.532-0.984-2.39c-0.113-0.869-0.039-1.771,0.22-2.635
						c0.275-0.854,0.755-1.674,1.446-2.264c0.67-0.598,1.549-0.985,2.414-0.967c-1.509,0.804-2.43,2.08-2.88,3.539
						c-0.238,0.728-0.348,1.505-0.402,2.299C285.04,315.136,285.053,315.927,285.269,316.757z"/>
				</g>
			</g>
			<path style="fill:#25232D;" d="M213.013,291.903c8.734,23.541,17.265,47.042,26.448,70.204
				c4.605,11.569,9.349,23.062,14.523,34.282c2.594,5.605,5.268,11.152,8.166,16.532c2.885,5.373,5.932,10.646,9.389,15.412
				c1.711,2.384,3.518,4.657,5.442,6.603c0.479,0.491,0.962,0.966,1.458,1.386c0.487,0.461,0.986,0.838,1.481,1.219
				c0.493,0.408,0.991,0.665,1.478,1.008c0.481,0.227,0.97,0.552,1.415,0.691c0.463,0.23,0.874,0.29,1.286,0.428
				c0.385,0.023,0.742,0.123,1.197,0.08c0.858-0.028,1.614-0.21,2.389-0.587c1.537-0.782,3.147-2.524,4.476-4.764
				c1.337-2.236,2.45-4.853,3.352-7.606c0.903-2.756,1.668-5.633,2.315-8.565c1.273-5.874,2.157-11.942,2.829-18.056
				c1.349-12.241,1.901-24.68,2.247-37.141c0.375-12.472,0.336-24.978,0.31-37.539c2.304,12.362,3.692,24.861,4.735,37.41
				c0.95,12.557,1.363,25.185,0.765,37.905c-0.311,6.36-0.875,12.745-1.991,19.16c-0.557,3.208-1.239,6.428-2.197,9.648
				c-0.949,3.219-2.154,6.457-3.921,9.659c-0.899,1.596-1.923,3.192-3.289,4.69c-1.345,1.491-2.954,2.933-4.965,4.008
				c-1.999,1.076-4.331,1.719-6.594,1.827c-1.111,0.092-2.309-0.035-3.477-0.189c-1.104-0.247-2.228-0.51-3.198-0.928
				c-1.045-0.359-1.889-0.874-2.809-1.342c-0.813-0.525-1.691-1.032-2.416-1.608c-0.753-0.564-1.497-1.137-2.156-1.744
				c-0.7-0.592-1.337-1.209-1.956-1.833c-2.489-2.493-4.6-5.128-6.544-7.817c-7.627-10.826-13.063-22.359-18.105-34.002
				c-4.966-11.667-9.284-23.524-13.208-35.487c-3.908-11.967-7.443-24.032-10.604-36.19
				C218.185,316.483,215.236,304.276,213.013,291.903z"/>
			<path style="fill:#25232D;" d="M280.125,412.443c-3.252,0-6.747-1.754-10.395-5.22c-24.725-23.49-52.821-119.102-52.821-119.798
				h3.083h-1.542l1.518-0.263c0.248,1.162,9.469,32.201,21.932,63.129c8.925,22.143,25.686,59.069,38.203,59.069
				c0.107,0,0.214-0.003,0.321-0.008c2.547-0.13,4.764-1.311,6.78-3.608c14.856-16.938,9.728-83.619,9.674-84.29l3.073-0.245
				c0.014,0.171,1.352,17.256,0.775,36.275c-0.782,25.787-4.552,42.709-11.205,50.294c-2.556,2.916-5.564,4.481-8.939,4.654
				C280.431,412.439,280.277,412.443,280.125,412.443z"/>
			<path style="fill:#FFC200;" d="M214.28,290.636c8.734,23.541,17.265,47.042,26.448,70.204
				c4.605,11.568,9.349,23.062,14.523,34.282c2.594,5.605,5.268,11.152,8.166,16.532c2.885,5.373,5.932,10.646,9.389,15.412
				c1.711,2.385,3.518,4.657,5.442,6.603c0.479,0.491,0.962,0.966,1.458,1.385c0.487,0.461,0.986,0.838,1.481,1.219
				c0.493,0.409,0.991,0.665,1.478,1.008c0.481,0.227,0.971,0.552,1.415,0.69c0.463,0.23,0.874,0.29,1.287,0.428
				c0.385,0.023,0.742,0.123,1.198,0.08c0.858-0.028,1.614-0.21,2.389-0.587c1.537-0.782,3.147-2.524,4.476-4.764
				c1.337-2.236,2.449-4.853,3.352-7.606c0.903-2.756,1.668-5.633,2.314-8.565c1.273-5.874,2.157-11.942,2.829-18.056
				c1.349-12.241,1.901-24.68,2.247-37.141c0.376-12.472,0.336-24.978,0.31-37.539c2.304,12.362,3.692,24.861,4.735,37.41
				c0.95,12.557,1.363,25.185,0.765,37.905c-0.311,6.36-0.875,12.745-1.991,19.16c-0.557,3.208-1.239,6.428-2.197,9.648
				c-0.949,3.219-2.154,6.457-3.922,9.659c-0.9,1.596-1.923,3.192-3.289,4.69c-1.345,1.491-2.954,2.933-4.965,4.008
				c-1.999,1.076-4.331,1.719-6.594,1.827c-1.111,0.092-2.309-0.035-3.477-0.189c-1.104-0.247-2.229-0.51-3.198-0.928
				c-1.045-0.359-1.889-0.874-2.809-1.342c-0.813-0.525-1.691-1.032-2.416-1.608c-0.753-0.565-1.497-1.137-2.156-1.744
				c-0.7-0.592-1.337-1.209-1.956-1.833c-2.489-2.493-4.6-5.127-6.544-7.817c-7.627-10.826-13.063-22.359-18.105-34.002
				c-4.966-11.667-9.284-23.524-13.207-35.487c-3.908-11.967-7.443-24.032-10.604-36.19
				C219.452,315.216,216.503,303.009,214.28,290.636z"/>
			<path style="fill:#FFC200;" d="M281.392,411.176c-3.252,0-6.747-1.754-10.395-5.22c-24.725-23.49-52.821-119.102-52.821-119.798
				h3.083h-1.542l1.518-0.263c0.248,1.162,9.469,32.202,21.932,63.129c8.924,22.143,25.686,59.068,38.203,59.068
				c0.107,0,0.214-0.003,0.321-0.008c2.547-0.13,4.764-1.311,6.78-3.608c14.856-16.938,9.727-83.619,9.674-84.29l3.073-0.245
				c0.014,0.171,1.352,17.256,0.775,36.275c-0.782,25.787-4.552,42.709-11.205,50.293c-2.556,2.916-5.564,4.481-8.939,4.654
				C281.698,411.172,281.545,411.176,281.392,411.176z"/>
			<path style="fill:none;stroke:#A42E00;stroke-width:1.0278;stroke-miterlimit:10;" d="M331.461,343.175
				c11.873,27.366,19.168,56.881,19.743,86.706c0.217,11.255-1.128,23.84-9.655,31.19c-6.325,5.451-15.107,6.684-23.147,8.94
				c-8.04,2.255-17.815,5.473-19.914,13.555c-9.283-12.028-25.03-17.102-40.097-19.056c-6.732-0.873-13.619-1.28-19.99-3.623
				c-10.074-3.706-17.917-11.975-23.385-21.212c-5.467-9.237-8.866-19.518-12.587-29.586c-4.685-12.678-9.98-25.222-17.347-36.554
				c-7.367-11.332-16.927-21.465-28.746-28.021"/>
			<path style="opacity:0.5;fill:#D78F64;" d="M360.754,237.656c-1.953,4.336-9.268,5.27-16.338,2.086
				c-7.07-3.184-11.218-9.281-9.265-13.617c1.953-4.336,9.268-5.27,16.338-2.086C358.559,227.223,362.707,233.32,360.754,237.656z"
				/>
			<g>
				<path style="fill:#FFC200;" d="M419.079,164.915c-2.837,9.13-9.852,15.065-15.667,13.258s-8.23-10.673-5.392-19.803
					c2.837-9.13,9.852-15.065,15.667-13.258C419.502,146.92,421.916,155.786,419.079,164.915z"/>
				<path style="fill:#443186;" d="M417.967,163.817c-2.188,7.04-7.596,11.617-12.081,10.223c-4.484-1.393-6.346-8.23-4.158-15.269
					c2.188-7.04,7.596-11.617,12.08-10.223C418.293,149.941,420.155,156.778,417.967,163.817z"/>
				<g>
					<g>
						<path style="fill:#FFC200;" d="M393.644,171.688c3.307,0,3.312-5.139,0-5.139
							C390.337,166.549,390.332,171.688,393.644,171.688L393.644,171.688z"/>
					</g>
				</g>
				<g>
					<g>
						<path style="fill:#FFC200;" d="M394.731,177.449c3.306,0,3.312-5.139,0-5.139C391.425,172.31,391.419,177.449,394.731,177.449
							L394.731,177.449z"/>
					</g>
				</g>
				<g>
					<g>
						<path style="fill:#FFC200;" d="M397.775,183.428c3.307,0,3.312-5.139,0-5.139
							C394.468,178.289,394.463,183.428,397.775,183.428L397.775,183.428z"/>
					</g>
				</g>
				<g>
					<g>
						<path style="fill:#FFC200;" d="M404.08,185.385c3.307,0,3.312-5.139,0-5.139C400.773,180.246,400.768,185.385,404.08,185.385
							L404.08,185.385z"/>
					</g>
				</g>
				<g>
					<g>
						<path style="fill:#FFC200;" d="M409.298,184.733c3.307,0,3.312-5.139,0-5.139
							C405.991,179.594,405.986,184.733,409.298,184.733L409.298,184.733z"/>
					</g>
				</g>
				<g>
					<g>
						<path style="fill:#FFC200;" d="M414.625,181.471c3.307,0,3.312-5.139,0-5.139
							C411.318,176.333,411.313,181.471,414.625,181.471L414.625,181.471z"/>
					</g>
				</g>
			</g>
		</g>
		<g>
			<path style="fill:#FFC200;" d="M212.169,107.886c-3.473-2.783-4.312-8.328-1.816-12.014c2.495-3.686,7.956-4.966,11.83-2.774
				c-1.224-3.437-2.059-7.5,0.072-10.462c1.49-2.071,4.028-3.138,6.534-3.616c3.033-0.578,6.594-0.243,8.55,2.145l-0.706,17.458
				L212.169,107.886z"/>
			<path style="fill:none;stroke:#443186;stroke-width:0.8173;stroke-miterlimit:10;" d="M207.484,91.756
				c4.047,1.279,7.681,3.58,11.263,5.857"/>
			<path style="fill:none;stroke:#443186;stroke-width:0.8173;stroke-miterlimit:10;" d="M210.587,86.97
				c3.837,2.091,7.607,4.303,11.304,6.633"/>
			<path style="fill:none;stroke:#443186;stroke-width:0.8173;stroke-miterlimit:10;" d="M224.116,90.717
				c-2.973-2.624-5.946-5.248-8.918-7.872"/>
			<path style="fill:none;stroke:#443186;stroke-width:0.8173;stroke-miterlimit:10;" d="M228.611,89.467
				c-3.224-3.624-5.847-7.78-7.731-12.25"/>
			<path style="fill:#443186;" d="M213.374,106.543c0.335-5.89,2.195-11.796,5.915-16.373c3.72-4.578,9.416-7.686,15.315-7.619
				c1.138,2.807,0.826,5.906-0.342,8.701c-1.674,4.004-4.178,7.727-7.609,10.384C223.222,104.292,217.685,107.036,213.374,106.543z"
				/>
			<path style="fill:#E99911;" d="M238.891,72.675c5.386,5.923,7.171,17.069,4.579,24.643c-2.593,7.574-8.962,13.606-16.459,16.413
				c-7.497,2.807-15.983,2.521-23.532-0.145c0.11-3.648,2.767-7.356,6.001-9.047s7.145-1.821,10.655-0.823
				c0.176,0.05,0.402,0.087,0.51-0.06c0.108-0.147-0.217-0.35-0.23-0.168c-1.659-1.887-3.284-3.528-3.999-5.936
				c-0.715-2.408-0.463-5.228,1.182-7.126c1.068-1.233,2.6-1.964,4.138-2.508c2.952-1.044,8.463,0.538,11.109,2.214
				c-0.704-2.934-2.441-8.105-1.172-10.842C232.942,76.553,235.875,72.766,238.891,72.675z"/>
			<g>
				<path style="fill:#25232D;" d="M210.341,108.388c1.675,0.202,3.34,0.356,5.006,0.394c1.665,0.029,3.327-0.008,4.979-0.171
					c1.654-0.144,3.294-0.413,4.925-0.747c1.63-0.343,3.238-0.8,4.849-1.305c-1.479,0.819-3.066,1.437-4.695,1.915
					c-1.628,0.486-3.311,0.785-5.004,0.951c-1.694,0.147-3.403,0.162-5.093-0.018C213.619,109.236,211.945,108.92,210.341,108.388z"
					/>
			</g>
			<g>
				<path style="fill:#25232D;" d="M222.207,93.45c1.243,0.66,2.428,1.407,3.599,2.176c1.176,0.762,2.307,1.587,3.43,2.422
					c1.111,0.851,2.213,1.715,3.267,2.638c1.059,0.917,2.101,1.854,3.074,2.87c-1.188-0.753-2.326-1.565-3.463-2.376
					c-1.142-0.804-2.253-1.647-3.37-2.481c-1.106-0.849-2.22-1.688-3.305-2.567C224.348,95.26,223.257,94.387,222.207,93.45z"/>
			</g>
			<g>
				<path style="fill:#25232D;" d="M239.346,97.157c-0.048-1.569-0.118-3.12-0.281-4.66c-0.173-1.538-0.387-3.067-0.706-4.577
					c-0.299-1.514-0.7-3.005-1.144-4.488c-0.452-1.481-0.995-2.936-1.564-4.399c0.872,1.308,1.571,2.726,2.157,4.19
					c0.594,1.462,1.027,2.988,1.352,4.534c0.305,1.549,0.505,3.123,0.53,4.701C239.723,94.034,239.634,95.612,239.346,97.157z"/>
			</g>
		</g>
		<g>
			<path style="fill:#FFC200;" d="M258.757,57.75c-1.994-3.979-0.44-9.368,3.367-11.675c3.807-2.307,9.303-1.19,11.907,2.419
				c0.323-3.634,1.262-7.675,4.435-9.476c2.218-1.259,4.971-1.169,7.447-0.556c2.997,0.742,6.093,2.532,6.873,5.519l-7.932,15.568
				L258.757,57.75z"/>
			<path style="fill:none;stroke:#443186;stroke-width:0.8173;stroke-miterlimit:10;" d="M261.236,41.137
				c3.143,2.852,5.484,6.461,7.788,10.025"/>
			<path style="fill:none;stroke:#443186;stroke-width:0.8173;stroke-miterlimit:10;" d="M266.054,38.085
				c2.613,3.502,5.115,7.087,7.501,10.747"/>
			<path style="fill:none;stroke:#443186;stroke-width:0.8173;stroke-miterlimit:10;" d="M276.783,47.139
				c-1.605-3.625-3.211-7.251-4.816-10.877"/>
			<path style="fill:none;stroke:#443186;stroke-width:0.8173;stroke-miterlimit:10;" d="M281.388,47.881
				c-1.416-4.639-2.064-9.511-1.909-14.359"/>
			<path style="fill:#443186;" d="M260.413,57.033c2.764-5.211,6.92-9.801,12.212-12.407c5.292-2.606,11.765-3.052,17.097-0.528
				c-0.139,3.026-1.716,5.712-3.944,7.763c-3.193,2.939-7.023,5.276-11.25,6.258C270.301,59.1,264.124,59.281,260.413,57.033z"/>
			<path style="fill:#E99911;" d="M297.742,36.916c2.42,7.631-0.612,18.504-6.131,24.304s-13.825,8.62-21.809,8.04
				c-7.984-0.58-15.575-4.384-21.321-9.959c1.623-3.268,5.586-5.529,9.23-5.714c3.645-0.185,7.252,1.329,10.025,3.702
				c0.139,0.119,0.329,0.247,0.488,0.158c0.16-0.089-0.051-0.409-0.139-0.248c-0.719-2.407-1.511-4.577-1.155-7.064
				c0.356-2.487,1.762-4.944,4.05-5.982c1.486-0.674,3.183-0.699,4.807-0.551c3.119,0.284,7.465,4.023,9.169,6.651
				c0.585-2.96,1.167-8.383,3.463-10.34C290.717,37.955,294.964,35.739,297.742,36.916z"/>
			<g>
				<path style="fill:#25232D;" d="M256.886,57.443c1.438,0.884,2.886,1.719,4.384,2.449c1.501,0.721,3.026,1.382,4.595,1.924
					c1.563,0.56,3.165,1.001,4.787,1.378c1.624,0.369,3.277,0.626,4.951,0.839c-1.686,0.127-3.386,0.025-5.066-0.221
					c-1.683-0.238-3.336-0.669-4.943-1.226c-1.601-0.574-3.16-1.273-4.62-2.143C259.51,59.583,258.122,58.596,256.886,57.443z"/>
			</g>
			<g>
				<path style="fill:#25232D;" d="M273.906,48.826c0.853,1.119,1.619,2.293,2.361,3.48c0.751,1.183,1.434,2.405,2.105,3.633
					c0.654,1.237,1.295,2.482,1.867,3.761c0.579,1.275,1.135,2.562,1.595,3.892c-0.765-1.181-1.46-2.394-2.154-3.605
					c-0.702-1.208-1.359-2.437-2.027-3.662c-0.651-1.233-1.313-2.46-1.931-3.713C275.096,51.364,274.469,50.115,273.906,48.826z"/>
			</g>
			<g>
				<path style="fill:#25232D;" d="M287.931,59.351c0.611-1.445,1.195-2.884,1.69-4.352c0.486-1.47,0.929-2.949,1.271-4.454
					c0.36-1.5,0.619-3.023,0.834-4.556c0.207-1.535,0.322-3.083,0.416-4.65c0.245,1.552,0.289,3.133,0.21,4.708
					c-0.071,1.577-0.314,3.144-0.665,4.684c-0.369,1.536-0.846,3.048-1.482,4.493C289.578,56.671,288.838,58.068,287.931,59.351z"/>
			</g>
		</g>
		<g>
			<path style="fill:#FFC200;" d="M287.014,98.527c3.898,2.149,5.67,7.47,3.841,11.527c-1.83,4.057-6.991,6.251-11.182,4.753
				c1.793,3.178,3.309,7.039,1.715,10.321c-1.114,2.295-3.433,3.78-5.821,4.678c-2.889,1.087-6.455,1.365-8.791-0.654l-2.285-17.323
				L287.014,98.527z"/>
			<path style="fill:none;stroke:#443186;stroke-width:0.8173;stroke-miterlimit:10;" d="M294.383,113.621
				c-4.206-0.57-8.18-2.217-12.098-3.848"/>
			<path style="fill:none;stroke:#443186;stroke-width:0.8173;stroke-miterlimit:10;" d="M292.142,118.866
				c-4.137-1.405-8.23-2.941-12.27-4.606"/>
			<path style="fill:none;stroke:#443186;stroke-width:0.8173;stroke-miterlimit:10;" d="M278.172,117.484
				c3.377,2.078,6.754,4.156,10.131,6.234"/>
			<path style="fill:none;stroke:#443186;stroke-width:0.8173;stroke-miterlimit:10;" d="M273.957,119.482
				c3.795,3.02,7.09,6.668,9.709,10.75"/>
			<path style="fill:#443186;" d="M286.055,100.056c0.675,5.86-0.149,11.997-3.033,17.143c-2.884,5.146-7.966,9.181-13.789,10.121
				c-1.6-2.572-1.822-5.679-1.148-8.631c0.966-4.23,2.798-8.327,5.725-11.53C276.736,103.955,281.723,100.306,286.055,100.056z"/>
			<path style="fill:#E99911;" d="M266.694,137.782c-6.318-4.917-9.98-15.595-8.718-23.5c1.262-7.906,6.508-14.936,13.415-18.982
				c6.908-4.046,15.318-5.212,23.211-3.874c0.514,3.613-1.47,7.721-4.368,9.938c-2.898,2.218-6.729,3.013-10.358,2.63
				c-0.182-0.019-0.411-0.017-0.492,0.146c-0.081,0.164,0.274,0.308,0.255,0.126c1.956,1.576,3.838,2.916,4.954,5.167
				c1.116,2.251,1.349,5.072,0.052,7.224c-0.842,1.397-2.227,2.379-3.649,3.178c-2.731,1.533-8.431,0.915-11.324-0.285
				c1.195,2.771,3.789,7.569,3.005,10.483C271.894,132.946,269.65,137.178,266.694,137.782z"/>
			<g>
				<path style="fill:#25232D;" d="M288.729,97.72c-1.685,0.087-3.352,0.219-5,0.466c-1.645,0.256-3.276,0.576-4.876,1.019
					c-1.605,0.424-3.175,0.969-4.725,1.577c-1.548,0.616-3.054,1.341-4.555,2.114c1.318-1.059,2.776-1.939,4.299-2.688
					c1.521-0.757,3.128-1.339,4.768-1.791c1.645-0.434,3.326-0.741,5.021-0.852C285.355,97.444,287.058,97.47,288.729,97.72z"/>
			</g>
			<g>
				<path style="fill:#25232D;" d="M279.587,114.464c-1.337-0.439-2.633-0.972-3.918-1.53c-1.289-0.55-2.544-1.169-3.793-1.801
					c-1.24-0.649-2.473-1.312-3.669-2.042c-1.2-0.723-2.386-1.468-3.519-2.303c1.3,0.539,2.559,1.145,3.818,1.75
					c1.263,0.597,2.501,1.238,3.744,1.869c1.235,0.648,2.476,1.284,3.695,1.965C277.169,113.046,278.393,113.72,279.587,114.464z"/>
			</g>
			<g>
				<path style="fill:#25232D;" d="M262.067,113.737c0.315,1.537,0.649,3.054,1.073,4.544c0.432,1.486,0.905,2.956,1.476,4.39
					c0.553,1.44,1.203,2.841,1.893,4.227c0.699,1.382,1.482,2.723,2.292,4.067c-1.082-1.14-2.013-2.418-2.84-3.76
					c-0.835-1.339-1.522-2.769-2.106-4.236c-0.566-1.475-1.03-2.991-1.324-4.542C262.228,116.879,262.047,115.309,262.067,113.737z"
					/>
			</g>
		</g>
		<g>
			<g>
				<path style="fill:#FFC200;" d="M304.126,75.236c-1.827-2.365-2.675-5.387-2.765-8.375c-0.09-2.987,0.536-5.956,1.415-8.813
					c0.413-1.342,0.905-2.706,1.852-3.742c0.947-1.036,2.456-1.676,3.785-1.226c1.329,0.45,2.139,2.238,1.315,3.374
					c0.977-1.211,2.664-1.933,4.141-1.444s2.411,2.397,1.615,3.734c0.409-1,1.848-1.344,2.727-0.716
					c0.879,0.628,1.065,1.99,0.476,2.896c0.167-1.361,2.329-1.575,3.199-0.515c0.87,1.06,0.717,2.623,0.305,3.931
					c-0.69,2.186-1.953,4.138-3.201,6.059c-1.743,2.683-3.498,5.506-6.433,6.78C309.622,78.453,306.082,77.768,304.126,75.236z"/>
				<g>
					<g>
						<path style="fill:#25232D;" d="M313.35,60.318c-0.357,1.157-0.764,2.292-1.168,3.426c-0.398,1.137-0.829,2.26-1.248,3.388
							c-0.433,1.122-0.856,2.248-1.312,3.363c-0.45,1.117-0.898,2.236-1.399,3.339c0.264-1.183,0.604-2.342,0.964-3.494
							c0.354-1.155,0.764-2.29,1.186-3.421c0.435-1.126,0.882-2.247,1.383-3.346C312.249,62.471,312.764,61.379,313.35,60.318z"/>
					</g>
					<g>
						<path style="fill:#25232D;" d="M307.067,72.892c-0.236-1.049-0.281-2.138-0.215-3.217c0.059-1.081,0.263-2.148,0.529-3.192
							c0.28-1.041,0.623-2.062,1.042-3.05c0.413-0.99,0.867-1.959,1.391-2.896c-0.293,1.032-0.638,2.041-0.956,3.054
							c-0.313,1.015-0.634,2.022-0.895,3.044c-0.275,1.018-0.487,2.048-0.652,3.088C307.151,70.765,307.078,71.819,307.067,72.892z"
							/>
					</g>
					<g>
						<path style="fill:#25232D;" d="M305.404,72.608c-0.531-1.027-0.877-2.149-1.082-3.297c-0.212-1.148-0.248-2.327-0.154-3.493
							c0.107-1.164,0.345-2.32,0.751-3.415c0.399-1.095,0.933-2.141,1.633-3.062c-0.484,1.047-0.896,2.11-1.193,3.202
							c-0.291,1.093-0.503,2.203-0.593,3.326c-0.104,1.122-0.086,2.252,0.012,3.379C304.884,70.375,305.106,71.494,305.404,72.608z"
							/>
					</g>
					<g>
						<path style="fill:#25232D;" d="M309.52,74.053c0.7-0.873,1.391-1.74,2.036-2.637c0.639-0.901,1.262-1.811,1.829-2.755
							c0.58-0.937,1.105-1.906,1.615-2.886c0.504-0.984,0.959-1.994,1.417-3.015c-0.221,1.099-0.573,2.168-0.997,3.208
							c-0.418,1.043-0.942,2.043-1.522,3.006c-0.592,0.956-1.243,1.878-1.98,2.726C311.186,72.553,310.397,73.354,309.52,74.053z"/>
					</g>
					<g>
						<path style="fill:#25232D;" d="M319.313,64.168c-0.447,1.076-0.984,2.11-1.562,3.121c-0.571,1.015-1.215,1.987-1.885,2.939
							c-0.691,0.937-1.374,1.879-2.206,2.723c-0.824,0.849-1.832,1.535-2.94,1.905c1-0.598,1.876-1.34,2.598-2.216
							c0.718-0.879,1.387-1.826,2.059-2.761c0.676-0.934,1.325-1.886,1.984-2.834L319.313,64.168z"/>
					</g>
				</g>
			</g>
			<g>
				<path style="fill:#FFC200;" d="M308.183,81.58c1.827,2.365,2.675,5.387,2.765,8.375c0.09,2.987-0.536,5.956-1.415,8.813
					c-0.413,1.342-0.905,2.706-1.852,3.743c-0.947,1.036-2.456,1.676-3.785,1.226c-1.33-0.45-2.14-2.238-1.315-3.374
					c-0.977,1.211-2.664,1.933-4.141,1.444c-1.477-0.488-2.411-2.397-1.615-3.734c-0.409,1-1.848,1.344-2.727,0.716
					c-0.879-0.628-1.066-1.99-0.476-2.896c-0.167,1.361-2.329,1.575-3.199,0.515c-0.87-1.06-0.717-2.623-0.304-3.931
					c0.69-2.186,1.953-4.138,3.201-6.06c1.743-2.683,3.498-5.506,6.433-6.78C302.687,78.363,306.226,79.049,308.183,81.58z"/>
				<g>
					<g>
						<path style="fill:#25232D;" d="M298.958,96.498c0.358-1.157,0.764-2.292,1.168-3.426c0.398-1.137,0.829-2.26,1.248-3.388
							c0.433-1.122,0.856-2.248,1.312-3.364c0.45-1.117,0.898-2.236,1.399-3.339c-0.264,1.182-0.604,2.342-0.964,3.494
							c-0.354,1.155-0.764,2.29-1.186,3.421c-0.435,1.126-0.882,2.248-1.383,3.346C300.059,94.345,299.544,95.437,298.958,96.498z"
							/>
					</g>
					<g>
						<path style="fill:#25232D;" d="M305.242,83.924c0.236,1.049,0.281,2.138,0.215,3.217c-0.059,1.081-0.263,2.148-0.529,3.192
							c-0.28,1.041-0.623,2.062-1.042,3.05c-0.413,0.99-0.867,1.959-1.391,2.896c0.293-1.033,0.638-2.041,0.956-3.054
							c0.313-1.015,0.634-2.022,0.895-3.044c0.275-1.018,0.487-2.048,0.652-3.088C305.157,86.051,305.23,84.997,305.242,83.924z"/>
					</g>
					<g>
						<path style="fill:#25232D;" d="M306.904,84.209c0.531,1.027,0.877,2.149,1.082,3.297c0.212,1.148,0.248,2.327,0.154,3.493
							c-0.107,1.164-0.345,2.32-0.751,3.415c-0.399,1.095-0.933,2.141-1.633,3.062c0.484-1.047,0.896-2.11,1.193-3.202
							c0.291-1.093,0.503-2.203,0.593-3.326c0.104-1.122,0.086-2.252-0.012-3.379C307.425,86.441,307.203,85.323,306.904,84.209z"/>
					</g>
					<g>
						<path style="fill:#25232D;" d="M302.788,82.763c-0.7,0.873-1.391,1.74-2.036,2.637c-0.639,0.901-1.261,1.811-1.829,2.755
							c-0.58,0.937-1.105,1.906-1.614,2.886c-0.504,0.984-0.959,1.994-1.417,3.015c0.221-1.099,0.573-2.168,0.997-3.208
							c0.418-1.043,0.942-2.043,1.522-3.006c0.593-0.956,1.243-1.878,1.98-2.726C301.122,84.263,301.912,83.462,302.788,82.763z"/>
					</g>
					<g>
						<path style="fill:#25232D;" d="M292.995,92.648c0.448-1.076,0.984-2.11,1.562-3.12c0.571-1.015,1.215-1.987,1.885-2.939
							c0.691-0.937,1.374-1.878,2.206-2.723c0.824-0.849,1.832-1.535,2.94-1.905c-1,0.598-1.876,1.34-2.598,2.216
							c-0.718,0.879-1.387,1.826-2.059,2.761c-0.676,0.934-1.325,1.885-1.984,2.834L292.995,92.648z"/>
					</g>
				</g>
			</g>
			<g>
				<path style="fill:#FFC200;" d="M311.188,77.154c2.365-1.828,5.387-2.675,8.375-2.765c2.987-0.09,5.956,0.536,8.813,1.415
					c1.342,0.413,2.706,0.905,3.742,1.852c1.036,0.947,1.676,2.456,1.225,3.785c-0.45,1.33-2.238,2.14-3.374,1.315
					c1.211,0.977,1.933,2.664,1.444,4.141c-0.488,1.477-2.397,2.41-3.734,1.615c1,0.409,1.344,1.848,0.716,2.727
					c-0.628,0.879-1.99,1.066-2.896,0.476c1.361,0.167,1.574,2.329,0.514,3.199c-1.06,0.87-2.623,0.718-3.931,0.305
					c-2.185-0.69-4.137-1.953-6.059-3.201c-2.683-1.743-5.506-3.498-6.78-6.433C307.97,82.65,308.656,79.11,311.188,77.154z"/>
				<g>
					<g>
						<path style="fill:#25232D;" d="M326.105,86.378c-1.157-0.357-2.292-0.764-3.426-1.168c-1.137-0.398-2.26-0.829-3.388-1.248
							c-1.122-0.433-2.249-0.856-3.364-1.312c-1.117-0.45-2.236-0.898-3.339-1.399c1.182,0.264,2.342,0.604,3.494,0.964
							c1.155,0.354,2.29,0.764,3.421,1.186c1.126,0.435,2.247,0.882,3.346,1.383C323.952,85.278,325.045,85.793,326.105,86.378z"/>
					</g>
					<g>
						<path style="fill:#25232D;" d="M313.532,80.095c1.049-0.236,2.138-0.281,3.217-0.215c1.081,0.059,2.148,0.263,3.192,0.529
							c1.041,0.28,2.062,0.623,3.05,1.042c0.99,0.413,1.959,0.867,2.896,1.391c-1.033-0.293-2.041-0.638-3.054-0.956
							c-1.015-0.313-2.022-0.634-3.044-0.895c-1.018-0.275-2.048-0.487-3.088-0.652C315.659,80.18,314.604,80.106,313.532,80.095z"
							/>
					</g>
					<g>
						<path style="fill:#25232D;" d="M313.816,78.433c1.027-0.531,2.15-0.877,3.297-1.082c1.148-0.212,2.327-0.248,3.493-0.154
							c1.164,0.107,2.32,0.345,3.415,0.751c1.095,0.399,2.142,0.933,3.062,1.633c-1.047-0.484-2.11-0.896-3.202-1.193
							c-1.093-0.291-2.203-0.503-3.326-0.593c-1.122-0.104-2.252-0.086-3.379,0.012C316.048,77.912,314.93,78.134,313.816,78.433z"
							/>
					</g>
					<g>
						<path style="fill:#25232D;" d="M312.37,82.549c0.874,0.7,1.74,1.391,2.637,2.036c0.901,0.639,1.811,1.261,2.755,1.829
							c0.937,0.58,1.906,1.105,2.886,1.614c0.984,0.504,1.994,0.959,3.015,1.417c-1.099-0.221-2.168-0.573-3.208-0.997
							c-1.043-0.418-2.043-0.942-3.006-1.522c-0.956-0.593-1.878-1.243-2.726-1.98C313.871,84.215,313.069,83.425,312.37,82.549z"/>
					</g>
					<g>
						<path style="fill:#25232D;" d="M322.255,92.342c-1.076-0.447-2.11-0.984-3.12-1.562c-1.015-0.571-1.987-1.215-2.939-1.885
							c-0.937-0.691-1.878-1.373-2.723-2.206c-0.849-0.824-1.535-1.832-1.905-2.94c0.598,1,1.34,1.876,2.216,2.598
							c0.879,0.718,1.826,1.387,2.761,2.059c0.934,0.676,1.885,1.325,2.834,1.984L322.255,92.342z"/>
					</g>
				</g>
			</g>
			<g>
				<path style="fill:#FFC200;" d="M301.918,79.994c-2.365,1.827-5.387,2.675-8.375,2.765c-2.987,0.09-5.956-0.536-8.813-1.415
					c-1.342-0.413-2.706-0.905-3.742-1.852c-1.036-0.947-1.676-2.456-1.226-3.785c0.45-1.33,2.238-2.14,3.374-1.315
					c-1.211-0.977-1.933-2.664-1.444-4.141c0.488-1.477,2.397-2.41,3.734-1.615c-1-0.409-1.344-1.848-0.716-2.727
					c0.628-0.879,1.99-1.066,2.896-0.476c-1.361-0.167-1.575-2.329-0.514-3.199c1.06-0.87,2.623-0.717,3.931-0.305
					c2.185,0.69,4.137,1.953,6.059,3.201c2.683,1.743,5.506,3.498,6.78,6.433C305.136,74.498,304.45,78.037,301.918,79.994z"/>
				<g>
					<g>
						<path style="fill:#25232D;" d="M287.001,70.77c1.157,0.357,2.292,0.764,3.426,1.168c1.137,0.398,2.26,0.829,3.388,1.248
							c1.122,0.433,2.249,0.856,3.364,1.312c1.117,0.45,2.236,0.898,3.339,1.399c-1.182-0.264-2.341-0.604-3.494-0.964
							c-1.155-0.354-2.29-0.764-3.421-1.186c-1.126-0.435-2.247-0.882-3.346-1.383C289.154,71.87,288.061,71.355,287.001,70.77z"/>
					</g>
					<g>
						<path style="fill:#25232D;" d="M299.574,77.053c-1.049,0.236-2.138,0.281-3.217,0.215c-1.081-0.059-2.148-0.263-3.192-0.529
							c-1.041-0.28-2.062-0.623-3.05-1.042c-0.99-0.413-1.959-0.867-2.896-1.391c1.033,0.293,2.041,0.638,3.054,0.956
							c1.015,0.313,2.022,0.634,3.044,0.895c1.018,0.275,2.048,0.487,3.088,0.652C297.447,76.968,298.502,77.042,299.574,77.053z"/>
					</g>
					<g>
						<path style="fill:#25232D;" d="M299.29,78.715c-1.027,0.531-2.15,0.877-3.297,1.082c-1.148,0.212-2.327,0.248-3.493,0.155
							c-1.164-0.107-2.32-0.345-3.415-0.751c-1.095-0.399-2.142-0.933-3.062-1.633c1.047,0.484,2.11,0.896,3.202,1.193
							c1.093,0.291,2.203,0.503,3.326,0.593c1.122,0.104,2.252,0.086,3.379-0.012C297.058,79.236,298.176,79.014,299.29,78.715z"/>
					</g>
					<g>
						<path style="fill:#25232D;" d="M300.736,74.599c-0.873-0.7-1.74-1.391-2.637-2.036c-0.901-0.639-1.811-1.261-2.755-1.829
							c-0.937-0.58-1.905-1.105-2.886-1.614c-0.983-0.504-1.994-0.959-3.015-1.417c1.099,0.221,2.168,0.573,3.208,0.997
							c1.043,0.418,2.043,0.942,3.006,1.522c0.956,0.593,1.878,1.243,2.727,1.98C299.235,72.933,300.037,73.723,300.736,74.599z"/>
					</g>
					<g>
						<path style="fill:#25232D;" d="M290.851,64.806c1.076,0.447,2.11,0.984,3.121,1.562c1.015,0.571,1.987,1.215,2.939,1.885
							c0.937,0.691,1.878,1.373,2.723,2.206c0.849,0.824,1.535,1.832,1.905,2.94c-0.598-1-1.34-1.876-2.216-2.598
							c-0.879-0.718-1.826-1.387-2.761-2.059c-0.934-0.676-1.885-1.325-2.834-1.984L290.851,64.806z"/>
					</g>
				</g>
			</g>
			<path style="fill:#FFEA68;" d="M303.856,72.963c-1.551,0.615-2.829,1.852-3.574,3.345c-0.61,1.222-0.874,2.636-0.622,3.978
				c0.418,2.231,2.311,4.074,4.526,4.57c2.215,0.497,4.641-0.307,6.23-1.928c1.786-1.823,2.465-4.802,1.234-7.037
				C310.129,73.129,306.834,71.783,303.856,72.963z"/>
			<path style="fill:#443186;" d="M304.228,74.015c-1.272,0.504-2.32,1.519-2.931,2.744c-0.5,1.002-0.717,2.162-0.51,3.263
				c0.343,1.83,1.895,3.341,3.712,3.749c1.817,0.407,3.807-0.252,5.11-1.582c1.465-1.495,2.022-3.938,1.012-5.772
				C309.373,74.151,306.671,73.048,304.228,74.015z"/>
		</g>
		<g>
			<g>
				<path style="fill:#FFC200;" d="M229.673,121.51c-2.849-0.904-5.266-2.906-7.041-5.311c-1.775-2.405-2.951-5.202-3.855-8.05
					c-0.424-1.338-0.797-2.74-0.609-4.131c0.188-1.391,1.065-2.776,2.414-3.163c1.349-0.387,3.033,0.622,3.002,2.025
					c0.113-1.551,1.09-3.106,2.582-3.545c1.492-0.439,3.347,0.598,3.454,2.15c-0.233-1.055,0.754-2.157,1.834-2.141
					c1.08,0.015,2.009,1.029,2.04,2.109c-0.638-1.214,1.018-2.62,2.337-2.244c1.319,0.376,2.083,1.748,2.489,3.058
					c0.677,2.19,0.75,4.513,0.818,6.804c0.095,3.198,0.259,6.518-1.428,9.236C236.023,121.026,232.722,122.477,229.673,121.51z"/>
				<g>
					<g>
						<path style="fill:#25232D;" d="M228.763,103.994c0.365,1.155,0.677,2.319,0.99,3.482c0.32,1.161,0.606,2.33,0.903,3.496
							c0.283,1.169,0.576,2.336,0.837,3.512c0.266,1.175,0.534,2.35,0.75,3.541c-0.456-1.122-0.837-2.269-1.197-3.421
							c-0.366-1.151-0.676-2.318-0.973-3.488c-0.283-1.173-0.555-2.35-0.769-3.538C229.084,106.391,228.885,105.2,228.763,103.994z"
							/>
					</g>
					<g>
						<path style="fill:#25232D;" d="M230.756,117.909c-0.791-0.728-1.448-1.598-2.008-2.522c-0.567-0.922-1.007-1.916-1.383-2.925
							c-0.363-1.016-0.662-2.05-0.88-3.101c-0.224-1.049-0.403-2.104-0.505-3.172c0.347,1.016,0.638,2.041,0.953,3.055
							c0.321,1.012,0.63,2.023,0.997,3.012c0.354,0.993,0.766,1.961,1.222,2.91C229.614,116.112,230.155,117.021,230.756,117.909z"
							/>
					</g>
					<g>
						<path style="fill:#25232D;" d="M229.227,118.621c-1.021-0.542-1.945-1.268-2.767-2.094c-0.828-0.823-1.529-1.772-2.116-2.784
							c-0.575-1.018-1.037-2.104-1.327-3.235c-0.295-1.128-0.452-2.292-0.4-3.447c0.198,1.136,0.465,2.244,0.842,3.312
							c0.383,1.064,0.841,2.097,1.406,3.072c0.553,0.982,1.211,1.9,1.934,2.771C227.528,117.083,228.348,117.876,229.227,118.621z"
							/>
					</g>
					<g>
						<path style="fill:#25232D;" d="M233.434,117.466c0.078-1.117,0.153-2.222,0.172-3.327c0.012-1.105,0.006-2.207-0.065-3.306
							c-0.057-1.1-0.177-2.196-0.316-3.292c-0.145-1.096-0.347-2.185-0.551-3.286c0.444,1.029,0.763,2.109,1.007,3.205
							c0.25,1.096,0.389,2.216,0.46,3.338c0.057,1.123,0.048,2.251-0.076,3.369C233.95,115.284,233.757,116.393,233.434,117.466z"/>
					</g>
					<g>
						<path style="fill:#25232D;" d="M235.857,103.765c0.245,1.139,0.393,2.295,0.493,3.454c0.109,1.16,0.133,2.325,0.124,3.49
							c-0.034,1.164-0.06,2.326-0.263,3.495c-0.194,1.167-0.633,2.305-1.332,3.24c0.481-1.061,0.78-2.169,0.874-3.301
							c0.089-1.132,0.1-2.291,0.121-3.442c0.024-1.152,0.016-2.305,0.017-3.459L235.857,103.765z"/>
					</g>
				</g>
			</g>
			<g>
				<path style="fill:#FFC200;" d="M236.62,124.416c2.849,0.904,5.266,2.906,7.041,5.311c1.775,2.405,2.951,5.202,3.855,8.051
					c0.425,1.338,0.797,2.74,0.608,4.131c-0.188,1.391-1.065,2.776-2.414,3.163c-1.349,0.387-3.033-0.622-3.002-2.025
					c-0.113,1.551-1.09,3.106-2.582,3.545c-1.492,0.439-3.347-0.598-3.454-2.15c0.233,1.055-0.754,2.157-1.834,2.141
					c-1.08-0.015-2.009-1.029-2.04-2.109c0.638,1.214-1.018,2.62-2.337,2.244c-1.319-0.376-2.083-1.748-2.488-3.058
					c-0.677-2.19-0.75-4.513-0.818-6.804c-0.095-3.198-0.259-6.518,1.429-9.236C230.27,124.9,233.57,123.449,236.62,124.416z"/>
				<g>
					<g>
						<path style="fill:#25232D;" d="M237.53,141.932c-0.365-1.155-0.677-2.319-0.99-3.482c-0.32-1.161-0.606-2.33-0.902-3.496
							c-0.283-1.169-0.577-2.336-0.837-3.512c-0.266-1.175-0.534-2.35-0.75-3.542c0.456,1.123,0.837,2.269,1.197,3.421
							c0.366,1.151,0.676,2.318,0.973,3.488c0.283,1.173,0.555,2.35,0.768,3.538C237.209,139.535,237.408,140.726,237.53,141.932z"
							/>
					</g>
					<g>
						<path style="fill:#25232D;" d="M235.537,128.017c0.791,0.728,1.448,1.598,2.008,2.522c0.567,0.922,1.007,1.916,1.383,2.926
							c0.363,1.016,0.662,2.05,0.88,3.101c0.224,1.049,0.402,2.104,0.505,3.172c-0.347-1.016-0.638-2.041-0.953-3.055
							c-0.321-1.012-0.63-2.024-0.997-3.012c-0.354-0.993-0.766-1.961-1.222-2.91C236.678,129.814,236.138,128.906,235.537,128.017z
							"/>
					</g>
					<g>
						<path style="fill:#25232D;" d="M237.065,127.304c1.021,0.542,1.945,1.268,2.767,2.094c0.828,0.823,1.529,1.772,2.116,2.783
							c0.575,1.018,1.037,2.104,1.327,3.235c0.295,1.128,0.452,2.292,0.4,3.447c-0.198-1.136-0.465-2.245-0.843-3.312
							c-0.383-1.064-0.841-2.098-1.406-3.072c-0.553-0.982-1.211-1.9-1.934-2.771C238.764,128.843,237.945,128.05,237.065,127.304z"
							/>
					</g>
					<g>
						<path style="fill:#25232D;" d="M232.858,128.46c-0.078,1.117-0.153,2.222-0.172,3.327c-0.012,1.105-0.006,2.207,0.065,3.306
							c0.056,1.1,0.176,2.196,0.316,3.292c0.146,1.096,0.347,2.185,0.551,3.286c-0.444-1.029-0.763-2.109-1.007-3.205
							c-0.25-1.096-0.389-2.216-0.46-3.338c-0.057-1.123-0.048-2.251,0.076-3.369C232.343,130.642,232.536,129.533,232.858,128.46z"
							/>
					</g>
					<g>
						<path style="fill:#25232D;" d="M230.436,142.161c-0.245-1.139-0.393-2.295-0.493-3.454c-0.109-1.16-0.133-2.325-0.124-3.49
							c0.034-1.164,0.06-2.326,0.263-3.495c0.194-1.167,0.633-2.305,1.332-3.24c-0.481,1.061-0.78,2.169-0.874,3.301
							c-0.089,1.132-0.1,2.291-0.121,3.442c-0.024,1.152-0.016,2.305-0.017,3.46L230.436,142.161z"/>
					</g>
				</g>
			</g>
			<g>
				<path style="fill:#FFC200;" d="M236.571,119.067c0.904-2.849,2.906-5.266,5.311-7.041c2.405-1.775,5.202-2.951,8.05-3.855
					c1.338-0.425,2.74-0.797,4.131-0.608c1.391,0.188,2.776,1.065,3.163,2.414c0.387,1.349-0.622,3.033-2.025,3.002
					c1.551,0.114,3.106,1.09,3.545,2.582c0.439,1.492-0.598,3.347-2.15,3.454c1.055-0.233,2.157,0.754,2.141,1.834
					c-0.015,1.08-1.029,2.009-2.109,2.04c1.214-0.638,2.62,1.018,2.244,2.337c-0.376,1.319-1.748,2.083-3.058,2.488
					c-2.189,0.677-4.513,0.75-6.804,0.818c-3.198,0.095-6.518,0.259-9.236-1.429C237.055,125.416,235.603,122.116,236.571,119.067z"
					/>
				<g>
					<g>
						<path style="fill:#25232D;" d="M254.086,118.156c-1.155,0.365-2.319,0.677-3.482,0.99c-1.161,0.32-2.33,0.606-3.496,0.903
							c-1.169,0.283-2.336,0.576-3.512,0.836c-1.175,0.266-2.35,0.534-3.542,0.751c1.123-0.456,2.269-0.837,3.421-1.197
							c1.151-0.366,2.318-0.676,3.488-0.973c1.173-0.283,2.35-0.555,3.538-0.768C251.689,118.477,252.881,118.279,254.086,118.156z"
							/>
					</g>
					<g>
						<path style="fill:#25232D;" d="M240.172,120.149c0.728-0.791,1.598-1.448,2.522-2.008c0.922-0.567,1.916-1.007,2.925-1.383
							c1.016-0.363,2.05-0.662,3.101-0.88c1.049-0.224,2.104-0.403,3.172-0.505c-1.016,0.347-2.041,0.638-3.055,0.953
							c-1.012,0.321-2.024,0.63-3.012,0.997c-0.993,0.354-1.961,0.766-2.91,1.222C241.969,119.008,241.06,119.548,240.172,120.149z"
							/>
					</g>
					<g>
						<path style="fill:#25232D;" d="M239.459,118.621c0.542-1.021,1.268-1.945,2.094-2.767c0.823-0.828,1.772-1.529,2.783-2.116
							c1.018-0.575,2.104-1.037,3.235-1.327c1.128-0.295,2.292-0.452,3.447-0.4c-1.136,0.198-2.244,0.465-3.312,0.842
							c-1.064,0.383-2.098,0.841-3.072,1.406c-0.981,0.553-1.9,1.211-2.771,1.933C240.998,116.922,240.205,117.741,239.459,118.621z
							"/>
					</g>
					<g>
						<path style="fill:#25232D;" d="M240.614,122.828c1.117,0.078,2.222,0.153,3.327,0.172c1.105,0.012,2.207,0.006,3.306-0.065
							c1.1-0.057,2.196-0.177,3.292-0.316c1.096-0.146,2.185-0.347,3.286-0.551c-1.029,0.444-2.109,0.763-3.205,1.007
							c-1.096,0.25-2.216,0.389-3.338,0.461c-1.123,0.057-2.251,0.048-3.369-0.076C242.796,123.343,241.688,123.15,240.614,122.828z
							"/>
					</g>
					<g>
						<path style="fill:#25232D;" d="M254.316,125.251c-1.139,0.245-2.295,0.393-3.454,0.493c-1.16,0.109-2.325,0.133-3.489,0.124
							c-1.164-0.034-2.326-0.06-3.495-0.263c-1.167-0.194-2.305-0.633-3.24-1.332c1.061,0.482,2.169,0.78,3.301,0.874
							c1.131,0.09,2.291,0.101,3.442,0.121c1.152,0.024,2.305,0.016,3.459,0.017L254.316,125.251z"/>
					</g>
				</g>
			</g>
			<g>
				<path style="fill:#FFC200;" d="M230.567,126.678c-0.904,2.849-2.906,5.266-5.311,7.041c-2.405,1.775-5.202,2.951-8.05,3.855
					c-1.338,0.425-2.74,0.797-4.131,0.609c-1.391-0.188-2.776-1.065-3.163-2.414c-0.387-1.349,0.622-3.033,2.025-3.002
					c-1.551-0.114-3.106-1.09-3.545-2.582c-0.439-1.492,0.598-3.347,2.15-3.454c-1.055,0.233-2.157-0.754-2.141-1.834
					s1.029-2.009,2.109-2.04c-1.214,0.638-2.62-1.018-2.244-2.337c0.376-1.319,1.748-2.083,3.058-2.488
					c2.189-0.677,4.513-0.75,6.804-0.818c3.198-0.095,6.518-0.259,9.236,1.428C230.083,120.328,231.535,123.629,230.567,126.678z"/>
				<g>
					<g>
						<path style="fill:#25232D;" d="M213.051,127.588c1.155-0.365,2.319-0.677,3.482-0.99c1.161-0.32,2.33-0.606,3.496-0.903
							c1.169-0.283,2.336-0.576,3.512-0.836c1.175-0.266,2.35-0.535,3.542-0.751c-1.123,0.456-2.269,0.837-3.421,1.197
							c-1.151,0.366-2.318,0.676-3.488,0.973c-1.173,0.283-2.35,0.555-3.538,0.768C215.448,127.267,214.257,127.466,213.051,127.588
							z"/>
					</g>
					<g>
						<path style="fill:#25232D;" d="M226.966,125.595c-0.728,0.791-1.598,1.448-2.522,2.008c-0.922,0.567-1.916,1.007-2.926,1.383
							c-1.016,0.363-2.05,0.662-3.101,0.88c-1.049,0.224-2.104,0.402-3.172,0.505c1.016-0.347,2.041-0.638,3.055-0.953
							c1.012-0.321,2.024-0.63,3.012-0.997c0.993-0.354,1.961-0.765,2.91-1.222C225.169,126.737,226.078,126.196,226.966,125.595z"
							/>
					</g>
					<g>
						<path style="fill:#25232D;" d="M227.679,127.124c-0.542,1.021-1.268,1.945-2.094,2.767c-0.823,0.828-1.772,1.529-2.784,2.116
							c-1.018,0.575-2.104,1.037-3.235,1.327c-1.128,0.295-2.292,0.452-3.447,0.4c1.136-0.198,2.245-0.465,3.312-0.843
							c1.064-0.383,2.098-0.841,3.072-1.406c0.982-0.553,1.9-1.211,2.771-1.934C226.14,128.823,226.933,128.003,227.679,127.124z"/>
					</g>
					<g>
						<path style="fill:#25232D;" d="M226.523,122.917c-1.117-0.078-2.222-0.153-3.327-0.172c-1.105-0.012-2.207-0.006-3.306,0.065
							c-1.1,0.057-2.196,0.177-3.292,0.316c-1.096,0.146-2.185,0.347-3.286,0.551c1.029-0.444,2.109-0.763,3.205-1.007
							c1.096-0.25,2.216-0.389,3.338-0.46c1.123-0.057,2.251-0.048,3.369,0.076C224.341,122.401,225.45,122.594,226.523,122.917z"/>
					</g>
					<g>
						<path style="fill:#25232D;" d="M212.822,120.494c1.139-0.245,2.295-0.393,3.454-0.493c1.16-0.109,2.325-0.133,3.489-0.124
							c1.164,0.035,2.326,0.06,3.495,0.263c1.167,0.194,2.305,0.633,3.24,1.332c-1.061-0.481-2.169-0.78-3.301-0.874
							c-1.131-0.09-2.291-0.1-3.442-0.121c-1.152-0.024-2.305-0.016-3.46-0.017L212.822,120.494z"/>
					</g>
				</g>
			</g>
			<path style="fill:#FFEA68;" d="M228.157,119.795c-0.926,1.389-1.271,3.133-1.034,4.785c0.195,1.352,0.782,2.664,1.754,3.625
				c1.615,1.596,4.219,2.033,6.323,1.18c2.104-0.853,3.641-2.894,4.024-5.132c0.43-2.516-0.708-5.351-2.993-6.488
				C233.408,116.36,229.934,117.13,228.157,119.795z"/>
			<path style="fill:#443186;" d="M229.062,120.448c-0.759,1.139-1.043,2.57-0.848,3.925c0.16,1.109,0.642,2.185,1.438,2.973
				c1.324,1.309,3.46,1.668,5.186,0.968c1.726-0.7,2.986-2.374,3.3-4.209c0.353-2.063-0.58-4.389-2.454-5.321
				C233.369,117.631,230.519,118.262,229.062,120.448z"/>
		</g>
		<g>
			<g>
				<path style="fill:#FFC200;" d="M255.169,78.274c-1.095-2.781-1.064-5.92-0.317-8.814c0.748-2.894,2.178-5.57,3.819-8.067
					c0.771-1.173,1.625-2.346,2.823-3.077c1.198-0.731,2.826-0.923,3.977-0.12c1.151,0.803,1.43,2.747,0.32,3.607
					c1.276-0.89,3.098-1.112,4.38-0.231c1.282,0.881,1.645,2.975,0.508,4.037c0.672-0.846,2.15-0.775,2.819,0.074
					c0.669,0.848,0.467,2.209-0.351,2.913c0.54-1.261,2.676-0.862,3.216,0.399c0.54,1.261-0.044,2.719-0.805,3.86
					c-1.273,1.906-3.03,3.428-4.766,4.925c-2.423,2.09-4.896,4.31-8.07,4.714C259.548,82.897,256.341,81.251,255.169,78.274z"/>
				<g>
					<g>
						<path style="fill:#25232D;" d="M268.192,66.525c-0.666,1.012-1.373,1.988-2.078,2.964c-0.7,0.981-1.427,1.939-2.145,2.905
							c-0.729,0.957-1.45,1.92-2.199,2.863c-0.744,0.947-1.487,1.896-2.276,2.815c0.584-1.062,1.234-2.08,1.901-3.086
							c0.663-1.01,1.373-1.986,2.094-2.954c0.732-0.96,1.474-1.912,2.262-2.827C266.534,68.285,267.333,67.38,268.192,66.525z"/>
					</g>
					<g>
						<path style="fill:#25232D;" d="M258.647,76.844c0.066-1.073,0.327-2.132,0.692-3.149c0.358-1.022,0.852-1.989,1.399-2.918
							c0.56-0.922,1.174-1.806,1.852-2.638c0.673-0.835,1.379-1.639,2.144-2.392c-0.57,0.91-1.182,1.782-1.771,2.666
							c-0.583,0.887-1.174,1.765-1.71,2.673c-0.548,0.901-1.04,1.831-1.489,2.783C259.323,74.825,258.958,75.817,258.647,76.844z"/>
					</g>
					<g>
						<path style="fill:#25232D;" d="M257.13,76.107c-0.223-1.135-0.242-2.309-0.119-3.468c0.117-1.162,0.412-2.304,0.827-3.397
							c0.428-1.088,0.979-2.131,1.675-3.069c0.689-0.94,1.494-1.796,2.423-2.484c-0.757,0.87-1.449,1.776-2.039,2.742
							c-0.585,0.968-1.098,1.975-1.498,3.028c-0.414,1.048-0.712,2.138-0.932,3.248C257.254,73.818,257.155,74.954,257.13,76.107z"
							/>
					</g>
					<g>
						<path style="fill:#25232D;" d="M260.679,78.644c0.916-0.643,1.821-1.282,2.691-1.964c0.865-0.687,1.717-1.387,2.526-2.135
							c0.818-0.738,1.593-1.521,2.356-2.32c0.759-0.804,1.478-1.647,2.203-2.499c-0.519,0.994-1.156,1.922-1.853,2.802
							c-0.693,0.885-1.475,1.699-2.301,2.462c-0.836,0.752-1.718,1.456-2.663,2.065C262.698,77.669,261.716,78.218,260.679,78.644z"
							/>
					</g>
					<g>
						<path style="fill:#25232D;" d="M272.843,71.887c-0.73,0.908-1.534,1.752-2.371,2.56c-0.831,0.816-1.721,1.569-2.631,2.296
							c-0.925,0.707-1.843,1.42-2.879,1.999c-1.028,0.585-2.188,0.962-3.354,1.008c1.127-0.295,2.175-0.763,3.113-1.403
							c0.935-0.644,1.842-1.367,2.748-2.076c0.91-0.708,1.799-1.441,2.696-2.168L272.843,71.887z"/>
					</g>
				</g>
			</g>
			<g>
				<path style="fill:#FFC200;" d="M257.293,85.498c1.094,2.781,1.064,5.92,0.316,8.814c-0.748,2.894-2.178,5.57-3.819,8.067
					c-0.771,1.173-1.625,2.346-2.823,3.077c-1.198,0.731-2.826,0.923-3.977,0.12c-1.151-0.804-1.43-2.747-0.32-3.607
					c-1.276,0.89-3.098,1.112-4.38,0.231c-1.282-0.881-1.645-2.975-0.508-4.037c-0.672,0.846-2.15,0.775-2.818-0.074
					c-0.669-0.848-0.467-2.209,0.351-2.913c-0.54,1.261-2.676,0.862-3.215-0.399c-0.54-1.261,0.043-2.719,0.805-3.86
					c1.273-1.906,3.031-3.428,4.766-4.925c2.423-2.09,4.896-4.31,8.07-4.714C252.914,80.875,256.121,82.521,257.293,85.498z"/>
				<g>
					<g>
						<path style="fill:#25232D;" d="M244.271,97.247c0.666-1.011,1.373-1.987,2.078-2.964c0.7-0.981,1.427-1.939,2.145-2.905
							c0.729-0.957,1.45-1.92,2.199-2.863c0.744-0.947,1.487-1.896,2.276-2.815c-0.584,1.062-1.234,2.08-1.901,3.086
							c-0.663,1.01-1.373,1.986-2.094,2.954c-0.732,0.96-1.474,1.912-2.262,2.827C245.929,95.487,245.129,96.393,244.271,97.247z"/>
					</g>
					<g>
						<path style="fill:#25232D;" d="M253.815,86.928c-0.066,1.073-0.327,2.132-0.692,3.149c-0.358,1.022-0.852,1.989-1.399,2.918
							c-0.56,0.922-1.174,1.806-1.852,2.638c-0.673,0.835-1.379,1.639-2.144,2.392c0.57-0.91,1.182-1.782,1.771-2.666
							c0.584-0.887,1.174-1.765,1.71-2.673c0.548-0.901,1.04-1.83,1.489-2.783C253.14,88.947,253.504,87.955,253.815,86.928z"/>
					</g>
					<g>
						<path style="fill:#25232D;" d="M255.332,87.665c0.223,1.135,0.242,2.309,0.119,3.468c-0.117,1.162-0.412,2.304-0.827,3.397
							c-0.428,1.088-0.979,2.131-1.675,3.069c-0.689,0.94-1.494,1.796-2.423,2.484c0.757-0.87,1.449-1.776,2.04-2.742
							c0.585-0.968,1.098-1.975,1.498-3.028c0.413-1.048,0.712-2.138,0.932-3.248C255.208,89.954,255.307,88.818,255.332,87.665z"/>
					</g>
					<g>
						<path style="fill:#25232D;" d="M251.783,85.128c-0.916,0.643-1.821,1.282-2.691,1.964c-0.865,0.687-1.717,1.387-2.526,2.135
							c-0.818,0.738-1.593,1.521-2.356,2.32c-0.759,0.804-1.478,1.647-2.203,2.5c0.519-0.994,1.156-1.922,1.853-2.802
							c0.693-0.885,1.474-1.699,2.301-2.462c0.836-0.752,1.718-1.456,2.663-2.065C249.764,86.104,250.746,85.554,251.783,85.128z"/>
					</g>
					<g>
						<path style="fill:#25232D;" d="M239.62,91.885c0.73-0.908,1.534-1.751,2.371-2.56c0.831-0.816,1.721-1.569,2.631-2.296
							c0.925-0.707,1.843-1.42,2.878-1.999c1.028-0.585,2.188-0.962,3.355-1.008c-1.127,0.295-2.176,0.763-3.114,1.403
							c-0.935,0.644-1.842,1.367-2.748,2.076c-0.91,0.708-1.799,1.44-2.696,2.168L239.62,91.885z"/>
					</g>
				</g>
			</g>
			<g>
				<path style="fill:#FFC200;" d="M261.414,82.088c2.781-1.094,5.92-1.064,8.814-0.316c2.894,0.748,5.57,2.178,8.068,3.819
					c1.173,0.771,2.346,1.625,3.077,2.823c0.731,1.198,0.923,2.826,0.12,3.977c-0.803,1.151-2.747,1.43-3.607,0.32
					c0.89,1.276,1.112,3.098,0.231,4.379c-0.881,1.282-2.975,1.645-4.037,0.509c0.846,0.672,0.775,2.149-0.074,2.818
					c-0.848,0.669-2.209,0.467-2.913-0.351c1.261,0.54,0.862,2.676-0.399,3.215c-1.261,0.54-2.719-0.044-3.86-0.805
					c-1.906-1.273-3.428-3.03-4.924-4.766c-2.09-2.423-4.31-4.896-4.714-8.07C256.791,86.466,258.437,83.259,261.414,82.088z"/>
				<g>
					<g>
						<path style="fill:#25232D;" d="M273.163,95.11c-1.012-0.666-1.987-1.373-2.964-2.078c-0.981-0.7-1.939-1.427-2.904-2.145
							c-0.957-0.729-1.92-1.45-2.864-2.199c-0.947-0.744-1.896-1.487-2.815-2.276c1.062,0.584,2.08,1.234,3.086,1.901
							c1.01,0.663,1.986,1.373,2.954,2.094c0.96,0.732,1.912,1.474,2.827,2.262C271.403,93.452,272.309,94.252,273.163,95.11z"/>
					</g>
					<g>
						<path style="fill:#25232D;" d="M262.844,85.566c1.073,0.066,2.132,0.327,3.149,0.692c1.022,0.358,1.99,0.852,2.918,1.399
							c0.922,0.56,1.806,1.174,2.638,1.852c0.835,0.673,1.639,1.379,2.392,2.144c-0.91-0.569-1.782-1.182-2.666-1.771
							c-0.887-0.583-1.765-1.174-2.673-1.709c-0.901-0.548-1.831-1.04-2.783-1.489C264.863,86.241,263.871,85.876,262.844,85.566z"
							/>
					</g>
					<g>
						<path style="fill:#25232D;" d="M263.581,84.049c1.135-0.223,2.309-0.242,3.468-0.119c1.162,0.117,2.304,0.412,3.397,0.827
							c1.088,0.428,2.131,0.979,3.069,1.675c0.94,0.689,1.796,1.494,2.484,2.423c-0.87-0.757-1.776-1.449-2.742-2.04
							c-0.968-0.584-1.975-1.098-3.028-1.498c-1.048-0.413-2.138-0.712-3.248-0.932C265.87,84.172,264.734,84.073,263.581,84.049z"
							/>
					</g>
					<g>
						<path style="fill:#25232D;" d="M261.044,87.598c0.643,0.916,1.282,1.821,1.964,2.691c0.687,0.866,1.387,1.717,2.135,2.526
							c0.738,0.818,1.521,1.593,2.32,2.356c0.804,0.759,1.647,1.478,2.499,2.203c-0.994-0.519-1.921-1.156-2.802-1.853
							c-0.885-0.693-1.699-1.475-2.462-2.301c-0.752-0.836-1.456-1.718-2.065-2.663C262.02,89.617,261.47,88.634,261.044,87.598z"/>
					</g>
					<g>
						<path style="fill:#25232D;" d="M267.801,99.761c-0.908-0.73-1.752-1.534-2.56-2.371c-0.816-0.831-1.569-1.721-2.296-2.631
							c-0.707-0.925-1.42-1.843-1.999-2.879c-0.585-1.028-0.962-2.188-1.008-3.355c0.295,1.127,0.763,2.176,1.403,3.114
							c0.644,0.935,1.367,1.842,2.076,2.748c0.708,0.91,1.44,1.799,2.167,2.696L267.801,99.761z"/>
					</g>
				</g>
			</g>
			<g>
				<path style="fill:#FFC200;" d="M251.721,82.226c-2.781,1.094-5.92,1.064-8.814,0.316c-2.894-0.748-5.57-2.177-8.068-3.819
					c-1.173-0.771-2.346-1.625-3.076-2.823c-0.731-1.198-0.923-2.826-0.12-3.977c0.803-1.151,2.747-1.429,3.607-0.32
					c-0.89-1.276-1.112-3.098-0.231-4.38c0.881-1.282,2.975-1.645,4.037-0.508c-0.846-0.672-0.775-2.15,0.074-2.819
					c0.848-0.669,2.209-0.467,2.913,0.351c-1.261-0.54-0.862-2.676,0.399-3.216c1.261-0.54,2.719,0.044,3.86,0.805
					c1.906,1.273,3.428,3.03,4.925,4.766c2.089,2.423,4.31,4.896,4.714,8.07C256.345,77.847,254.698,81.054,251.721,82.226z"/>
				<g>
					<g>
						<path style="fill:#25232D;" d="M239.972,69.204c1.011,0.666,1.987,1.373,2.964,2.078c0.981,0.7,1.939,1.427,2.905,2.145
							c0.957,0.729,1.92,1.45,2.863,2.199c0.947,0.744,1.896,1.487,2.815,2.276c-1.062-0.584-2.08-1.234-3.086-1.901
							c-1.01-0.663-1.986-1.373-2.954-2.094c-0.96-0.732-1.912-1.474-2.827-2.262C241.732,70.862,240.827,70.062,239.972,69.204z"/>
					</g>
					<g>
						<path style="fill:#25232D;" d="M250.291,78.748c-1.073-0.067-2.132-0.327-3.149-0.692c-1.022-0.358-1.989-0.852-2.918-1.399
							c-0.922-0.56-1.806-1.174-2.638-1.852c-0.835-0.673-1.639-1.379-2.392-2.144c0.91,0.57,1.782,1.182,2.666,1.771
							c0.887,0.584,1.765,1.174,2.673,1.71c0.901,0.548,1.831,1.04,2.783,1.489C248.272,78.073,249.265,78.438,250.291,78.748z"/>
					</g>
					<g>
						<path style="fill:#25232D;" d="M249.554,80.265c-1.135,0.223-2.309,0.242-3.468,0.119c-1.162-0.117-2.304-0.412-3.397-0.827
							c-1.088-0.428-2.131-0.979-3.069-1.675c-0.94-0.689-1.796-1.494-2.484-2.423c0.87,0.757,1.776,1.449,2.742,2.039
							c0.968,0.585,1.975,1.098,3.028,1.498c1.048,0.413,2.138,0.712,3.248,0.932C247.265,80.141,248.401,80.24,249.554,80.265z"/>
					</g>
					<g>
						<path style="fill:#25232D;" d="M252.092,76.716c-0.643-0.916-1.282-1.821-1.964-2.691c-0.687-0.865-1.387-1.717-2.135-2.526
							c-0.738-0.818-1.521-1.593-2.32-2.356c-0.804-0.759-1.647-1.478-2.499-2.203c0.994,0.519,1.921,1.156,2.802,1.853
							c0.885,0.693,1.699,1.475,2.462,2.301c0.752,0.836,1.456,1.718,2.065,2.663C251.116,74.697,251.665,75.679,252.092,76.716z"/>
					</g>
					<g>
						<path style="fill:#25232D;" d="M245.334,64.552c0.908,0.73,1.751,1.534,2.56,2.371c0.816,0.831,1.569,1.721,2.296,2.631
							c0.707,0.925,1.42,1.843,1.999,2.879c0.585,1.028,0.962,2.188,1.008,3.354c-0.295-1.127-0.763-2.175-1.403-3.113
							c-0.644-0.935-1.367-1.842-2.076-2.748c-0.708-0.91-1.44-1.799-2.168-2.696L245.334,64.552z"/>
					</g>
				</g>
			</g>
			<path style="fill:#FFEA68;" d="M255.545,76.016c-1.661,0.157-3.234,0.989-4.366,2.214c-0.927,1.003-1.575,2.287-1.708,3.646
				c-0.221,2.259,1.081,4.557,3.07,5.652c1.989,1.095,4.542,1.001,6.521-0.112c2.224-1.252,3.707-3.923,3.15-6.413
				C261.522,77.927,258.734,75.715,255.545,76.016z"/>
			<path style="fill:#443186;" d="M255.608,77.13c-1.363,0.129-2.652,0.811-3.581,1.816c-0.76,0.823-1.291,1.876-1.401,2.991
				c-0.181,1.853,0.887,3.738,2.518,4.636c1.631,0.898,3.725,0.821,5.348-0.092c1.824-1.027,3.041-3.217,2.583-5.26
				C260.51,78.697,258.224,76.883,255.608,77.13z"/>
		</g>
	</g>
</g>
</svg>
